<svg width="351" height="269" viewBox="0 0 351 269" fill="none" xmlns="http://www.w3.org/2000/svg">
<g filter="url(#filter0_d_2443_13290)">
<rect x="4" width="343" height="261" rx="16" fill="#0E0E0F" fill-opacity="0.8" shape-rendering="crispEdges"/>
<rect x="4.5" y="0.5" width="342" height="260" rx="15.5" stroke="white" stroke-opacity="0.7" stroke-dasharray="6 6" shape-rendering="crispEdges"/>
</g>
<rect x="36" y="24" width="279" height="40" rx="8" fill="white"/>
<path d="M177.414 70.5858C176.633 71.3668 175.367 71.3668 174.586 70.5858L168 64L184 64L177.414 70.5858Z" fill="white"/>
<path d="M52.62 38.122H60.446V39.06H56.638C56.498 39.69 56.344 40.278 56.148 40.824H61.062V41.79H58.122C58.85 42.924 59.97 43.82 61.482 44.464L61.048 45.346C59.186 44.436 57.87 43.246 57.1 41.79H55.756C55.616 42.07 55.476 42.322 55.336 42.574C54.622 43.652 53.558 44.618 52.158 45.472L51.528 44.674C52.858 43.946 53.852 43.064 54.524 42.056C54.58 41.958 54.636 41.874 54.692 41.79H51.976V40.824H55.14C55.364 40.264 55.518 39.676 55.63 39.06H52.62V38.122ZM53.474 45.514L54.314 45.92C53.796 47.348 53.194 48.594 52.508 49.644L51.682 49.056C52.368 48.062 52.97 46.886 53.474 45.514ZM49.638 37.772C50.506 38.374 51.248 38.976 51.836 39.592L51.15 40.278C50.618 39.704 49.876 39.088 48.938 38.444L49.638 37.772ZM49.302 41.118C50.198 41.804 50.94 42.49 51.542 43.176L50.856 43.862C50.31 43.218 49.568 42.518 48.616 41.79L49.302 41.118ZM50.576 44.982L51.458 45.332C50.898 47.096 50.268 48.762 49.596 50.33L48.658 49.91C49.386 48.314 50.03 46.662 50.576 44.982ZM55.308 50.414H54.006L53.796 49.462C54.202 49.504 54.594 49.532 54.958 49.532C55.238 49.532 55.392 49.336 55.392 48.972V43.848H56.358V49.21C56.358 50.008 56.008 50.414 55.308 50.414ZM59.634 45.178C60.292 46.424 60.866 47.754 61.342 49.168L60.446 49.56C59.928 48.02 59.368 46.648 58.752 45.472L59.634 45.178ZM57.786 45.682C58.374 46.914 58.878 48.23 59.312 49.63L58.416 50.036C57.968 48.496 57.478 47.152 56.932 45.976L57.786 45.682ZM74.754 39.648V50.19H73.774V49.252H71.142V50.19H70.176V39.648H74.754ZM71.142 48.286H73.774V40.614H71.142V48.286ZM65.024 37.604H66.032V40.432H68.888C68.888 44.8 68.818 47.502 68.678 48.538C68.538 49.686 67.852 50.274 66.62 50.274C66.41 50.274 66.06 50.246 65.556 50.218L65.304 49.294C65.752 49.322 66.144 49.35 66.48 49.35C67.194 49.35 67.614 48.944 67.726 48.146C67.81 47.418 67.866 45.164 67.894 41.412H66.032C65.976 45.542 65.052 48.552 63.26 50.456L62.518 49.798C64.142 48.048 64.982 45.248 65.024 41.412H62.784V40.432H65.024V37.604ZM83.91 48.062V49.056C81.754 49.504 79.43 49.896 76.938 50.204L76.714 49.238C77.834 49.112 78.926 48.972 79.99 48.804V46.158H77.26V45.178H79.99V43.554H80.998V45.178H83.518V46.158H80.998V48.636C81.992 48.468 82.958 48.272 83.91 48.062ZM76.896 38.178H83.854V39.13H80.256C79.584 40.53 78.954 41.58 78.366 42.294C79.752 42.154 81.068 41.986 82.328 41.762C82.02 41.258 81.67 40.754 81.292 40.236L82.062 39.732C83 40.992 83.714 42.098 84.218 43.036L83.378 43.624C83.196 43.26 83 42.896 82.776 42.518C81.012 42.826 79.066 43.092 76.966 43.302L76.728 42.392C76.896 42.364 77.036 42.336 77.134 42.294C77.708 41.79 78.394 40.74 79.192 39.13H76.896V38.178ZM87.55 50.274H85.492L85.268 49.294C85.94 49.322 86.584 49.35 87.2 49.35C87.592 49.35 87.802 49.14 87.802 48.734V37.604H88.824V48.986C88.824 49.84 88.39 50.274 87.55 50.274ZM85.002 38.864H85.982V47.53H85.002V38.864ZM96.496 40.936H91.288V39.942H96.58C96.342 39.2 96.048 38.486 95.712 37.8L96.692 37.534C97.042 38.332 97.308 39.06 97.504 39.732L96.958 39.942H102.726V40.936H97.518V44.24H102.054V45.178H97.518V48.93H103.216V49.924H90.798V48.93H96.496V45.178H91.96V44.24H96.496V40.936ZM113.688 44.352H111.098V45.094C111.084 45.5 111.056 45.878 111.014 46.228H113.688V44.352ZM113.688 47.152H110.86C110.72 47.684 110.552 48.16 110.328 48.566C109.852 49.378 109.082 50.008 108.004 50.456L107.444 49.574C108.438 49.154 109.124 48.608 109.516 47.908C109.628 47.67 109.726 47.418 109.81 47.152H107.332V46.228H110.02C110.062 45.864 110.09 45.486 110.104 45.094V44.352H107.836V43.428H110.104C109.838 42.98 109.572 42.56 109.306 42.196L110.16 41.79C110.496 42.294 110.832 42.84 111.14 43.428H113.324C113.73 42.896 114.094 42.322 114.402 41.706L115.368 42.042C115.074 42.546 114.752 43.008 114.402 43.428H116.684V44.352H114.654V46.228H117.23V47.152H114.654V50.288H113.688V47.152ZM115.522 39.004H107.052V40.446H115.522V39.004ZM107.052 41.398V42.714C107.038 45.682 106.534 48.244 105.526 50.372L104.658 49.616C105.582 47.824 106.044 45.528 106.058 42.714V38.052H116.502V41.398H107.052ZM124.552 45.962H125.504V46.942H128.738C127.982 46.494 127.394 46.018 126.974 45.486H123.348C122.858 46.018 122.242 46.508 121.5 46.942H124.552V45.962ZM124.552 47.712H121.906V50.05H120.954V47.236C120.366 47.53 119.736 47.796 119.064 48.034L118.63 47.194C120.142 46.718 121.318 46.158 122.144 45.486H118.98V44.646H122.956C123.124 44.408 123.264 44.17 123.376 43.918H120.52V40.208H122.144V39.312H118.812V38.486H122.144V37.548H123.11V38.486H126.904V37.548H127.87V38.486H131.202V39.312H127.87V40.208H129.494V43.918H124.314C124.216 44.17 124.104 44.408 123.964 44.646H131.02V45.486H127.996C128.766 46.172 129.914 46.718 131.426 47.11L131.02 47.95C130.376 47.726 129.816 47.502 129.34 47.264V48.958C129.34 49.686 128.934 50.064 128.122 50.064H127.058L126.848 49.224L127.842 49.252C128.206 49.252 128.388 49.084 128.388 48.748V47.712H125.504V50.4H124.552V47.712ZM126.904 39.312H123.11V40.208H126.904V39.312ZM128.542 43.218V42.378H121.472V43.218H128.542ZM121.472 41.72H128.542V40.936H121.472V41.72Z" fill="#181E2A"/>
<rect x="282.75" y="35.75" width="16.5" height="16.5" rx="1.25" stroke="#181E2A" stroke-width="1.5"/>
<path d="M286 44H296" stroke="#181E2A" stroke-width="1.5" stroke-linecap="round"/>
<path d="M291 39L291 49" stroke="#181E2A" stroke-width="1.5" stroke-linecap="round"/>
<circle cx="175" cy="112" r="24" fill="white"/>
<path d="M174.994 115.674C175.479 115.674 175.896 115.291 175.896 114.844V103.924L175.828 102.329L176.583 103.084L178.296 104.806C178.454 104.977 178.679 105.062 178.904 105.062C179.366 105.062 179.727 104.743 179.727 104.307C179.727 104.083 179.625 103.913 179.456 103.754L175.648 100.287C175.423 100.074 175.231 100 174.994 100C174.769 100 174.577 100.074 174.341 100.287L170.532 103.754C170.363 103.913 170.273 104.083 170.273 104.307C170.273 104.743 170.611 105.062 171.085 105.062C171.299 105.062 171.546 104.977 171.704 104.806L173.406 103.084L174.172 102.329L174.104 103.924V114.844C174.104 115.291 174.51 115.674 174.994 115.674ZM168.538 124H181.462C183.817 124 185 122.894 185 120.704V110.091C185 107.901 183.817 106.795 181.462 106.795H178.318V108.507H181.428C182.544 108.507 183.186 109.081 183.186 110.187V120.608C183.186 121.714 182.544 122.288 181.428 122.288H168.561C167.434 122.288 166.814 121.714 166.814 120.608V110.187C166.814 109.081 167.434 108.507 168.561 108.507H171.682V106.795H168.538C166.183 106.795 165 107.901 165 110.091V120.704C165 122.894 166.183 124 168.538 124Z" fill="#007AFF"/>
<path d="M57.7621 171.352H63.0821V169.938H64.0901V171.352H65.7841V172.318H64.0901V176.098C64.0901 176.938 63.6421 177.358 62.7461 177.358H60.8841L60.6741 176.392C61.2761 176.434 61.8501 176.462 62.3961 176.462C62.8441 176.462 63.0821 176.252 63.0821 175.846V172.318H57.7621V171.352ZM55.9141 164.562H56.9361V177.386H55.9141V172.752C54.9901 173.62 54.1361 174.306 53.3521 174.824L52.9041 173.858C53.7441 173.354 54.7381 172.57 55.9141 171.534V164.562ZM59.5401 172.892C60.3241 173.746 60.9121 174.488 61.3321 175.132L60.5481 175.692C60.1141 174.992 59.5261 174.208 58.7981 173.354L59.5401 172.892ZM60.5201 166.522C59.8761 167.264 59.0781 167.88 58.1121 168.384L57.4681 167.6C58.9941 166.844 60.0161 165.822 60.5481 164.548L61.5841 164.744C61.4581 165.038 61.3181 165.318 61.1641 165.598H65.2521V166.466C64.4541 168.51 62.2421 169.952 58.6301 170.778L58.1261 169.882C59.2321 169.644 60.1981 169.35 61.0381 169.014C60.5901 168.594 60.1421 168.244 59.7081 167.936L60.4221 167.39C60.9401 167.768 61.4301 168.174 61.8921 168.608C62.9421 168.034 63.6981 167.334 64.1601 166.522H60.5201ZM53.7861 166.2C54.4441 167.152 55.0041 168.174 55.4801 169.252L54.5981 169.616C54.0941 168.44 53.5341 167.418 52.9181 166.55L53.7861 166.2ZM150.248 165.122H158.074V166.06H154.266C154.126 166.69 153.972 167.278 153.776 167.824H158.69V168.79H155.75C156.478 169.924 157.598 170.82 159.11 171.464L158.676 172.346C156.814 171.436 155.498 170.246 154.728 168.79H153.384C153.244 169.07 153.104 169.322 152.964 169.574C152.25 170.652 151.186 171.618 149.786 172.472L149.156 171.674C150.486 170.946 151.48 170.064 152.152 169.056C152.208 168.958 152.264 168.874 152.32 168.79H149.604V167.824H152.768C152.992 167.264 153.146 166.676 153.258 166.06H150.248V165.122ZM151.102 172.514L151.942 172.92C151.424 174.348 150.822 175.594 150.136 176.644L149.31 176.056C149.996 175.062 150.598 173.886 151.102 172.514ZM147.266 164.772C148.134 165.374 148.876 165.976 149.464 166.592L148.778 167.278C148.246 166.704 147.504 166.088 146.566 165.444L147.266 164.772ZM146.93 168.118C147.826 168.804 148.568 169.49 149.17 170.176L148.484 170.862C147.938 170.218 147.196 169.518 146.244 168.79L146.93 168.118ZM148.204 171.982L149.086 172.332C148.526 174.096 147.896 175.762 147.224 177.33L146.286 176.91C147.014 175.314 147.658 173.662 148.204 171.982ZM152.936 177.414H151.634L151.424 176.462C151.83 176.504 152.222 176.532 152.586 176.532C152.866 176.532 153.02 176.336 153.02 175.972V170.848H153.986V176.21C153.986 177.008 153.636 177.414 152.936 177.414ZM157.262 172.178C157.92 173.424 158.494 174.754 158.97 176.168L158.074 176.56C157.556 175.02 156.996 173.648 156.38 172.472L157.262 172.178ZM155.414 172.682C156.002 173.914 156.506 175.23 156.94 176.63L156.044 177.036C155.596 175.496 155.106 174.152 154.56 172.976L155.414 172.682ZM172.382 166.648V177.19H171.402V176.252H168.77V177.19H167.804V166.648H172.382ZM168.77 175.286H171.402V167.614H168.77V175.286ZM162.652 164.604H163.66V167.432H166.516C166.516 171.8 166.446 174.502 166.306 175.538C166.166 176.686 165.48 177.274 164.248 177.274C164.038 177.274 163.688 177.246 163.184 177.218L162.932 176.294C163.38 176.322 163.772 176.35 164.108 176.35C164.822 176.35 165.242 175.944 165.354 175.146C165.438 174.418 165.494 172.164 165.522 168.412H163.66C163.604 172.542 162.68 175.552 160.888 177.456L160.146 176.798C161.77 175.048 162.61 172.248 162.652 168.412H160.412V167.432H162.652V164.604ZM181.538 175.062V176.056C179.382 176.504 177.058 176.896 174.566 177.204L174.342 176.238C175.462 176.112 176.554 175.972 177.618 175.804V173.158H174.888V172.178H177.618V170.554H178.626V172.178H181.146V173.158H178.626V175.636C179.62 175.468 180.586 175.272 181.538 175.062ZM174.524 165.178H181.482V166.13H177.884C177.212 167.53 176.582 168.58 175.994 169.294C177.38 169.154 178.696 168.986 179.956 168.762C179.648 168.258 179.298 167.754 178.92 167.236L179.69 166.732C180.628 167.992 181.342 169.098 181.846 170.036L181.006 170.624C180.824 170.26 180.628 169.896 180.404 169.518C178.64 169.826 176.694 170.092 174.594 170.302L174.356 169.392C174.524 169.364 174.664 169.336 174.762 169.294C175.336 168.79 176.022 167.74 176.82 166.13H174.524V165.178ZM185.178 177.274H183.12L182.896 176.294C183.568 176.322 184.212 176.35 184.828 176.35C185.22 176.35 185.43 176.14 185.43 175.734V164.604H186.452V175.986C186.452 176.84 186.018 177.274 185.178 177.274ZM182.63 165.864H183.61V174.53H182.63V165.864ZM194.124 167.936H188.916V166.942H194.208C193.97 166.2 193.676 165.486 193.34 164.8L194.32 164.534C194.67 165.332 194.936 166.06 195.132 166.732L194.586 166.942H200.354V167.936H195.146V171.24H199.682V172.178H195.146V175.93H200.844V176.924H188.426V175.93H194.124V172.178H189.588V171.24H194.124V167.936ZM211.316 171.352H208.726V172.094C208.712 172.5 208.684 172.878 208.642 173.228H211.316V171.352ZM211.316 174.152H208.488C208.348 174.684 208.18 175.16 207.956 175.566C207.48 176.378 206.71 177.008 205.632 177.456L205.072 176.574C206.066 176.154 206.752 175.608 207.144 174.908C207.256 174.67 207.354 174.418 207.438 174.152H204.96V173.228H207.648C207.69 172.864 207.718 172.486 207.732 172.094V171.352H205.464V170.428H207.732C207.466 169.98 207.2 169.56 206.934 169.196L207.788 168.79C208.124 169.294 208.46 169.84 208.768 170.428H210.952C211.358 169.896 211.722 169.322 212.03 168.706L212.996 169.042C212.702 169.546 212.38 170.008 212.03 170.428H214.312V171.352H212.282V173.228H214.858V174.152H212.282V177.288H211.316V174.152ZM213.15 166.004H204.68V167.446H213.15V166.004ZM204.68 168.398V169.714C204.666 172.682 204.162 175.244 203.154 177.372L202.286 176.616C203.21 174.824 203.672 172.528 203.686 169.714V165.052H214.13V168.398H204.68ZM222.18 172.962H223.132V173.942H226.366C225.61 173.494 225.022 173.018 224.602 172.486H220.976C220.486 173.018 219.87 173.508 219.128 173.942H222.18V172.962ZM222.18 174.712H219.534V177.05H218.582V174.236C217.994 174.53 217.364 174.796 216.692 175.034L216.258 174.194C217.77 173.718 218.946 173.158 219.772 172.486H216.608V171.646H220.584C220.752 171.408 220.892 171.17 221.004 170.918H218.148V167.208H219.772V166.312H216.44V165.486H219.772V164.548H220.738V165.486H224.532V164.548H225.498V165.486H228.83V166.312H225.498V167.208H227.122V170.918H221.942C221.844 171.17 221.732 171.408 221.592 171.646H228.648V172.486H225.624C226.394 173.172 227.542 173.718 229.054 174.11L228.648 174.95C228.004 174.726 227.444 174.502 226.968 174.264V175.958C226.968 176.686 226.562 177.064 225.75 177.064H224.686L224.476 176.224L225.47 176.252C225.834 176.252 226.016 176.084 226.016 175.748V174.712H223.132V177.4H222.18V174.712ZM224.532 166.312H220.738V167.208H224.532V166.312ZM226.17 170.218V169.378H219.1V170.218H226.17ZM219.1 168.72H226.17V167.936H219.1V168.72ZM232.232 174.334C232.54 174.334 232.806 174.46 233.002 174.726C233.184 174.978 233.282 175.3 233.282 175.706C233.282 176.322 233.1 176.868 232.736 177.344C232.372 177.792 231.882 178.1 231.294 178.254V177.568C231.658 177.442 231.952 177.232 232.176 176.952C232.386 176.658 232.484 176.35 232.484 176.014C232.428 176.042 232.316 176.07 232.176 176.07C231.938 176.07 231.742 175.986 231.574 175.818C231.406 175.65 231.322 175.44 231.322 175.202C231.322 174.936 231.406 174.726 231.574 174.572C231.742 174.404 231.952 174.334 232.232 174.334ZM245.882 169.854C245.448 170.484 244.972 171.086 244.468 171.66L244.174 170.652C245.63 168.86 246.68 166.816 247.324 164.506L248.234 164.926C247.87 166.088 247.422 167.194 246.876 168.23V177.414H245.882V169.854ZM247.996 166.956H251.706V164.548H252.7V166.956H256.522V167.936H253.666C254.31 170.246 255.444 172.304 257.068 174.11L256.41 174.936C254.702 172.864 253.512 170.526 252.868 167.936H252.7V173.55H254.87V174.516H252.7V177.4H251.706V174.516H249.564V173.55H251.706V167.936H251.538C250.838 170.848 249.62 173.242 247.898 175.104L247.38 174.236C248.948 172.612 250.054 170.512 250.726 167.936H247.996V166.956ZM265.09 168.678C264.586 169.238 264.054 169.742 263.494 170.176L262.962 169.364C264.53 168.146 265.748 166.564 266.588 164.618H267.512C268.212 166.41 269.444 167.964 271.18 169.308L270.634 170.148C270.032 169.686 269.5 169.196 269.024 168.678V169.546H265.09V168.678ZM268.982 168.622C268.17 167.698 267.526 166.69 267.05 165.598C266.49 166.774 265.86 167.782 265.132 168.622H268.982ZM263.368 175.944H267.918C268.45 174.46 268.926 172.612 269.346 170.414L270.312 170.652C269.92 172.64 269.458 174.404 268.898 175.944H271.012V176.91H263.368V175.944ZM264.656 170.82C265.104 171.982 265.496 173.326 265.86 174.838L264.992 175.048C264.684 173.676 264.278 172.374 263.788 171.114L264.656 170.82ZM266.812 170.414C267.19 171.52 267.526 172.794 267.834 174.236L266.952 174.446C266.7 173.144 266.364 171.884 265.944 170.68L266.812 170.414ZM261.8 166.13H258.412V165.206H262.808L262.136 170.974H263.004C263.004 174.166 262.864 176 262.598 176.49C262.318 176.966 261.744 177.218 260.862 177.218C260.54 177.218 260.204 177.204 259.868 177.176L259.602 176.28C260.092 176.336 260.442 176.364 260.638 176.364C261.31 176.364 261.716 176.14 261.856 175.72C261.996 175.272 262.08 173.998 262.08 171.87H258.51L259.168 167.068L260.092 167.124L259.532 170.974H261.184L261.8 166.13ZM261.282 173.116V174.026C260.358 174.376 259.322 174.656 258.16 174.88L258.034 173.928C259.266 173.718 260.358 173.452 261.282 173.116ZM272.636 165.122H284.634V166.06H279.132V167.278H283.472V172.822H278.964C278.796 173.746 278.53 174.488 278.138 175.048C280.098 175.874 282.422 176.336 285.11 176.42L284.858 177.386C282.044 177.274 279.594 176.728 277.508 175.776C276.528 176.616 274.918 177.148 272.692 177.4L272.258 176.476C274.204 176.322 275.632 175.93 276.528 175.286C275.716 174.838 274.96 174.32 274.274 173.732L275.044 173.2C275.702 173.746 276.43 174.222 277.214 174.628C277.55 174.152 277.802 173.55 277.942 172.822H273.84V167.278H278.124V166.06H272.636V165.122ZM282.478 171.94V170.456H279.132V170.946L279.09 171.94H282.478ZM278.082 171.94C278.11 171.618 278.124 171.282 278.124 170.946V170.456H274.834V171.94H278.082ZM274.834 169.616H278.124V168.146H274.834V169.616ZM279.132 168.146V169.616H282.478V168.146H279.132ZM290.878 166.256H293.916V164.562H294.952V166.256H298.046V167.236H294.952V169.308H298.76V170.288H290.15V169.308H293.916V167.236H290.878V166.256ZM290.724 172.57H293.916V170.792H294.952V172.57H298.172V173.55H294.952V175.93H298.984V176.924H289.912V175.93H293.916V173.55H290.724V172.57ZM287.924 169.602C287.476 170.204 286.986 170.778 286.454 171.324L286.132 170.246C287.644 168.58 288.736 166.662 289.422 164.506L290.374 164.94C289.996 166.032 289.52 167.068 288.96 168.048V177.4H287.924V169.602Z" fill="white"/>
<path d="M76.4 163.768H81.52V164.84H77.568V173.576H76.4V163.768ZM91.792 172.808H89.392V174.408H91.792V172.808ZM91.792 175.32H89.392V176.856H91.792V175.32ZM92.784 176.856H95.152V175.32H92.784V176.856ZM95.152 177.832H89.392V178.616H88.336V172.04C88.128 172.152 87.92 172.264 87.728 172.36L87.184 171.48V171.688C86.752 171.928 86.32 172.152 85.872 172.376V177.128C85.872 178.008 85.408 178.456 84.512 178.456H83.152L82.912 177.352C83.328 177.4 83.728 177.432 84.112 177.432C84.512 177.432 84.72 177.224 84.72 176.824V172.904C84.112 173.16 83.488 173.384 82.88 173.608L82.592 172.472C83.328 172.28 84.032 172.04 84.72 171.768V168.088H82.864V167H84.72V163.976H85.872V167H87.264V168.088H85.872V171.256C86.32 171.032 86.752 170.792 87.184 170.552V171.416C88.784 170.792 89.968 170.008 90.736 169.064H87.68V168.04H89.504C89.28 167.544 89.04 167.08 88.768 166.664L89.728 166.296C90 166.776 90.256 167.368 90.48 168.04H91.76V165.72C90.608 165.784 89.36 165.832 88.048 165.832L87.712 164.872C91.136 164.856 93.984 164.568 96.256 164.024L96.784 164.952C95.632 165.256 94.304 165.48 92.8 165.624V168.04H94.016C94.368 167.384 94.688 166.68 94.96 165.944L95.952 166.296C95.68 166.936 95.376 167.528 95.04 168.04H97.008V169.064H93.856C94.704 169.928 95.92 170.664 97.504 171.304L96.992 172.264C95.328 171.464 94 170.408 92.992 169.064H92.8V171.352H91.76V169.064H91.584C90.912 170.152 89.936 171.096 88.64 171.864H96.208V178.616H95.152V177.832ZM92.784 174.408H95.152V172.808H92.784V174.408ZM106.656 169.944C106.368 170.392 106.064 170.808 105.744 171.192L105.04 170.344C106.288 168.744 107.136 166.584 107.584 163.88L108.72 164.072C108.576 164.888 108.4 165.656 108.192 166.36H112.912V167.464H111.728C111.632 170.152 111.008 172.456 109.856 174.36C110.864 175.8 112.064 176.904 113.44 177.672L112.784 178.648C111.392 177.848 110.192 176.744 109.2 175.336C108.24 176.616 107.024 177.688 105.52 178.552L104.864 177.512C106.4 176.68 107.616 175.624 108.544 174.328C107.792 173.048 107.168 171.592 106.656 169.944ZM107.84 167.464C107.68 167.912 107.504 168.328 107.312 168.728C107.792 170.488 108.416 172.008 109.168 173.304C110.064 171.656 110.544 169.704 110.624 167.464H107.84ZM98.88 166.344H101.936C101.648 165.576 101.296 164.84 100.912 164.12L102.032 163.8C102.48 164.728 102.848 165.576 103.104 166.344H105.504V167.448H101.616V168.92C101.616 169.24 101.6 169.544 101.6 169.832H104.656C104.656 173.72 104.576 176.104 104.432 177C104.272 177.912 103.632 178.376 102.496 178.376C102.288 178.376 101.92 178.344 101.392 178.312L101.136 177.32C101.584 177.352 101.984 177.368 102.336 177.368C102.912 177.368 103.264 177.096 103.376 176.568C103.488 175.96 103.552 174.056 103.568 170.888H101.552C101.328 174.312 100.624 176.872 99.44 178.568L98.544 177.784C99.856 175.944 100.512 172.984 100.544 168.92V167.448H98.88V166.344ZM126.944 167.432V175H125.792V168.552H118.144V175.032H116.992V167.432H121.04C121.2 166.872 121.312 166.296 121.392 165.688H114.96V164.6H129.04V165.688H122.608C122.512 166.296 122.4 166.888 122.24 167.432H126.944ZM123.056 175.032C125.12 175.736 127.008 176.568 128.704 177.56L128 178.648C126.176 177.512 124.32 176.616 122.416 175.976L123.056 175.032ZM121.408 169.512H122.592V172.056C122.528 173.816 121.952 175.208 120.896 176.264C119.872 177.24 118.192 177.992 115.856 178.536L115.2 177.512C117.52 177 119.136 176.328 120.048 175.48C120.912 174.6 121.36 173.464 121.408 172.056V169.512ZM134.432 168.904H135.6V178.712H130.48V177.64H134.432V168.904Z" fill="white"/>
<rect x="128.5" y="205.5" width="95" height="31" rx="3.5" fill="#0C0C0D" stroke="white"/>
<path d="M153.176 221.368V222.536C152.248 222.84 151.288 223.128 150.264 223.4V227C150.264 227.928 149.768 228.392 148.792 228.392H147.016L146.776 227.288C147.336 227.336 147.88 227.368 148.408 227.368C148.856 227.368 149.08 227.144 149.08 226.712V223.672C148.056 223.896 147.016 224.104 145.928 224.28L145.768 223.112C146.936 222.92 148.04 222.728 149.08 222.504V219.352H145.784V218.248H149.08V216.104C148.232 216.28 147.352 216.424 146.44 216.552L146.2 215.448C148.472 215.192 150.488 214.728 152.248 214.04L152.632 215.128C151.896 215.384 151.096 215.624 150.264 215.848V218.248H154.104C154.008 216.952 153.96 215.528 153.96 213.96H155.112C155.128 215.576 155.176 217 155.272 218.248H160.216V219.352H155.368C155.48 220.504 155.624 221.464 155.816 222.248C155.912 222.664 156.024 223.032 156.136 223.384C156.904 222.456 157.592 221.4 158.168 220.216L159.16 220.744C158.424 222.248 157.56 223.528 156.552 224.6C156.776 225.144 157 225.608 157.256 225.976C157.768 226.744 158.184 227.144 158.488 227.144C158.808 227.128 159.08 226.232 159.336 224.44L160.344 224.968C159.96 227.24 159.4 228.376 158.664 228.376C158.008 228.376 157.32 227.896 156.584 226.936C156.264 226.504 155.96 225.992 155.704 225.416C154.552 226.44 153.24 227.24 151.784 227.816L151.16 226.824C152.728 226.248 154.088 225.4 155.256 224.296C155.064 223.752 154.888 223.16 154.728 222.536C154.504 221.624 154.328 220.568 154.2 219.352H150.264V222.232C151.304 221.96 152.28 221.672 153.176 221.368ZM156.872 214.136C158.024 214.904 159 215.656 159.8 216.424L158.968 217.256C158.264 216.52 157.32 215.72 156.104 214.872L156.872 214.136ZM175.56 215.624V227.864H174.44V226.84H171.304V227.896H170.2V215.624H175.56ZM171.304 225.768H174.44V216.696H171.304V225.768ZM164.152 217.176C163.752 218.04 163.304 218.84 162.808 219.576L161.8 218.936C162.856 217.4 163.608 215.72 164.088 213.88L165.224 214.12C165.032 214.808 164.824 215.464 164.6 216.072H169.224V217.176H166.888C166.872 218.328 166.808 219.4 166.696 220.36H169.368V221.464H166.536C166.456 221.88 166.376 222.296 166.28 222.68C167.304 223.72 168.36 224.904 169.416 226.216L168.728 227.272C167.64 225.736 166.728 224.568 165.976 223.736C165.32 225.528 164.152 227.032 162.456 228.248L161.704 227.32C163.4 226.088 164.52 224.536 165.064 222.664C165.16 222.28 165.256 221.88 165.336 221.464H161.992V220.36H165.496C165.624 219.4 165.688 218.328 165.704 217.176H164.152ZM182.328 215.704H184.984C184.728 215.208 184.44 214.744 184.12 214.312L185.192 213.912C185.544 214.424 185.88 215.016 186.168 215.704H188.056C188.44 215.128 188.792 214.52 189.08 213.88L190.2 214.264C189.928 214.808 189.64 215.288 189.32 215.704H192.04V216.776H187.56C187.448 217.224 187.304 217.656 187.144 218.072H190.952V225.784H183.368V218.072H185.928C186.104 217.64 186.232 217.208 186.328 216.776H182.328V215.704ZM189.864 224.76V223.432H184.456V224.76H189.864ZM184.456 222.504H189.864V221.288H184.456V222.504ZM184.456 220.36H189.864V219.096H184.456V220.36ZM179.016 214.184C180.12 215.016 181.048 215.848 181.8 216.68L180.984 217.48C180.312 216.68 179.4 215.832 178.232 214.936L179.016 214.184ZM188.344 228.312C187.48 228.312 186.536 228.296 185.512 228.28C184.488 228.264 183.656 228.168 183.016 227.992C182.376 227.8 181.816 227.4 181.336 226.824C181.112 226.552 180.904 226.424 180.712 226.424C180.328 226.424 179.688 227.144 178.776 228.616L177.912 227.848C178.792 226.472 179.56 225.656 180.216 225.4V220.536H177.864V219.48H181.288V225.464C181.416 225.56 181.544 225.688 181.672 225.832C182.056 226.296 182.472 226.632 182.904 226.84C183.4 227.064 184.12 227.192 185.064 227.224C185.896 227.24 186.936 227.256 188.184 227.256C188.936 227.256 189.704 227.24 190.488 227.224C191.256 227.208 191.864 227.192 192.28 227.16L192.008 228.312H188.344ZM200.664 219.256C202.296 218.328 203.832 217.24 205.304 215.992H194.776V214.872H206.872V215.992C205.384 217.336 203.704 218.616 201.832 219.832V226.984C201.832 227.976 201.32 228.472 200.328 228.472C199.368 228.472 198.52 228.44 197.8 228.408L197.48 227.288C198.264 227.352 199.112 227.384 200.008 227.384C200.44 227.384 200.664 227.176 200.664 226.776V219.256Z" fill="white"/>
<defs>
<filter id="filter0_d_2443_13290" x="0" y="0" width="351" height="269" filterUnits="userSpaceOnUse" color-interpolation-filters="sRGB">
<feFlood flood-opacity="0" result="BackgroundImageFix"/>
<feColorMatrix in="SourceAlpha" type="matrix" values="0 0 0 0 0 0 0 0 0 0 0 0 0 0 0 0 0 0 127 0" result="hardAlpha"/>
<feOffset dy="4"/>
<feGaussianBlur stdDeviation="2"/>
<feComposite in2="hardAlpha" operator="out"/>
<feColorMatrix type="matrix" values="0 0 0 0 0 0 0 0 0 0 0 0 0 0 0 0 0 0 0.25 0"/>
<feBlend mode="normal" in2="BackgroundImageFix" result="effect1_dropShadow_2443_13290"/>
<feBlend mode="normal" in="SourceGraphic" in2="effect1_dropShadow_2443_13290" result="shape"/>
</filter>
</defs>
</svg>
