<svg width="16" height="16" viewBox="0 0 16 16" fill="none" xmlns="http://www.w3.org/2000/svg">
<g id="icon/bfq_qp">
<path id="&#229;&#133;&#168;&#229;&#177;&#143;" fill-rule="evenodd" clip-rule="evenodd" d="M13.7555 10.0223V11.889C13.7555 12.9467 12.9467 13.7557 11.8888 13.7557H10.0221C9.64881 13.7557 9.39999 14.0045 9.39999 14.3778C9.39999 14.7514 9.64881 15 10.0221 15H11.8888C13.631 15 15 13.6312 15 11.889V10.0223C15 9.64881 14.751 9.39999 14.3776 9.39999C14.0043 9.39999 13.7555 9.64881 13.7555 10.0223ZM15 5.35561V3.72228C15 2.1979 13.631 1 11.8888 1H10.0221C9.64881 1 9.39999 1.21772 9.39999 1.54456C9.39999 1.87123 9.64881 2.08895 10.0221 2.08895H11.8888C12.9467 2.08895 13.7555 2.79684 13.7555 3.72228V5.35561C13.7555 5.68246 14.0043 5.9 14.3776 5.9C14.751 5.9 15 5.68246 15 5.35561ZM1 10.0223V11.889C1 13.6312 2.19772 15 3.7221 15H5.35544C5.6821 15 5.9 14.7514 5.9 14.3778C5.9 14.0045 5.6821 13.7557 5.35544 13.7557H3.7221C2.79649 13.7557 2.08877 12.9467 2.08877 11.889V10.0223C2.08877 9.64881 1.87105 9.39999 1.54439 9.39999C1.21772 9.39999 1 9.64881 1 10.0223ZM2.08877 5.35561V3.72228C2.08877 2.79684 2.79649 2.08895 3.7221 2.08895H5.35544C5.6821 2.08895 5.9 1.87123 5.9 1.54456C5.9 1.21772 5.6821 1 5.35544 1H3.7221C2.19772 1 1 2.1979 1 3.72228V5.35561C1 5.68246 1.21772 5.9 1.54439 5.9C1.87105 5.9 2.08877 5.68246 2.08877 5.35561Z" fill="white"/>
</g>
</svg>
