<svg width="20" height="20" viewBox="0 0 20 20" fill="none" xmlns="http://www.w3.org/2000/svg">
<path fill-rule="evenodd" clip-rule="evenodd" d="M10 19C14.9706 19 19 14.9706 19 10C19 5.02944 14.9706 1 10 1C5.02944 1 1 5.02944 1 10C1 14.9706 5.02944 19 10 19Z" fill="white"/>
<path d="M13.4161 12.8613C14.3372 12.8613 15.212 12.6629 16 12.3065C15.015 14.4845 12.8232 16 10.2774 16C6.81048 16 4 13.1895 4 9.72261C4 7.17682 5.51546 4.98498 7.69346 4C7.33708 4.78804 7.13869 5.66281 7.13869 6.58392C7.13869 10.0508 9.94917 12.8613 13.4161 12.8613Z" fill="#F6D658" stroke="#F6D658" stroke-width="0.5" stroke-linecap="round" stroke-linejoin="round"/>
</svg>
