<svg width="20" height="20" viewBox="0 0 20 20" fill="none" xmlns="http://www.w3.org/2000/svg">
<g id="icon/cbl_zt_day">
<path id="Knob" fill-rule="evenodd" clip-rule="evenodd" d="M10 19C14.9706 19 19 14.9706 19 10C19 5.02944 14.9706 1 10 1C5.02944 1 1 5.02944 1 10C1 14.9706 5.02944 19 10 19Z" fill="#F6D658" fill-opacity="0.2"/>
<g id="Icon">
<path d="M13 10C13 11.6569 11.6569 13 10 13C8.34315 13 7 11.6569 7 10C7 8.34315 8.34315 7 10 7C11.6569 7 13 8.34315 13 10Z" fill="#F6D658"/>
<path d="M10 4V5.2M10 14.8V16M5.2 10H4M6.58847 6.58847L5.73994 5.73994M13.4115 6.58847L14.2601 5.73994M6.58847 13.414L5.73994 14.2625M13.4115 13.414L14.2601 14.2625M16 10H14.8M13 10C13 11.6569 11.6569 13 10 13C8.34315 13 7 11.6569 7 10C7 8.34315 8.34315 7 10 7C11.6569 7 13 8.34315 13 10Z" stroke="#F6D658" stroke-linecap="round" stroke-linejoin="round"/>
</g>
</g>
</svg>
