<svg width="16" height="16" viewBox="0 0 16 16" fill="none" xmlns="http://www.w3.org/2000/svg">
<path fill-rule="evenodd" clip-rule="evenodd" d="M3 2C1.89543 2 1 2.89543 1 4V12C1 13.1046 1.89543 14 3 14H13C14.1046 14 15 13.1046 15 12V4C15 2.89543 14.1046 2 13 2H3ZM10.2861 7.60526L7.74644 5.66351C7.60951 5.55881 7.4238 5.5 7.23015 5.5C6.8269 5.5 6.5 5.74993 6.5 6.05824V9.94176C6.5 10.0898 6.57693 10.2318 6.71386 10.3365C6.999 10.5545 7.4613 10.5545 7.74644 10.3365L10.2861 8.39474C10.5713 8.17673 10.5713 7.82327 10.2861 7.60526Z" fill="white"/>
</svg>
