<svg width="16" height="16" viewBox="0 0 16 16" fill="none" xmlns="http://www.w3.org/2000/svg">
<path fill-rule="evenodd" clip-rule="evenodd" d="M8 15.5H8C3.85787 15.5 0.5 12.1421 0.5 8C0.5 3.85787 3.85787 0.5 8 0.5C12.1421 0.5 15.5 3.85787 15.5 8V7.99989C15.495 12.14 12.1402 15.4949 8.00011 15.5L8 15.5Z" fill="#F6D658"/>
<path fill-rule="evenodd" clip-rule="evenodd" d="M12.1708 5.5116C11.8779 5.21871 11.4031 5.21871 11.1102 5.5116L7.04797 9.57381L5.10626 7.6321C4.81336 7.3392 4.33849 7.3392 4.0456 7.6321C3.7527 7.92499 3.7527 8.39986 4.0456 8.69276L6.45506 11.1022C6.47317 11.1252 6.49281 11.1473 6.51399 11.1685C6.68545 11.3399 6.91927 11.411 7.14244 11.3817C7.3028 11.3621 7.45804 11.2907 7.58113 11.1676C7.59974 11.149 7.61717 11.1297 7.63342 11.1097L12.1708 6.57226C12.4637 6.27937 12.4637 5.80449 12.1708 5.5116Z" fill="#181E2A"/>
</svg>
