<svg width="375" height="212" viewBox="0 0 375 212" fill="none" xmlns="http://www.w3.org/2000/svg">
<g clip-path="url(#clip0_3117_4360)">
<rect width="375" height="212" fill="white" fill-opacity="0.06"/>
<g clip-path="url(#clip1_3117_4360)">
<path d="M173.873 82C173.873 83.933 172.335 85.5 170.437 85.5C168.539 85.5 167 83.933 167 82C167 80.067 168.539 78.5 170.437 78.5C172.335 78.5 173.873 80.067 173.873 82Z" fill="#212122"/>
<path d="M207 82C207 83.933 205.461 85.5 203.563 85.5C201.665 85.5 200.127 83.933 200.127 82C200.127 80.067 201.665 78.5 203.563 78.5C205.461 78.5 207 80.067 207 82Z" fill="#212122"/>
<path d="M198.183 81.5C194.041 81.5 190.064 83.1082 186.999 85.9695C183.936 83.1082 179.959 81.5 175.817 81.5C166.544 81.5 159 89.416 159 99.1457C159 104.98 161.744 110.43 166.344 113.727L187.001 128.5L207.658 113.727C212.256 110.432 215 104.982 215 99.1457C215 89.416 207.456 81.5 198.183 81.5ZM205.5 110.408L186.999 123.64L168.5 110.41C164.948 107.864 162.827 103.653 162.827 99.1457C162.827 91.6295 168.654 85.5161 175.817 85.5161C178.412 85.5161 180.921 86.3336 183.042 87.8234C183.995 88.4935 184.278 89.8515 183.674 90.8768C183.282 91.5379 183.065 92.3242 183.091 93.1662C183.154 95.2614 184.757 97.0014 186.752 97.1309C189.028 97.2806 190.916 95.3887 190.916 93.0322C190.916 92.2505 190.707 91.5201 190.345 90.8991C189.741 89.8627 190 88.5002 190.963 87.8234C193.081 86.3336 195.59 85.5161 198.187 85.5161C205.351 85.5161 211.177 91.6295 211.177 99.1457C211.177 103.653 209.057 107.864 205.504 110.408H205.5Z" fill="#252526"/>
<path d="M188.647 115.155C186.726 111.214 182.849 108.343 178.585 107.661C174.87 107.067 170.932 108.137 168 110.532C170.667 110.39 173.223 111.863 175.024 113.866C176.828 115.872 177.996 118.371 179.095 120.851C180.195 123.328 181.269 125.859 182.929 127.988C185.879 131.77 190.751 134.008 195.455 133.401C198.2 133.047 200.801 131.772 202.881 129.917C204.663 128.327 206.098 126.268 206.691 123.933C207.502 120.749 206.665 117.251 204.781 114.581C202.894 111.911 200.043 110.041 196.97 109.033C193.896 108.026 190.606 107.842 187.389 108.115C190.717 109.636 193.438 112.418 195.087 115.73C195.468 116.496 195.8 117.311 195.839 118.168C195.878 119.025 195.583 119.939 194.907 120.452C194.144 121.033 193.142 120.769 192.388 120.306C190.541 119.168 189.536 117.072 188.645 115.155" fill="#212122"/>
</g>
</g>
<defs>
<clipPath id="clip0_3117_4360">
<rect width="375" height="212" fill="white"/>
</clipPath>
<clipPath id="clip1_3117_4360">
<rect width="56" height="56" fill="white" transform="translate(159 78)"/>
</clipPath>
</defs>
</svg>
