<svg width="16" height="16" viewBox="0 0 16 16" fill="none" xmlns="http://www.w3.org/2000/svg">
<g id="icon/com_fuzhi">
<path id="Vector" d="M9.93333 5H4.06667C3.48 5 3 5.47647 3 6.05882V12.9412C3 13.5235 3.48 14 4.06667 14H9.93333C10.52 14 11 13.5235 11 12.9412V6.05882C11 5.47647 10.52 5 9.93333 5Z" fill="#A0ACC9"/>
<path id="Subtract" fill-rule="evenodd" clip-rule="evenodd" d="M6.56667 2.5H12.4333C13.02 2.5 13.5 2.97647 13.5 3.55882V10.4412C13.5 11.0235 13.02 11.5 12.4333 11.5H11.5V5.55882C11.5 4.97647 11.02 4.5 10.4333 4.5H5.5V3.55882C5.5 2.97647 5.98 2.5 6.56667 2.5Z" fill="#A0ACC9"/>
</g>
</svg>
