<svg width="20" height="20" viewBox="0 0 20 20" fill="none" xmlns="http://www.w3.org/2000/svg">
<g id="icon/com_caizan">
<path id="Subtract" fill-rule="evenodd" clip-rule="evenodd" d="M12.9403 12.5001H15.811C18.1825 12.5001 18.4321 11.3096 18.3073 10.0001L17.3088 4.52389C17.0592 2.85723 16.5599 1.66675 14.6877 1.66675L2.91466 1.66675C2.16577 1.66675 1.6665 2.14294 1.6665 2.73818L1.6665 11.4287C1.6665 12.0239 2.16577 12.5001 2.91466 12.5001H4.57763C4.70244 12.5001 6.57467 12.5001 7.07394 12.7382C7.44838 12.9763 7.94764 13.6906 8.57172 15.1191L9.32061 16.9048C9.69506 17.7382 10.3191 18.3334 11.3177 18.3334H11.5673C12.8154 18.2144 13.6891 17.1429 13.5643 16.0715C13.3147 13.6906 12.9403 12.5001 12.9403 12.5001ZM5.1665 3.83341C5.1665 3.55727 4.94265 3.33341 4.6665 3.33341C4.39036 3.33341 4.1665 3.55727 4.1665 3.83341L4.1665 10.3334C4.1665 10.6096 4.39036 10.8334 4.6665 10.8334C4.94265 10.8334 5.1665 10.6096 5.1665 10.3334L5.1665 3.83341Z" fill="#606980"/>
</g>
</svg>
