<svg width="16" height="16" viewBox="0 0 16 16" fill="none" xmlns="http://www.w3.org/2000/svg">
<path fill-rule="evenodd" clip-rule="evenodd" d="M10.3523 6.00001H12.6489C14.5461 6.00001 14.7458 6.95239 14.646 8.00001L13.8472 12.381C13.6475 13.7143 13.248 14.6667 11.7503 14.6667L2.33186 14.6667C1.73275 14.6667 1.33334 14.2857 1.33334 13.8095V6.85715C1.33334 6.38096 1.73274 6.00001 2.33186 6.00001H3.66224C3.76209 6.00001 5.25987 6.00001 5.65928 5.80954C5.95884 5.61906 6.35825 5.04763 6.85751 3.90477L7.45662 2.4762C7.75618 1.80953 8.25544 1.33334 9.05426 1.33334H9.25396C10.2525 1.42858 10.9514 2.28572 10.8516 3.14287C10.6519 5.04763 10.3523 6.00001 10.3523 6.00001ZM4.33334 7.83334C4.33334 7.5572 4.10948 7.33334 3.83334 7.33334C3.55719 7.33334 3.33334 7.5572 3.33334 7.83334L3.33334 12.8333C3.33334 13.1095 3.55719 13.3333 3.83334 13.3333C4.10948 13.3333 4.33334 13.1095 4.33334 12.8333L4.33334 7.83334Z" fill="white" fill-opacity="0.7"/>
</svg>
