<svg width="16" height="16" viewBox="0 0 16 16" fill="none" xmlns="http://www.w3.org/2000/svg">
<path d="M10.5432 11.7334C9.77238 12.2898 8.86829 12.567 7.94629 12.5557C7.82396 12.5537 7.70361 12.5445 7.58326 12.5353C7.53453 12.5302 7.48579 12.522 7.43706 12.5148C7.34157 12.5026 7.24908 12.4903 7.15658 12.4708C7.09989 12.4606 7.04319 12.4443 6.98849 12.431C6.89798 12.4105 6.80847 12.39 6.71995 12.3635C6.67818 12.3471 6.63839 12.3338 6.59662 12.3164C6.49417 12.2837 6.39272 12.2468 6.29525 12.2049C6.27337 12.1947 6.25149 12.1865 6.22961 12.1773C6.11523 12.1231 6.00185 12.0678 5.89145 12.0085C5.88747 12.0055 5.8815 12.0034 5.87752 12.0003C5.50554 11.7896 5.16638 11.5309 4.868 11.222C4.86303 11.2168 4.85905 11.2107 4.85308 11.2056C4.76059 11.1105 4.67207 11.0123 4.58852 10.9059C4.57161 10.8844 4.5547 10.8629 4.5368 10.8374C3.93109 10.058 3.56607 9.07092 3.56607 7.99795H4.73373L2.86687 5.11865L1 7.99795H2.16567C2.16567 9.25912 2.54959 10.4293 3.19906 11.3979C3.20702 11.4122 3.21199 11.4275 3.22094 11.4398C3.28758 11.5401 3.36317 11.6311 3.43478 11.7232C3.46263 11.7569 3.4865 11.7917 3.51535 11.8295C3.62077 11.9605 3.73515 12.0852 3.85053 12.208C3.86246 12.2203 3.87241 12.2305 3.88235 12.2417C4.27323 12.6447 4.71384 12.9823 5.19423 13.2543C5.20716 13.2615 5.2181 13.2676 5.23302 13.2758C5.37127 13.3525 5.5135 13.4231 5.65672 13.4876C5.69352 13.5039 5.72833 13.5203 5.76314 13.5356C5.88747 13.5898 6.01378 13.6348 6.14109 13.6799C6.20176 13.7013 6.26044 13.7218 6.32211 13.7422C6.4335 13.775 6.54689 13.8046 6.66226 13.8312C6.73885 13.8496 6.81245 13.8701 6.89102 13.8844C6.92285 13.8926 6.95268 13.9028 6.98451 13.9059C7.09392 13.9264 7.20233 13.9366 7.30975 13.9499C7.34953 13.957 7.38832 13.9642 7.42711 13.9683C7.62205 13.9877 7.816 14 8.00995 14C9.19452 14 10.3522 13.6277 11.3448 12.9117C11.6611 12.6836 11.7387 12.2335 11.5179 11.9103C11.2951 11.582 10.8595 11.5032 10.5432 11.7334ZM13.8313 7.99795C13.8313 6.73986 13.4524 5.57075 12.8059 4.60723C12.796 4.59086 12.79 4.57347 12.782 4.55915C12.6985 4.4405 12.613 4.33004 12.5244 4.21855C12.5145 4.20627 12.5045 4.19195 12.4956 4.17763C11.9008 3.44119 11.1579 2.86942 10.3174 2.49608C10.2926 2.48585 10.2717 2.4746 10.2468 2.46437C10.1115 2.40709 9.97428 2.358 9.83404 2.3089C9.7863 2.29253 9.73558 2.27412 9.68585 2.25878C9.56451 2.22093 9.44316 2.19025 9.31983 2.16059C9.25121 2.14524 9.18159 2.12683 9.11296 2.11251C9.07914 2.10638 9.04831 2.09615 9.0125 2.08899C8.92001 2.07364 8.8295 2.06444 8.737 2.05319C8.67235 2.04603 8.61068 2.0358 8.54604 2.02864C8.39088 2.0133 8.23671 2.00716 8.08255 2.00409C8.0547 2.00409 8.02685 2 7.999 2C7.99403 2 7.98906 2.00102 7.98409 2.00205C6.80051 2.00307 5.64479 2.37027 4.65416 3.08524C4.33788 3.31231 4.2603 3.76134 4.48309 4.08865C4.7029 4.41289 5.14152 4.49267 5.45879 4.26355C6.22364 3.71326 7.11679 3.433 8.03282 3.44221C8.16411 3.44323 8.2954 3.44937 8.42271 3.46267C8.46249 3.46573 8.50028 3.47187 8.54007 3.47801C8.64549 3.49131 8.74993 3.50563 8.85337 3.52813C8.89812 3.53631 8.94388 3.54858 8.98664 3.55881C9.08909 3.58234 9.18855 3.60689 9.28701 3.63757C9.31983 3.64678 9.34967 3.65803 9.37951 3.6703C9.49389 3.70815 9.60529 3.74804 9.7127 3.79509C9.72464 3.79816 9.73558 3.80736 9.74652 3.81146C10.4 4.0999 10.9719 4.54381 11.4194 5.10024C11.4204 5.10228 11.4224 5.10638 11.4264 5.10944C12.055 5.89703 12.4329 6.90249 12.4339 7.99795H11.2653L13.1351 10.8783L15 7.99795H13.8313Z" fill="#A0ACC9"/>
</svg>
