<svg width="20" height="20" viewBox="0 0 20 20" fill="none" xmlns="http://www.w3.org/2000/svg">
<g id="icon/com_caizan_on">
<path id="Subtract" fill-rule="evenodd" clip-rule="evenodd" d="M12.9404 12.5001H15.8112C18.1827 12.5001 18.4323 11.3096 18.3075 10.0001L17.309 4.52389C17.0593 2.85723 16.5601 1.66675 14.6878 1.66675L2.91483 1.66675C2.16593 1.66675 1.66667 2.14294 1.66667 2.73818L1.66667 11.4287C1.66667 12.0239 2.16593 12.5001 2.91482 12.5001H4.5778C4.70261 12.5001 6.57484 12.5001 7.0741 12.7382C7.44855 12.9763 7.94781 13.6906 8.57189 15.1191L9.32078 16.9048C9.69522 17.7382 10.3193 18.3334 11.3178 18.3334H11.5675C12.8156 18.2144 13.6893 17.1429 13.5645 16.0715C13.3149 13.6906 12.9404 12.5001 12.9404 12.5001ZM5.16667 3.83341C5.16667 3.55727 4.94281 3.33341 4.66667 3.33341C4.39053 3.33341 4.16667 3.55727 4.16667 3.83341L4.16667 10.3334C4.16667 10.6096 4.39053 10.8334 4.66667 10.8334C4.94281 10.8334 5.16667 10.6096 5.16667 10.3334L5.16667 3.83341Z" fill="url(#paint0_linear_2827_2096)"/>
</g>
<defs>
<linearGradient id="paint0_linear_2827_2096" x1="1.66667" y1="1.66675" x2="18.3333" y2="18.3334" gradientUnits="userSpaceOnUse">
<stop stop-color="#FFAF88"/>
<stop offset="1" stop-color="#FFE500"/>
</linearGradient>
</defs>
</svg>
