<svg width="20" height="20" viewBox="0 0 20 20" fill="none" xmlns="http://www.w3.org/2000/svg">
<g id="icon/com_caizan_1">
<path id="Subtract" fill-rule="evenodd" clip-rule="evenodd" d="M12.9404 12.5001H15.8112C18.1827 12.5001 18.4323 11.3096 18.3075 10.0001L17.309 4.52389C17.0593 2.85723 16.5601 1.66675 14.6879 1.66675L2.91484 1.66675C2.16595 1.66675 1.66669 2.14294 1.66669 2.73818L1.66669 11.4287C1.66669 12.0239 2.16595 12.5001 2.91484 12.5001H4.57781C4.70263 12.5001 6.57486 12.5001 7.07412 12.7382C7.44856 12.9763 7.94782 13.6906 8.5719 15.1191L9.32079 16.9048C9.69524 17.7382 10.3193 18.3334 11.3178 18.3334H11.5675C12.8156 18.2144 13.6893 17.1429 13.5645 16.0715C13.3149 13.6906 12.9404 12.5001 12.9404 12.5001ZM5.16669 3.83341C5.16669 3.55727 4.94283 3.33341 4.66669 3.33341C4.39054 3.33341 4.16669 3.55727 4.16669 3.83341L4.16669 10.3334C4.16669 10.6096 4.39055 10.8334 4.66669 10.8334C4.94283 10.8334 5.16669 10.6096 5.16669 10.3334L5.16669 3.83341Z" fill="white" fill-opacity="0.7"/>
</g>
</svg>
