<svg width="56" height="56" viewBox="0 0 56 56" fill="none" xmlns="http://www.w3.org/2000/svg">
<g clip-path="url(#clip0_3170_4490)">
<path d="M14.8731 4C14.8731 5.933 13.3345 7.5 11.4365 7.5C9.5386 7.5 8 5.933 8 4C8 2.067 9.5386 0.5 11.4365 0.5C13.3345 0.5 14.8731 2.067 14.8731 4Z" fill="#212122"/>
<path d="M48 4C48 5.933 46.4614 7.5 44.5635 7.5C42.6655 7.5 41.1269 5.933 41.1269 4C41.1269 2.067 42.6655 0.5 44.5635 0.5C46.4614 0.5 48 2.067 48 4Z" fill="#212122"/>
<path d="M39.1832 3.5C35.0407 3.5 31.0643 5.10821 27.9989 7.96949C24.9357 5.10821 20.9593 3.5 16.8168 3.5C7.54415 3.5 0 11.416 0 21.1457C0 26.9799 2.74391 32.43 7.34405 35.7268L28.0011 50.5L48.6581 35.7268C53.2561 32.4322 56 26.9821 56 21.1457C56 11.416 48.4558 3.5 39.1832 3.5ZM46.4996 32.4076L27.9989 45.6396L9.50044 32.4098C5.94762 29.8635 3.82742 25.6531 3.82742 21.1457C3.82742 13.6295 9.6537 7.51606 16.8168 7.51606C19.4117 7.51606 21.9215 8.33357 24.0417 9.8234C24.9953 10.4935 25.2784 11.8515 24.6739 12.8768C24.2822 13.5379 24.0651 14.3242 24.0906 15.1662C24.1545 17.2614 25.7574 19.0014 27.752 19.1309C30.0276 19.2806 31.9158 17.3887 31.9158 15.0322C31.9158 14.2505 31.7071 13.5201 31.3453 12.8991C30.7407 11.8627 31.0004 10.5002 31.9626 9.8234C34.0807 8.33357 36.5904 7.51606 39.1874 7.51606C46.3506 7.51606 52.1768 13.6295 52.1768 21.1457C52.1768 25.6531 50.0566 29.8635 46.5038 32.4076H46.4996Z" fill="#252526"/>
<path d="M29.6475 37.1547C27.7262 33.214 23.8488 30.3426 19.5846 29.6608C15.8702 29.0674 11.9319 30.1367 9 32.5321C11.6668 32.3905 14.2227 33.8627 16.0245 35.8662C17.8284 37.872 18.9956 40.3714 20.0953 42.851C21.1951 45.3283 22.2687 47.8587 23.9292 49.9885C26.8785 53.7697 31.7514 56.008 36.4546 55.4014C39.1997 55.0471 41.8012 53.772 43.8812 51.9167C45.6634 50.3272 47.0979 48.2683 47.6912 45.9327C48.5019 42.7491 47.6651 39.2512 45.7808 36.5813C43.8942 33.9114 41.0427 32.0407 37.9695 31.0334C34.8963 30.0261 31.6057 29.8423 28.3891 30.1146C31.7166 31.6355 34.4377 34.4184 36.0873 37.7303C36.4677 38.4963 36.8002 39.311 36.8393 40.1678C36.8784 41.0245 36.5829 41.9389 35.9069 42.4525C35.1441 43.0325 34.1421 42.769 33.3879 42.3064C31.5405 41.1684 30.5364 39.0719 29.6453 37.1547" fill="#212122"/>
</g>
<defs>
<clipPath id="clip0_3170_4490">
<rect width="56" height="56" fill="white"/>
</clipPath>
</defs>
</svg>
