<svg width="24" height="24" viewBox="0 0 24 24" fill="none" xmlns="http://www.w3.org/2000/svg">
<path fill-rule="evenodd" clip-rule="evenodd" d="M10.4142 3C10.149 3 9.89464 3.10536 9.70711 3.29289L8 5H3.5C3.22386 5 3 5.22386 3 5.5C3 5.77614 3.22386 6 3.5 6H20.5C20.7761 6 21 5.77614 21 5.5C21 5.22386 20.7761 5 20.5 5H16L14.2929 3.29289C14.1054 3.10536 13.851 3 13.5858 3H10.4142ZM5 7H19V19C19 20.1046 18.1046 21 17 21H7C5.89543 21 5 20.1046 5 19V7ZM9 10.5C9 10.2239 9.22386 10 9.5 10C9.77614 10 10 10.2239 10 10.5V17.5C10 17.7761 9.77614 18 9.5 18C9.22386 18 9 17.7761 9 17.5V10.5ZM14.5 10C14.2239 10 14 10.2239 14 10.5V17.5C14 17.7761 14.2239 18 14.5 18C14.7761 18 15 17.7761 15 17.5V10.5C15 10.2239 14.7761 10 14.5 10Z" fill="white" fill-opacity="0.7"/>
</svg>
