<svg width="20" height="20" viewBox="0 0 20 20" fill="none" xmlns="http://www.w3.org/2000/svg">
<g id="icon/com_fenxiang_1">
<path id="Subtract" fill-rule="evenodd" clip-rule="evenodd" d="M12.6253 1.94685C12.081 1.36972 11.0908 1.74401 11.0908 2.52693V6.56635C4.25058 6.56635 1.28213 11.9132 0.0440747 15.6381C-0.242067 16.499 0.931987 17.0154 1.63492 16.4223C5.90005 12.8232 11.0908 13.4339 11.0908 13.4339V17.4732C11.0908 18.2562 12.081 18.6304 12.6253 18.0533L19.7678 10.5802C20.0774 10.252 20.0774 9.74822 19.7678 9.42001L12.6253 1.94685ZM15.0505 7.20547C14.8878 7.04275 14.624 7.04275 14.4613 7.20547C14.2986 7.36818 14.2986 7.632 14.4613 7.79472L16.372 9.70547C16.5347 9.86818 16.7986 9.86818 16.9613 9.70547C17.124 9.54275 17.124 9.27893 16.9613 9.11621L15.0505 7.20547Z" fill="white" fill-opacity="0.7"/>
</g>
</svg>
