<svg width="16" height="16" viewBox="0 0 16 16" fill="none" xmlns="http://www.w3.org/2000/svg">
<path fill-rule="evenodd" clip-rule="evenodd" d="M10.3525 6.00001H12.6491C14.5463 6.00001 14.746 6.95239 14.6461 8.00001L13.8473 12.381C13.6476 13.7143 13.2482 14.6667 11.7504 14.6667L2.33202 14.6667C1.73291 14.6667 1.3335 14.2857 1.3335 13.8095V6.85715C1.3335 6.38096 1.7329 6.00001 2.33202 6.00001H3.6624C3.76225 6.00001 5.26003 6.00001 5.65944 5.80954C5.959 5.61906 6.35841 5.04763 6.85767 3.90477L7.45678 2.4762C7.75634 1.80953 8.2556 1.33334 9.05442 1.33334H9.25412C10.2526 1.42858 10.9516 2.28572 10.8518 3.14287C10.6521 5.04763 10.3525 6.00001 10.3525 6.00001ZM4.3335 7.83334C4.3335 7.5572 4.10964 7.33334 3.8335 7.33334C3.55735 7.33334 3.3335 7.5572 3.3335 7.83334L3.3335 12.8333C3.3335 13.1095 3.55735 13.3333 3.8335 13.3333C4.10964 13.3333 4.3335 13.1095 4.3335 12.8333L4.3335 7.83334Z" fill="#606980"/>
</svg>
