<svg width="20" height="20" viewBox="0 0 20 20" fill="none" xmlns="http://www.w3.org/2000/svg">
<g id="icon/com_shoucang_on">
<path id="Subtract" fill-rule="evenodd" clip-rule="evenodd" d="M10 3.72196C10.9721 2.44384 12.4354 1.66675 14.0137 1.66675C16.8567 1.66675 19.1667 4.14119 19.1667 7.178C19.1667 8.98781 18.3409 10.2659 17.672 11.2884C15.7279 14.2537 10.8675 17.9551 10.6585 18.1085C10.4599 18.2618 10.2299 18.3334 10 18.3334C9.77004 18.3334 9.54009 18.2618 9.3415 18.1085C9.13245 17.9551 4.26168 14.2639 2.32801 11.2884C1.65906 10.2659 0.833328 8.98781 0.833328 7.178C0.833328 4.14119 3.14329 1.66675 5.98631 1.66675C7.56461 1.66675 9.03838 2.44384 10 3.72196ZM11.8518 13.5186C11.6566 13.7138 11.6566 14.0304 11.8518 14.2257C12.0471 14.4209 12.3637 14.4209 12.5589 14.2257L15.0589 11.7257C15.2542 11.5304 15.2542 11.2138 15.0589 11.0186C14.8637 10.8233 14.5471 10.8233 14.3518 11.0186L11.8518 13.5186Z" fill="url(#paint0_linear_2827_8101)"/>
</g>
<defs>
<linearGradient id="paint0_linear_2827_8101" x1="0.833328" y1="1.66675" x2="20.5777" y2="16.4487" gradientUnits="userSpaceOnUse">
<stop stop-color="#FFAF88"/>
<stop offset="1" stop-color="#FFE500"/>
</linearGradient>
</defs>
</svg>
