<svg width="20" height="20" viewBox="0 0 20 20" fill="none" xmlns="http://www.w3.org/2000/svg">
<g id="icon/com_shoucang">
<path id="Subtract" fill-rule="evenodd" clip-rule="evenodd" d="M10.0002 3.72196C10.9722 2.44384 12.4355 1.66675 14.0138 1.66675C16.8569 1.66675 19.1668 4.14119 19.1668 7.178C19.1668 8.98781 18.3411 10.2659 17.6721 11.2884C15.728 14.2537 10.8677 17.9551 10.6587 18.1085C10.4601 18.2618 10.2301 18.3334 10.0002 18.3334C9.77021 18.3334 9.54026 18.2618 9.34167 18.1085C9.13262 17.9551 4.26185 14.2639 2.32817 11.2884C1.65923 10.2659 0.833496 8.98781 0.833496 7.178C0.833496 4.14119 3.14345 1.66675 5.98648 1.66675C7.56478 1.66675 9.03855 2.44384 10.0002 3.72196ZM11.852 13.5186C11.6567 13.7138 11.6567 14.0304 11.852 14.2257C12.0473 14.4209 12.3638 14.4209 12.5591 14.2257L15.0591 11.7257C15.2544 11.5304 15.2544 11.2138 15.0591 11.0186C14.8638 10.8233 14.5473 10.8233 14.352 11.0186L11.852 13.5186Z" fill="#606980"/>
</g>
</svg>
