<svg width="16" height="16" viewBox="0 0 16 16" fill="none" xmlns="http://www.w3.org/2000/svg">
<path fill-rule="evenodd" clip-rule="evenodd" d="M2.9165 7.49998C2.9165 4.78458 5.11777 2.58331 7.83317 2.58331C10.5486 2.58331 12.7498 4.78458 12.7498 7.49998C12.7498 10.2154 10.5486 12.4166 7.83317 12.4166C5.11777 12.4166 2.9165 10.2154 2.9165 7.49998ZM7.83317 1.08331C4.28934 1.08331 1.4165 3.95615 1.4165 7.49998C1.4165 11.0438 4.28934 13.9166 7.83317 13.9166C9.16362 13.9166 10.3995 13.5117 11.4243 12.8184L13.1685 14.5627C13.4614 14.8556 13.9363 14.8556 14.2292 14.5627C14.5221 14.2698 14.5221 13.7949 14.2292 13.502L12.5632 11.836C13.6106 10.694 14.2498 9.17167 14.2498 7.49998C14.2498 3.95615 11.377 1.08331 7.83317 1.08331Z" fill="#606980"/>
</svg>
