<svg width="16" height="16" viewBox="0 0 16 16" fill="none" xmlns="http://www.w3.org/2000/svg">
<path fill-rule="evenodd" clip-rule="evenodd" d="M8 15.5H8C3.85787 15.5 0.5 12.1421 0.5 8C0.5 3.85787 3.85787 0.5 8 0.5C12.1421 0.5 15.5 3.85787 15.5 8V7.99989C15.495 12.14 12.1402 15.4949 8.00011 15.5L8 15.5Z" fill="url(#paint0_linear_2582_3652)"/>
<path fill-rule="evenodd" clip-rule="evenodd" d="M12.171 5.51166C11.8781 5.21877 11.4032 5.21877 11.1103 5.51166L7.04809 9.57387L5.10638 7.63216C4.81349 7.33926 4.33861 7.33926 4.04572 7.63216C3.75283 7.92505 3.75283 8.39992 4.04572 8.69282L6.45518 11.1023C6.47329 11.1252 6.49293 11.1473 6.51411 11.1685C6.68557 11.34 6.91939 11.4111 7.14257 11.3818C7.30293 11.3621 7.45816 11.2908 7.58125 11.1677C7.59987 11.1491 7.6173 11.1297 7.63354 11.1097L12.171 6.57232C12.4639 6.27943 12.4639 5.80456 12.171 5.51166Z" fill="white"/>
<defs>
<linearGradient id="paint0_linear_2582_3652" x1="6.59361e-08" y1="1" x2="15" y2="16" gradientUnits="userSpaceOnUse">
<stop stop-color="#FFC4A7"/>
<stop offset="1" stop-color="#FF5E0F"/>
</linearGradient>
</defs>
</svg>
