<svg width="12" height="13" viewBox="0 0 12 13" fill="none" xmlns="http://www.w3.org/2000/svg">
<path fill-rule="evenodd" clip-rule="evenodd" d="M2 2C1.44772 2 1 2.44772 1 3V10C1 10.5523 1.44772 11 2 11H10C10.5523 11 11 10.5523 11 10V5H8V2H2ZM2.2 4C2.08954 4 2 4.08954 2 4.2V4.8C2 4.91046 2.08954 5 2.2 5H2.8C2.91046 5 3 4.91046 3 4.8V4.2C3 4.08954 2.91046 4 2.8 4H2.2ZM2 6.2C2 6.08954 2.08954 6 2.2 6H2.8C2.91046 6 3 6.08954 3 6.2V6.8C3 6.91046 2.91046 7 2.8 7H2.2C2.08954 7 2 6.91046 2 6.8V6.2ZM9.2 6C9.08954 6 9 6.08954 9 6.2V6.8C9 6.91046 9.08954 7 9.2 7H9.8C9.91046 7 10 6.91046 10 6.8V6.2C10 6.08954 9.91046 6 9.8 6H9.2ZM2 8.2C2 8.08954 2.08954 8 2.2 8H2.8C2.91046 8 3 8.08954 3 8.2V8.8C3 8.91046 2.91046 9 2.8 9H2.2C2.08954 9 2 8.91046 2 8.8V8.2ZM9.2 8C9.08954 8 9 8.08954 9 8.2V8.8C9 8.91046 9.08954 9 9.2 9H9.8C9.91046 9 10 8.91046 10 8.8V8.2C10 8.08954 9.91046 8 9.8 8H9.2ZM5.03714 8.4069C5.15964 8.47003 5.29773 8.50209 5.43765 8.49989C5.73254 8.49989 6.09131 8.37892 6.52181 8.13555C7.18007 7.76295 7.5 7.39193 7.5 6.99993C7.5 6.60793 7.18007 6.23644 6.52181 5.86431C5.87291 5.49759 5.38756 5.40889 5.03714 5.59296C4.67564 5.78292 4.5 6.24312 4.5 6.99993C4.5 7.75675 4.67564 8.21694 5.03714 8.4069Z" fill="white" fill-opacity="0.7"/>
<path d="M8 2V5H11L8 2Z" fill="white"/>
</svg>
