<svg width="180" height="180" viewBox="0 0 180 180" fill="none" xmlns="http://www.w3.org/2000/svg">
<path d="M169.773 144.205C144.205 144.205 129.966 144.205 85.9091 144.205C41.8519 144.205 26.5909 144.205 10.2273 144.205C10.2273 124.435 35.7955 102.273 90 102.273C144.205 102.273 169.773 124.435 169.773 144.205Z" fill="url(#paint0_linear_5090_5385)"/>
<path d="M156.494 86.4545C156.757 82.7232 160.083 79.7727 164.148 79.7727C168.212 79.7727 171.538 82.7232 171.801 86.4545H173.864C176.123 86.4545 177.955 88.164 177.955 90.2727C177.955 92.3814 176.123 94.0909 173.864 94.0909H155.455C153.195 94.0909 151.364 92.3814 151.364 90.2727C151.364 88.164 153.195 86.4545 155.455 86.4545H156.494Z" fill="url(#paint1_linear_5090_5385)"/>
<path d="M10.4775 91.6365C10.7001 88.4382 13.5145 85.9092 16.9537 85.9092C20.3928 85.9092 23.2072 88.4382 23.4298 91.6365H25.1748C27.0866 91.6365 28.6364 93.1017 28.6364 94.9092C28.6364 96.7167 27.0866 98.1819 25.1748 98.1819H9.59789C7.68613 98.1819 6.13635 96.7167 6.13635 94.9092C6.13635 93.1017 7.68614 91.6365 9.59789 91.6365H10.4775Z" fill="url(#paint2_linear_5090_5385)"/>
<path opacity="0.2" d="M42.8789 101.194C42.9287 100.879 42.9546 100.556 42.9546 100.227C42.9546 96.8382 40.2072 94.0908 36.8182 94.0908C33.4292 94.0908 30.6819 96.8382 30.6819 100.227C30.6819 100.261 30.6821 100.295 30.6827 100.329C28.3482 100.803 26.5909 102.867 26.5909 105.341C26.5909 108.165 28.8804 110.454 31.7046 110.454C33.3774 110.454 34.8625 109.651 35.7955 108.409C36.7285 109.651 38.2136 110.454 39.8864 110.454C42.7106 110.454 45 108.165 45 105.341C45 103.634 44.1639 102.123 42.8789 101.194Z" fill="#F6D658"/>
<path opacity="0.8" d="M34.7727 103.295H35.7955V105.465L37.3277 103.933L38.0509 104.656L35.7955 106.911V119.659H34.7727V108.875L32.7273 107.144L33.3878 106.364L34.7727 107.535V103.295Z" fill="#F6D658"/>
<path opacity="0.2" d="M23.4395 112.387C23.4674 112.211 23.4819 112.03 23.4819 111.846C23.4819 109.948 21.9434 108.409 20.0455 108.409C18.1477 108.409 16.6092 109.948 16.6092 111.846L16.6096 111.903C15.3023 112.168 14.3182 113.324 14.3182 114.709C14.3182 116.291 15.6003 117.573 17.1819 117.573C18.1186 117.573 18.9503 117.123 19.4728 116.428C19.9953 117.123 20.827 117.573 21.7637 117.573C23.3453 117.573 24.6274 116.291 24.6274 114.709C24.6274 113.753 24.1591 112.907 23.4395 112.387Z" fill="#F6D658"/>
<path opacity="0.8" d="M18.9001 113.564H19.4728V114.779L20.3309 113.921L20.7358 114.326L19.4728 115.589V122.727H18.9001V116.688L17.7546 115.719L18.1245 115.282L18.9001 115.938V113.564Z" fill="#F6D658"/>
<path opacity="0.2" d="M153.333 101.194C153.383 100.879 153.409 100.556 153.409 100.227C153.409 96.8382 150.662 94.0908 147.273 94.0908C143.884 94.0908 141.136 96.8382 141.136 100.227C141.136 100.261 141.137 100.295 141.137 100.329C138.803 100.803 137.045 102.867 137.045 105.341C137.045 108.165 139.335 110.454 142.159 110.454C143.832 110.454 145.317 109.651 146.25 108.409C147.183 109.651 148.668 110.454 150.341 110.454C153.165 110.454 155.454 108.165 155.454 105.341C155.454 103.634 154.618 102.123 153.333 101.194Z" fill="#F6D658"/>
<path opacity="0.8" d="M145.227 103.295H146.25V105.465L147.782 103.933L148.505 104.656L146.25 106.911V119.659H145.227V108.875L143.182 107.144L143.842 106.364L145.227 107.535V103.295Z" fill="#F6D658"/>
<path d="M92.0791 49.0909C92.6053 41.0952 99.2575 34.7727 107.386 34.7727C115.515 34.7727 122.167 41.0952 122.694 49.0909H126.818C131.337 49.0909 135 52.754 135 57.2727C135 61.7914 131.337 65.4545 126.818 65.4545H90.0001C85.4814 65.4545 81.8182 61.7914 81.8182 57.2727C81.8182 52.754 85.4814 49.0909 90.0001 49.0909H92.0791Z" fill="url(#paint3_linear_5090_5385)"/>
<path d="M62.0085 55.7726C62.2514 52.0413 65.3216 49.0908 69.0734 49.0908C72.8252 49.0908 75.8954 52.0413 76.1383 55.7726H78.0419C80.1275 55.7726 81.8182 57.4821 81.8182 59.5908C81.8182 61.6995 80.1275 63.409 78.0419 63.409H61.0489C58.9634 63.409 57.2727 61.6995 57.2727 59.5908C57.2727 57.4821 58.9634 55.7726 61.0489 55.7726H62.0085Z" fill="url(#paint4_linear_5090_5385)"/>
<path opacity="0.2" d="M35.2334 73.962C36.479 75.7259 35.8959 77.8819 33.9311 78.7775C32.6856 77.0137 33.2686 74.8577 35.2334 73.962Z" fill="#F6D658"/>
<path opacity="0.2" d="M131.123 120.008C130.759 122.791 128.303 124.338 125.636 123.463C126 120.68 128.456 119.133 131.123 120.008Z" fill="#F6D658"/>
<path opacity="0.2" d="M44.8425 68.4031C46.8803 70.9733 46.1777 74.2923 43.2732 75.8164C41.2355 73.2462 41.938 69.9271 44.8425 68.4031Z" fill="#F6D658"/>
<path opacity="0.2" d="M135.88 82.1534C137.621 84.3499 137.021 87.1865 134.538 88.489C132.797 86.2924 133.397 83.4559 135.88 82.1534Z" fill="#F6D658"/>
<rect x="69.5455" y="86.9319" width="42.9545" height="7.1591" fill="#FFF4AB"/>
<path d="M74.6592 74.6592H105.341L112.5 86.9319H69.5455L74.6592 74.6592Z" fill="#FFE785"/>
<path d="M74.6591 74.6592L59.625 95.1137L68.5227 99.2046L74.6591 86.9319V74.6592Z" fill="url(#paint5_linear_5090_5385)"/>
<path d="M105.341 74.6592L120.375 95.1137L111.477 99.2046L105.341 86.9319V74.6592Z" fill="url(#paint6_linear_5090_5385)"/>
<path d="M59.3182 96.1365C59.3182 95.0068 60.234 94.0911 61.3637 94.0911H118.636C119.766 94.0911 120.682 95.0068 120.682 96.1365V116.591C120.682 117.721 119.766 118.637 118.636 118.637H61.3637C60.234 118.637 59.3182 117.721 59.3182 116.591V96.1365Z" fill="url(#paint7_linear_5090_5385)"/>
<path opacity="0.4" fill-rule="evenodd" clip-rule="evenodd" d="M108.434 77.8264C108.375 77.841 108.314 77.8574 108.251 77.8757L108.194 77.6791C108.26 77.6602 108.323 77.6431 108.384 77.6279L108.434 77.8264ZM107.886 77.9928C107.771 78.0335 107.652 78.0791 107.529 78.1298L107.451 77.9408C107.577 77.8887 107.7 77.8418 107.818 77.7999L107.886 77.9928ZM107.179 78.2851C107.066 78.3388 106.952 78.3965 106.838 78.4583L106.741 78.2783C106.858 78.2148 106.976 78.1555 107.092 78.1004L107.179 78.2851ZM106.506 78.6493C106.399 78.7154 106.292 78.7852 106.187 78.8587L106.069 78.6911C106.178 78.6152 106.288 78.5431 106.399 78.475L106.506 78.6493ZM105.881 79.0874C105.783 79.1668 105.686 79.2497 105.593 79.3363L105.454 79.1866C105.551 79.0965 105.651 79.0103 105.753 78.9279L105.881 79.0874ZM105.326 79.6061C105.241 79.6997 105.161 79.7968 105.085 79.8975L104.921 79.7745C105.001 79.6684 105.086 79.5664 105.175 79.4685L105.326 79.6061ZM104.873 80.2102C104.809 80.3175 104.75 80.4284 104.698 80.5429L104.512 80.4579C104.567 80.3361 104.63 80.2183 104.698 80.1047L104.873 80.2102ZM104.562 80.8932C104.525 81.0109 104.494 81.1322 104.471 81.257L104.27 81.2198C104.295 81.0865 104.328 80.957 104.367 80.8313L104.562 80.8932ZM104.426 81.6298C104.422 81.6917 104.42 81.7545 104.42 81.8181C104.42 81.8869 104.419 81.9552 104.417 82.023L104.213 82.0169C104.215 81.9512 104.216 81.8849 104.216 81.8181C104.216 81.7504 104.218 81.6836 104.222 81.6176L104.426 81.6298ZM104.393 82.4308C104.38 82.5686 104.364 82.7041 104.343 82.8371L104.141 82.8058C104.161 82.6771 104.177 82.5459 104.189 82.4124L104.393 82.4308ZM104.267 83.2391C104.237 83.3742 104.203 83.5064 104.164 83.6357L103.968 83.5776C104.005 83.4528 104.039 83.3251 104.068 83.1945L104.267 83.2391ZM98.7637 83.5718C98.9067 83.5966 99.0474 83.6614 99.1801 83.7569L99.0607 83.9229C98.9474 83.8414 98.835 83.7918 98.7288 83.7734L98.7637 83.5718ZM98.1095 83.7912C98.1682 83.7325 98.231 83.6848 98.2973 83.6483L98.3959 83.8274C98.3537 83.8507 98.3119 83.8811 98.271 83.9195C98.2526 83.9753 98.2352 84.0301 98.2188 84.0839L98.0231 84.0243C98.0423 83.9612 98.0629 83.8969 98.0848 83.8312L98.0924 83.8083L98.1095 83.7912ZM104.034 84.0243C103.985 84.1538 103.933 84.2799 103.876 84.4023L103.69 84.3165C103.745 84.1986 103.796 84.0772 103.843 83.9524L104.034 84.0243ZM99.4977 84.0605C99.584 84.1656 99.6653 84.2852 99.7395 84.4174L99.5612 84.5176C99.4923 84.3949 99.4177 84.2853 99.3396 84.1904L99.4977 84.0605ZM97.8406 84.8073C97.8594 84.682 97.8851 84.5499 97.9181 84.4105L98.1172 84.4577C98.0854 84.592 98.0608 84.7185 98.0429 84.8377L97.8406 84.8073ZM103.69 84.7684C103.622 84.8894 103.551 85.0062 103.476 85.1188L103.305 85.0052C103.378 84.8972 103.446 84.785 103.511 84.6686L103.69 84.7684ZM99.9219 84.8044C99.9718 84.9319 100.016 85.0673 100.053 85.2094L99.8548 85.2609C99.8199 85.1264 99.7783 84.9988 99.7314 84.879L99.9219 84.8044ZM97.8208 85.623C97.804 85.4969 97.7975 85.3603 97.8024 85.2126L98.0068 85.2193C98.0022 85.357 98.0084 85.4822 98.0236 85.596L97.8208 85.623ZM103.234 85.4509C103.148 85.5595 103.058 85.6632 102.965 85.7617L102.816 85.6213C102.905 85.5271 102.991 85.4278 103.074 85.3237L103.234 85.4509ZM100.137 85.6254C100.157 85.7616 100.171 85.9025 100.178 86.0475L99.9732 86.0568C99.9669 85.9187 99.9538 85.7847 99.9347 85.6553L100.137 85.6254ZM102.669 86.0483C102.565 86.1403 102.457 86.2265 102.347 86.3065L102.227 86.1412C102.332 86.065 102.434 85.9829 102.533 85.895L102.669 86.0483ZM98.1343 86.3974C98.0492 86.292 97.9775 86.17 97.9227 86.0293L98.1133 85.955C98.1606 86.0765 98.2218 86.1802 98.2934 86.269L98.1343 86.3974ZM102.002 86.5326C101.882 86.6029 101.759 86.6662 101.635 86.7222L101.551 86.5357C101.669 86.4827 101.785 86.4227 101.899 86.356L102.002 86.5326ZM100.144 86.8294C100.159 86.7083 100.17 86.5889 100.176 86.4715L99.9719 86.4611C99.9652 86.5923 99.9522 86.7262 99.9325 86.8625L100.03 86.8766L100.029 87.0333C100.098 87.034 100.165 87.034 100.227 87.034C100.297 87.034 100.366 87.0317 100.435 87.0272L100.422 86.8231C100.357 86.8273 100.292 86.8294 100.227 86.8294C100.2 86.8294 100.172 86.8294 100.144 86.8294ZM98.8262 86.8661C98.6948 86.8194 98.5676 86.7593 98.45 86.6819L98.5624 86.511C98.6641 86.578 98.7761 86.6312 98.8947 86.6734L98.8262 86.8661ZM101.249 86.8709C101.116 86.9134 100.982 86.9479 100.847 86.974L100.808 86.7732C100.935 86.7486 101.061 86.7162 101.186 86.6761L101.249 86.8709ZM99.6277 87.0185C99.4962 87.0091 99.3602 86.994 99.2245 86.9696L99.2607 86.7683C99.3876 86.7911 99.5161 86.8055 99.6423 86.8145L99.6277 87.0185ZM100.055 87.3079C100.024 87.4416 99.9854 87.5768 99.9404 87.7132L99.7462 87.649C99.7894 87.5182 99.826 87.3886 99.8564 87.2606L100.055 87.3079ZM99.7914 88.1085C99.7377 88.2351 99.6779 88.3623 99.6116 88.4899L99.4301 88.3956C99.4939 88.2727 99.5515 88.1503 99.6031 88.0286L99.7914 88.1085ZM99.4041 88.8555C99.3674 88.9149 99.3292 88.9744 99.2896 89.0339L99.1194 88.9204C99.1577 88.8629 99.1946 88.8055 99.23 88.7481L99.4041 88.8555Z" fill="#635901"/>
<path opacity="0.2" d="M110.232 75.0513L112.454 76.8423C112.591 76.9515 112.792 76.9052 112.863 76.7455L116.663 68.3266C116.751 68.127 116.567 67.9084 116.357 67.9649L105.486 70.7883C105.284 70.8405 105.224 71.0995 105.379 71.2392L107.199 72.802C107.284 72.8706 107.395 72.889 107.493 72.8395L115.446 68.9023L108.519 73.8201C108.471 73.8516 108.438 73.9001 108.423 73.9536L107.831 75.8782C107.758 76.1143 108.027 76.3115 108.234 76.171L109.93 75.0434C110.013 74.9771 110.141 74.981 110.232 75.0513Z" fill="#F6D658"/>
<defs>
<linearGradient id="paint0_linear_5090_5385" x1="90" y1="102.273" x2="90" y2="144.205" gradientUnits="userSpaceOnUse">
<stop stop-color="#F6D658" stop-opacity="0.1"/>
<stop offset="1" stop-color="#F6D658" stop-opacity="0"/>
</linearGradient>
<linearGradient id="paint1_linear_5090_5385" x1="164.659" y1="79.7727" x2="164.659" y2="94.0909" gradientUnits="userSpaceOnUse">
<stop stop-color="#F6D658" stop-opacity="0.2"/>
<stop offset="1" stop-color="#F6D658" stop-opacity="0.05"/>
</linearGradient>
<linearGradient id="paint2_linear_5090_5385" x1="17.3864" y1="85.9092" x2="17.3864" y2="98.1819" gradientUnits="userSpaceOnUse">
<stop stop-color="#F6D658" stop-opacity="0.3"/>
<stop offset="1" stop-color="#F6D658" stop-opacity="0.1"/>
</linearGradient>
<linearGradient id="paint3_linear_5090_5385" x1="108.409" y1="34.7727" x2="108.409" y2="65.4545" gradientUnits="userSpaceOnUse">
<stop stop-color="#F6D658" stop-opacity="0.3"/>
<stop offset="1" stop-color="#F6D658" stop-opacity="0.1"/>
</linearGradient>
<linearGradient id="paint4_linear_5090_5385" x1="69.5454" y1="49.0908" x2="69.5454" y2="63.409" gradientUnits="userSpaceOnUse">
<stop stop-color="#F6D658" stop-opacity="0.3"/>
<stop offset="1" stop-color="#F6D658" stop-opacity="0.1"/>
</linearGradient>
<linearGradient id="paint5_linear_5090_5385" x1="64.4318" y1="96.1365" x2="74.6591" y2="81.8183" gradientUnits="userSpaceOnUse">
<stop stop-color="#FFF8B6"/>
<stop offset="1" stop-color="#F6D658"/>
</linearGradient>
<linearGradient id="paint6_linear_5090_5385" x1="120.682" y1="100.227" x2="105.341" y2="81.8183" gradientUnits="userSpaceOnUse">
<stop stop-color="#F6D658"/>
<stop offset="1" stop-color="#FFF7AD"/>
</linearGradient>
<linearGradient id="paint7_linear_5090_5385" x1="90.0001" y1="94.0911" x2="90.0001" y2="118.637" gradientUnits="userSpaceOnUse">
<stop stop-color="#FFF8B6"/>
<stop offset="1" stop-color="#F6D658"/>
</linearGradient>
</defs>
</svg>
