<svg width="20" height="20" viewBox="0 0 20 20" fill="none" xmlns="http://www.w3.org/2000/svg">
<g id="icon/com_shoucang_1">
<path id="Subtract" fill-rule="evenodd" clip-rule="evenodd" d="M9.99998 3.72196C10.972 2.44384 12.4354 1.66675 14.0137 1.66675C16.8567 1.66675 19.1666 4.14119 19.1666 7.178C19.1666 8.98781 18.3409 10.2659 17.672 11.2884C15.7278 14.2537 10.8675 17.9551 10.6585 18.1085C10.4599 18.2618 10.2299 18.3334 9.99998 18.3334C9.77003 18.3334 9.54008 18.2618 9.34149 18.1085C9.13244 17.9551 4.26167 14.2639 2.32799 11.2884C1.65904 10.2659 0.833313 8.98781 0.833313 7.178C0.833313 4.14119 3.14327 1.66675 5.9863 1.66675C7.56459 1.66675 9.03837 2.44384 9.99998 3.72196ZM11.8518 13.5186C11.6565 13.7138 11.6565 14.0304 11.8518 14.2257C12.0471 14.4209 12.3636 14.4209 12.5589 14.2257L15.0589 11.7257C15.2542 11.5304 15.2542 11.2138 15.0589 11.0186C14.8636 10.8233 14.5471 10.8233 14.3518 11.0186L11.8518 13.5186Z" fill="white" fill-opacity="0.7"/>
</g>
</svg>
