<svg width="16" height="16" viewBox="0 0 16 16" fill="none" xmlns="http://www.w3.org/2000/svg">
<path fill-rule="evenodd" clip-rule="evenodd" d="M8 15C11.866 15 15 11.866 15 8C15 4.13401 11.866 1 8 1C4.13401 1 1 4.13401 1 8C1 11.866 4.13401 15 8 15ZM5.17157 10.8284C4.97631 10.6332 4.97631 10.3166 5.17157 10.1213L7.29289 8L5.17157 5.87868C4.97631 5.68342 4.97631 5.36683 5.17157 5.17157C5.36684 4.97631 5.68342 4.97631 5.87868 5.17157L8 7.29289L10.1213 5.17157C10.3166 4.97631 10.6332 4.97631 10.8284 5.17157C11.0237 5.36683 11.0237 5.68342 10.8284 5.87868L8.70711 8L10.8284 10.1213C11.0237 10.3166 11.0237 10.6332 10.8284 10.8284C10.6332 11.0237 10.3166 11.0237 10.1213 10.8284L8 8.70711L5.87868 10.8284C5.68342 11.0237 5.36684 11.0237 5.17157 10.8284Z" fill="white" fill-opacity="0.8"/>
</svg>
