<svg width="20" height="20" viewBox="0 0 20 20" fill="none" xmlns="http://www.w3.org/2000/svg">
<path fill-rule="evenodd" clip-rule="evenodd" d="M12.9404 7.50008L15.8112 7.50008C18.1827 7.50008 18.4323 8.69056 18.3075 10.0001L17.309 15.4763C17.0593 17.1429 16.5601 18.3334 14.6878 18.3334H2.91482C2.16593 18.3334 1.66667 17.8572 1.66667 17.262L1.66667 8.57151C1.66667 7.97627 2.16593 7.50008 2.91482 7.50008H4.57779C4.70261 7.50008 6.57484 7.50008 7.0741 7.26199C7.44854 7.02389 7.9478 6.30961 8.57188 4.88103L9.32077 3.09532C9.69522 2.26199 10.3193 1.66675 11.3178 1.66675L11.5674 1.66675C12.8156 1.7858 13.6893 2.85722 13.5645 3.92865C13.3149 6.30961 12.9404 7.50008 12.9404 7.50008ZM5.16667 9.66675C5.16667 9.39061 4.94281 9.16675 4.66667 9.16675C4.39052 9.16675 4.16667 9.39061 4.16667 9.66675L4.16667 16.1667C4.16667 16.4429 4.39052 16.6667 4.66667 16.6667C4.94281 16.6667 5.16667 16.4429 5.16667 16.1667L5.16667 9.66675Z" fill="url(#paint0_linear_5086_4580)"/>
<path fill-rule="evenodd" clip-rule="evenodd" d="M12.9404 7.50008L15.8112 7.50008C18.1827 7.50008 18.4323 8.69056 18.3075 10.0001L17.309 15.4763C17.0593 17.1429 16.5601 18.3334 14.6878 18.3334H2.91482C2.16593 18.3334 1.66667 17.8572 1.66667 17.262L1.66667 8.57151C1.66667 7.97627 2.16593 7.50008 2.91482 7.50008H4.57779C4.70261 7.50008 6.57484 7.50008 7.0741 7.26199C7.44854 7.02389 7.9478 6.30961 8.57188 4.88103L9.32077 3.09532C9.69522 2.26199 10.3193 1.66675 11.3178 1.66675L11.5674 1.66675C12.8156 1.7858 13.6893 2.85722 13.5645 3.92865C13.3149 6.30961 12.9404 7.50008 12.9404 7.50008ZM5.16667 9.66675C5.16667 9.39061 4.94281 9.16675 4.66667 9.16675C4.39052 9.16675 4.16667 9.39061 4.16667 9.66675L4.16667 16.1667C4.16667 16.4429 4.39052 16.6667 4.66667 16.6667C4.94281 16.6667 5.16667 16.4429 5.16667 16.1667L5.16667 9.66675Z" fill="#F6D658"/>
<defs>
<linearGradient id="paint0_linear_5086_4580" x1="1.11111" y1="2.2223" x2="17.7778" y2="18.889" gradientUnits="userSpaceOnUse">
<stop stop-color="#FFE501"/>
<stop offset="1" stop-color="#DCC500"/>
</linearGradient>
</defs>
</svg>
