<svg width="20" height="20" viewBox="0 0 20 20" fill="none" xmlns="http://www.w3.org/2000/svg">
<g id="icon/com_fenxiang">
<path id="Subtract" fill-rule="evenodd" clip-rule="evenodd" d="M12.6253 1.94685C12.081 1.36972 11.0908 1.74401 11.0908 2.52693V6.56635C4.25058 6.56635 1.28213 11.9132 0.0440747 15.6381C-0.242067 16.499 0.931987 17.0154 1.63492 16.4223C5.90005 12.8232 11.0908 13.4339 11.0908 13.4339V17.4732C11.0908 18.2562 12.081 18.6304 12.6253 18.0533L19.7678 10.5802C20.0774 10.252 20.0774 9.74822 19.7678 9.42001L12.6253 1.94685ZM15.2273 7.14653C15.0321 6.95127 14.7155 6.95127 14.5202 7.14653C14.325 7.34179 14.325 7.65837 14.5202 7.85363L16.3131 9.64653C16.5084 9.84179 16.825 9.84179 17.0202 9.64653C17.2155 9.45127 17.2155 9.13468 17.0202 8.93942L15.2273 7.14653Z" fill="#606980"/>
</g>
</svg>
