<svg width="16" height="16" viewBox="0 0 16 16" fill="none" xmlns="http://www.w3.org/2000/svg">
<path fill-rule="evenodd" clip-rule="evenodd" d="M0 7.99987C0 8.19705 3.582 14 7.9993 14C11.9149 14 15.11 9.29521 15.8418 8.21763C15.8582 8.19344 15.8734 8.17108 15.8873 8.15064C15.9586 8.04606 15.9737 7.94513 15.9075 7.83728C15.3181 6.87734 11.9861 2 7.9993 2C3.582 2 0 7.77864 0 7.99987ZM8 11.5C9.933 11.5 11.5 9.933 11.5 8C11.5 6.067 9.933 4.5 8 4.5C6.067 4.5 4.5 6.067 4.5 8C4.5 9.933 6.067 11.5 8 11.5Z" fill="white" fill-opacity="0.7"/>
<path d="M7.73765 9.49989C7.59773 9.50209 7.45964 9.47003 7.33714 9.4069C6.97564 9.21694 6.8 8.75675 6.8 7.99993C6.8 7.24312 6.97564 6.78292 7.33714 6.59296C7.68756 6.40889 8.17291 6.49759 8.82181 6.86431C9.48007 7.23644 9.8 7.60793 9.8 7.99993C9.8 8.39193 9.48007 8.76295 8.82181 9.13555C8.39131 9.37892 8.03254 9.49989 7.73765 9.49989Z" fill="white" fill-opacity="0.7"/>
</svg>
