<svg width="16" height="16" viewBox="0 0 16 16" fill="none" xmlns="http://www.w3.org/2000/svg">
<path fill-rule="evenodd" clip-rule="evenodd" d="M2.91669 7.49998C2.91669 4.78458 5.11795 2.58331 7.83335 2.58331C10.5488 2.58331 12.75 4.78458 12.75 7.49998C12.75 10.2154 10.5488 12.4166 7.83335 12.4166C5.11795 12.4166 2.91669 10.2154 2.91669 7.49998ZM7.83335 1.08331C4.28953 1.08331 1.41669 3.95615 1.41669 7.49998C1.41669 11.0438 4.28953 13.9166 7.83335 13.9166C9.1638 13.9166 10.3997 13.5117 11.4245 12.8184L13.1687 14.5627C13.4616 14.8556 13.9365 14.8556 14.2294 14.5627C14.5223 14.2698 14.5223 13.7949 14.2294 13.502L12.5634 11.836C13.6108 10.694 14.25 9.17167 14.25 7.49998C14.25 3.95615 11.3772 1.08331 7.83335 1.08331Z" fill="white" fill-opacity="0.8"/>
</svg>
