<svg width="24" height="24" viewBox="0 0 24 24" fill="none" xmlns="http://www.w3.org/2000/svg">
<path fill-rule="evenodd" clip-rule="evenodd" d="M4 11.25C4 6.96979 7.46979 3.5 11.75 3.5C16.0302 3.5 19.5 6.96979 19.5 11.25C19.5 15.5302 16.0302 19 11.75 19C7.46979 19 4 15.5302 4 11.25ZM11.75 2C6.64137 2 2.5 6.14137 2.5 11.25C2.5 16.3586 6.64137 20.5 11.75 20.5C13.7785 20.5 15.6545 19.8471 17.1792 18.7399L20.0182 21.5789C20.3111 21.8718 20.786 21.8718 21.0789 21.5789C21.3718 21.286 21.3718 20.8111 21.0789 20.5182L18.321 17.7603C19.9771 16.0889 21 13.7889 21 11.25C21 6.14137 16.8586 2 11.75 2Z" fill="#FD46F6"/>
</svg>
