<svg width="16" height="17" viewBox="0 0 16 17" fill="none" xmlns="http://www.w3.org/2000/svg">
<g id="icon/com_bofangliang_big">
<path id="Subtract" fill-rule="evenodd" clip-rule="evenodd" d="M0 8.49987C0 8.69705 3.582 14.5 7.9993 14.5C11.9149 14.5 15.11 9.79521 15.8418 8.71763C15.8582 8.69344 15.8734 8.67108 15.8873 8.65064C15.9586 8.54606 15.9737 8.44513 15.9075 8.33728C15.3181 7.37734 11.9861 2.5 7.9993 2.5C3.582 2.5 0 8.27864 0 8.49987ZM8 12C9.933 12 11.5 10.433 11.5 8.5C11.5 6.567 9.933 5 8 5C6.067 5 4.5 6.567 4.5 8.5C4.5 10.433 6.067 12 8 12Z" fill="#606980"/>
<path id="Vector" d="M7.73745 9.99989C7.59754 10.0021 7.45944 9.97003 7.33694 9.9069C6.97544 9.71694 6.7998 9.25675 6.7998 8.49993C6.7998 7.74312 6.97544 7.28292 7.33694 7.09296C7.68737 6.90889 8.17272 6.99759 8.82161 7.36431C9.47987 7.73644 9.7998 8.10793 9.7998 8.49993C9.7998 8.89193 9.47987 9.26295 8.82161 9.63555C8.39112 9.87892 8.03234 9.99989 7.73745 9.99989Z" fill="#606980"/>
</g>
</svg>
