<svg width="16" height="16" viewBox="0 0 16 16" fill="none" xmlns="http://www.w3.org/2000/svg">
<g clip-path="url(#clip0_4499_14895)">
<path d="M15.3333 8.02715C15.3333 3.96154 12.0505 0.666504 8 0.666504C3.94948 0.666504 0.666672 3.96154 0.666672 8.02715C0.666672 11.4775 3.03568 14.3757 6.22969 15.1722V10.2756H4.71719V8.02715H6.22969V7.05819C6.22969 4.55385 7.35834 3.39224 9.81042 3.39224C10.2745 3.39224 11.0766 3.48425 11.406 3.57626V5.61194C11.2341 5.59469 10.9333 5.58319 10.5581 5.58319C9.35495 5.58319 8.89089 6.04035 8.89089 7.22783V8.02715H11.2857L10.8732 10.2756H8.88803V15.3332C12.5203 14.8933 15.3333 11.7909 15.3333 8.02715Z" fill="white" fill-opacity="0.7"/>
</g>
<defs>
<clipPath id="clip0_4499_14895">
<rect width="16" height="16" fill="white"/>
</clipPath>
</defs>
</svg>
