<svg width="24" height="24" viewBox="0 0 24 24" fill="none" xmlns="http://www.w3.org/2000/svg">
<path fill-rule="evenodd" clip-rule="evenodd" d="M6.70711 5.29289C6.31658 4.90237 5.68342 4.90237 5.29289 5.29289C4.90237 5.68342 4.90237 6.31658 5.29289 6.70711L10.9498 12.364L5.29291 18.0208C4.90238 18.4113 4.90238 19.0445 5.29291 19.435C5.68343 19.8256 6.3166 19.8256 6.70712 19.435L12.364 13.7782L18.0208 19.435C18.4113 19.8256 19.0445 19.8256 19.435 19.435C19.8256 19.0445 19.8256 18.4113 19.435 18.0208L13.7782 12.364L19.435 6.70711C19.8256 6.31658 19.8256 5.68342 19.435 5.29289C19.0445 4.90237 18.4114 4.90237 18.0208 5.29289L12.364 10.9498L6.70711 5.29289Z" fill="#606980"/>
</svg>
