<svg width="16" height="16" viewBox="0 0 16 16" fill="none" xmlns="http://www.w3.org/2000/svg">
<path fill-rule="evenodd" clip-rule="evenodd" d="M3.85451 2.75753C3.55157 2.4546 3.06042 2.4546 2.75749 2.75753C2.45455 3.06047 2.45455 3.55162 2.75748 3.85455L7.14557 8.24264L2.75747 12.6307C2.45454 12.9337 2.45454 13.4248 2.75747 13.7278C3.06041 14.0307 3.55156 14.0307 3.85449 13.7278L8.24259 9.33966L12.6307 13.7277C12.9336 14.0307 13.4248 14.0307 13.7277 13.7277C14.0306 13.4248 14.0306 12.9337 13.7277 12.6307L9.33961 8.24264L13.7277 3.85458C14.0306 3.55165 14.0306 3.06049 13.7277 2.75756C13.4247 2.45463 12.9336 2.45463 12.6307 2.75756L8.24259 7.14562L3.85451 2.75753Z" fill="white" fill-opacity="0.8"/>
</svg>
