<svg width="24" height="24" viewBox="0 0 24 24" fill="none" xmlns="http://www.w3.org/2000/svg">
<g id="icon/com_xf_guanbi">
<circle id="Ellipse 351" cx="12" cy="12" r="10.5" fill="black" fill-opacity="0.8"/>
<path id="Union" d="M7.72153 15.2089C7.42616 15.5042 7.42616 15.9831 7.72153 16.2785C8.01689 16.5738 8.49578 16.5738 8.79114 16.2785L12 13.0696L15.2089 16.2785C15.5042 16.5738 15.9831 16.5738 16.2785 16.2785C16.5738 15.9831 16.5738 15.5042 16.2785 15.2089L13.0696 12L16.2785 8.79114C16.5738 8.49578 16.5738 8.01689 16.2785 7.72153C15.9831 7.42616 15.5042 7.42616 15.2089 7.72153L12 10.9304L8.79114 7.72153C8.49578 7.42616 8.01689 7.42616 7.72153 7.72153C7.42616 8.01689 7.42616 8.49578 7.72153 8.79114L10.9304 12L7.72153 15.2089Z" fill="white"/>
</g>
</svg>
