<svg width="24" height="24" viewBox="0 0 24 24" fill="none" xmlns="http://www.w3.org/2000/svg">
<path fill-rule="evenodd" clip-rule="evenodd" d="M5.78182 4.13628C5.32742 3.68188 4.59069 3.68188 4.13629 4.13628C3.68189 4.59068 3.68189 5.32741 4.13629 5.78181L10.7184 12.3639L4.13627 18.9461C3.68187 19.4005 3.68187 20.1372 4.13627 20.5916C4.59067 21.046 5.3274 21.046 5.7818 20.5916L12.364 14.0095L18.9461 20.5916C19.4005 21.046 20.1372 21.046 20.5916 20.5916C21.046 20.1372 21.046 19.4005 20.5916 18.9461L14.0095 12.3639L20.5916 5.78185C21.046 5.32745 21.046 4.59072 20.5916 4.13632C20.1372 3.68192 19.4004 3.68192 18.946 4.13632L12.364 10.7184L5.78182 4.13628Z" fill="#FF5502"/>
</svg>
