<svg width="24" height="24" viewBox="0 0 24 24" fill="none" xmlns="http://www.w3.org/2000/svg">
<g clip-path="url(#clip0_2582_3248)">
<path fill-rule="evenodd" clip-rule="evenodd" d="M12 24C18.6274 24 24 18.6274 24 12C24 5.37258 18.6274 0 12 0C5.37258 0 0 5.37258 0 12C0 18.6274 5.37258 24 12 24ZM12.0002 22C9.2901 22 6.82686 20.9211 5 19.161C5.74081 18.4761 6.84206 17.907 8.16759 17.5352C8.73202 17.3058 9.00337 17.1535 9.20713 16.9454C9.24956 16.9021 9.28828 16.8646 9.32343 16.8306L9.32358 16.8305C9.46822 16.6905 9.55237 16.609 9.58587 16.4256C9.6141 16.2682 9.6067 16.0212 9.58449 15.2857C9.19369 14.8336 8.85337 14.1601 8.52645 13.1887C8.19073 13.0095 7.89115 12.5697 7.80133 12.0868C7.70595 11.568 7.76015 11.1319 7.93885 10.8713C7.52349 8.37848 7.79206 6.52692 8.73989 5.3668C9.47938 4.46113 10.611 4.0019 12.1034 4.0019L12.2368 4C13.4796 4 13.7653 4.26628 14.0338 4.64037L14.0344 4.64124L14.0344 4.64125C14.0865 4.71368 14.1281 4.77159 14.1912 4.82433C14.8784 4.82531 15.4484 5.10668 15.8411 5.63779C16.5861 6.64565 16.6764 8.57473 16.0911 10.834C16.2981 11.0922 16.3555 11.5585 16.2351 12.1142C16.1217 12.6292 15.7651 13.0913 15.4063 13.2313C15.141 14.1209 14.871 14.7953 14.4445 15.3023V16.3443C14.4789 16.608 14.5602 16.6747 14.6972 16.7869C14.7466 16.8274 14.8034 16.8739 14.8678 16.9378L15.0293 17.1019C15.1812 17.2259 15.3155 17.2916 15.917 17.5626C17.1848 17.9201 18.2669 18.4831 19 19.1613C17.1732 20.9212 14.7101 22 12.0002 22Z" fill="white" fill-opacity="0.8"/>
</g>
<defs>
<clipPath id="clip0_2582_3248">
<rect width="24" height="24" fill="white"/>
</clipPath>
</defs>
</svg>
