<svg width="24" height="24" viewBox="0 0 24 24" fill="none" xmlns="http://www.w3.org/2000/svg">
<path fill-rule="evenodd" clip-rule="evenodd" d="M5.5 1.5C3.29086 1.5 1.5 3.29086 1.5 5.5V18.5C1.5 20.7091 3.29086 22.5 5.5 22.5H18.5C20.7091 22.5 22.5 20.7091 22.5 18.5V7.30641C22.4823 7.32398 22.4644 7.34141 22.4462 7.3587C22.1234 7.66644 21.4329 8.3127 20.7652 8.93749L20.7144 8.985C20.07 9.58807 19.4138 10.2023 19.1066 10.495L19.0927 10.5081C19.0661 10.5342 19.0359 10.5633 18.9995 10.597L18.8573 10.7326H18.8549C17.5704 11.9376 17.1355 12.3368 16.7078 12.7294C16.2726 13.129 15.8447 13.5217 14.5363 14.7501C14.3179 14.9513 14.0826 15.0818 13.8107 15.1544C13.0049 15.3641 12.1992 15.5743 11.3937 15.7848L11.3924 15.7851C10.5769 15.998 9.76138 16.2109 8.946 16.4229C8.81495 16.4732 8.6748 16.4994 8.53321 16.5C7.97591 16.5 7.5347 16.091 7.50713 15.5486L7.5 15.409L7.53797 15.2737C7.56521 15.1764 7.59257 15.0827 7.61982 14.9894L7.62333 14.9773L7.84484 14.2143L7.88008 14.0929C8.21368 12.9429 8.54749 11.7922 8.87781 10.6415C8.97236 10.3208 9.13668 10.0559 9.38165 9.82601C10.3204 8.94767 10.7766 8.5438 11.2272 8.14485C11.6874 7.73737 12.1418 7.33503 13.0988 6.43753L13.8314 5.69381C13.8554 5.67143 13.877 5.65121 13.8965 5.63349C14.2026 5.34813 14.8045 4.78196 15.4255 4.1975C15.4874 4.13935 15.5494 4.08102 15.6113 4.02278C16.2656 3.40744 16.9102 2.80113 17.2298 2.50443C17.7769 1.99585 18.4323 1.67273 19.1511 1.55272C18.9392 1.51804 18.7217 1.5 18.5 1.5H5.5Z" fill="#606980"/>
<path fill-rule="evenodd" clip-rule="evenodd" d="M20.0501 3.8997C20.6057 4.40135 21.1599 4.9044 21.7126 5.40885C21.9012 5.23143 22.0905 5.05505 22.2798 4.87866L22.2964 4.86317C22.5368 4.6392 22.7772 4.41518 23.0159 4.18919C23.3215 3.89987 23.4757 3.5478 23.5 3.08271C23.4952 3.0455 23.4889 2.99525 23.4841 2.94362C23.411 2.1236 22.6795 1.50302 21.778 1.5C21.3269 1.5 20.9291 1.65601 20.5957 1.96388C20.3369 2.20256 20.0797 2.44288 19.8225 2.68316L19.8014 2.70283L19.7488 2.75188C19.5896 2.90048 19.4301 3.04934 19.2684 3.19961C19.5306 3.43139 19.7912 3.66476 20.0501 3.8997ZM9.64339 14.009L9.6063 14.1359L9.5 14.5L10.9321 14.1288C11.5476 13.9692 12.163 13.8097 12.7762 13.6513C12.7997 13.6451 12.8197 13.6354 12.8502 13.6076C13.8879 12.64 15.3795 11.2557 16.8522 9.88891C18.2067 8.6319 19.5452 7.38969 20.5 6.5L18.0698 4.28109L14.8501 7.25885C13.3928 8.617 11.9346 9.97429 10.4754 11.3307C10.424 11.3787 10.3962 11.4233 10.3772 11.4877C10.1342 12.3283 9.88872 13.1689 9.64339 14.009Z" fill="#606980"/>
</svg>
