<svg width="24" height="24" viewBox="0 0 24 24" fill="none" xmlns="http://www.w3.org/2000/svg">
<g clip-path="url(#clip0_2582_1850)">
<circle cx="12" cy="12" r="12" fill="url(#paint0_linear_2582_1850)"/>
<path d="M5 19.161C6.82686 20.9211 9.2901 22 12.0002 22C14.7101 22 17.1732 20.9212 19 19.1613C18.2669 18.4831 17.1848 17.9201 15.917 17.5626C15.3155 17.2916 15.1812 17.2259 15.0293 17.1019L14.8678 16.9378C14.8034 16.8739 14.7466 16.8274 14.6972 16.7869C14.5602 16.6747 14.4789 16.608 14.4445 16.3443V15.3023C14.871 14.7953 15.141 14.1209 15.4063 13.2313C15.7651 13.0913 16.1217 12.6292 16.2351 12.1142C16.3555 11.5585 16.2981 11.0922 16.0911 10.834C16.6764 8.57473 16.5861 6.64565 15.8411 5.63779C15.4484 5.10668 14.8784 4.82531 14.1912 4.82433C14.128 4.77158 14.0865 4.71367 14.0344 4.64124L14.0338 4.64037C13.7653 4.26628 13.4796 4 12.2368 4L12.1034 4.0019C10.611 4.0019 9.47938 4.46113 8.73989 5.3668C7.79206 6.52692 7.52349 8.37848 7.93885 10.8713C7.76015 11.1319 7.70595 11.568 7.80133 12.0868C7.89115 12.5697 8.19073 13.0095 8.52645 13.1887C8.85337 14.1601 9.19369 14.8336 9.58449 15.2857C9.6067 16.0212 9.6141 16.2682 9.58587 16.4256C9.55237 16.609 9.46822 16.6905 9.32358 16.8305C9.28839 16.8645 9.24962 16.9021 9.20713 16.9454C9.00337 17.1535 8.73202 17.3058 8.16759 17.5352C6.84206 17.907 5.74081 18.4761 5 19.161Z" fill="url(#paint1_linear_2582_1850)"/>
</g>
<defs>
<linearGradient id="paint0_linear_2582_1850" x1="12" y1="0" x2="12" y2="24" gradientUnits="userSpaceOnUse">
<stop stop-color="#FFC4A7"/>
<stop offset="1" stop-color="#FF5E0F"/>
</linearGradient>
<linearGradient id="paint1_linear_2582_1850" x1="12" y1="4" x2="12" y2="22" gradientUnits="userSpaceOnUse">
<stop stop-color="white" stop-opacity="0.9"/>
<stop offset="1" stop-color="white" stop-opacity="0.7"/>
</linearGradient>
<clipPath id="clip0_2582_1850">
<rect width="24" height="24" fill="white"/>
</clipPath>
</defs>
</svg>
