<svg width="16" height="16" viewBox="0 0 16 16" fill="none" xmlns="http://www.w3.org/2000/svg">
<path d="M7.11904 6.68171C6.94571 6.79759 6.79689 6.94648 6.6811 7.11988C6.5653 7.29328 6.48479 7.48778 6.44416 7.69229C6.36212 8.10532 6.4475 8.53402 6.68154 8.88409C6.91558 9.23416 7.2791 9.47692 7.69212 9.55897C8.10515 9.64102 8.53385 9.55563 8.88392 9.32159C9.23399 9.08755 9.47676 8.72404 9.5588 8.31101C9.64085 7.89798 9.55546 7.46928 9.32142 7.11921C9.08739 6.76914 8.72387 6.52638 8.31084 6.44433C7.89782 6.36229 7.46911 6.44767 7.11904 6.68171ZM11.3542 4.646C11.1994 4.49123 11.0119 4.36921 10.8065 4.28885C10.2679 4.07754 9.09226 4.08647 8.33333 4.0954C8.2113 4.0954 8.09821 4.09838 8 4.09838C7.90178 4.09838 7.78571 4.09838 7.66071 4.0954C6.90178 4.08647 5.73214 4.07457 5.19345 4.28885C4.98809 4.36921 4.80357 4.49123 4.64583 4.646C4.48809 4.80076 4.36904 4.98826 4.28869 5.19362C4.07738 5.73231 4.08928 6.91088 4.09523 7.66981C4.09523 7.79183 4.09821 7.90492 4.09821 8.00016C4.09821 8.0954 4.09821 8.2085 4.09523 8.33052C4.08928 9.08945 4.07738 10.268 4.28869 10.8067C4.36904 11.0121 4.49107 11.1966 4.64583 11.3543C4.80059 11.5121 4.98809 11.6311 5.19345 11.7115C5.73214 11.9228 6.90773 11.9139 7.66666 11.9049C7.78869 11.9049 7.90178 11.9019 8 11.9019C8.09821 11.9019 8.21428 11.9019 8.33928 11.9049C9.09821 11.9139 10.2679 11.9258 10.8065 11.7115C11.0119 11.6311 11.1964 11.5091 11.3542 11.3543C11.5119 11.1996 11.6309 11.0121 11.7113 10.8067C11.9256 10.271 11.9137 9.09838 11.9048 8.33647C11.9048 8.21147 11.9018 8.0954 11.9018 7.99719C11.9018 7.89897 11.9018 7.78588 11.9048 7.6579C11.9137 6.89897 11.9256 5.72635 11.7113 5.18766C11.6309 4.98231 11.5089 4.79778 11.3542 4.64004V4.646ZM9.35714 5.9704C9.89546 6.33034 10.2688 6.88938 10.3949 7.52455C10.521 8.15972 10.3897 8.81898 10.0298 9.35731C9.85153 9.62386 9.62256 9.8527 9.3559 10.0308C9.08923 10.2088 8.79011 10.3326 8.47561 10.3951C7.84044 10.5212 7.18118 10.3899 6.64285 10.0299C6.10453 9.67038 5.73108 9.11172 5.60466 8.47683C5.47824 7.84194 5.6092 7.18283 5.96875 6.64451C6.32829 6.10618 6.88695 5.73273 7.52184 5.60631C8.15673 5.47989 8.81584 5.61086 9.35416 5.9704H9.35714ZM10.2262 5.93171C10.1339 5.86921 10.0595 5.77992 10.0149 5.67576C9.97023 5.57159 9.96131 5.4585 9.98214 5.3454C10.003 5.23231 10.0595 5.13409 10.1369 5.05373C10.2143 4.97338 10.3184 4.91981 10.4286 4.89897C10.5387 4.87814 10.6548 4.88707 10.7589 4.93171C10.8631 4.97635 10.9524 5.04778 11.0149 5.14004C11.0774 5.23231 11.1101 5.34242 11.1101 5.45552C11.1101 5.52992 11.0952 5.60433 11.0684 5.67278C11.0417 5.74123 10.997 5.80373 10.9464 5.85731C10.8958 5.91088 10.8304 5.95254 10.7619 5.98231C10.6934 6.01207 10.619 6.02695 10.5446 6.02695C10.4315 6.02695 10.3214 5.99421 10.2292 5.93171H10.2262ZM14.6667 3.23826C14.6667 2.18766 13.8125 1.3335 12.7619 1.3335H3.23809C2.18749 1.3335 1.33333 2.18766 1.33333 3.23826V12.7621C1.33333 13.8127 2.18749 14.6668 3.23809 14.6668H12.7619C13.8125 14.6668 14.6667 13.8127 14.6667 12.7621V3.23826ZM11.9583 11.9585C11.4018 12.515 10.7262 12.6906 9.96428 12.7293C9.17857 12.774 6.82142 12.774 6.03571 12.7293C5.2738 12.6906 4.59821 12.515 4.04166 11.9585C3.48511 11.4019 3.30952 10.7264 3.2738 9.96445C3.22916 9.17873 3.22916 6.82159 3.2738 6.03588C3.31249 5.27397 3.48511 4.59838 4.04166 4.04183C4.59821 3.48528 5.27678 3.30969 6.03571 3.27397C6.82142 3.22933 9.17857 3.22933 9.96428 3.27397C10.7262 3.31266 11.4018 3.48528 11.9583 4.04183C12.5149 4.59838 12.6905 5.27397 12.7262 6.03588C12.7708 6.81862 12.7708 9.17278 12.7262 9.96147C12.6875 10.7234 12.5149 11.399 11.9583 11.9555V11.9585Z" fill="white" fill-opacity="0.7"/>
</svg>
