<svg width="24" height="24" viewBox="0 0 24 24" fill="none" xmlns="http://www.w3.org/2000/svg">
<rect width="24" height="24" rx="4" fill="#331608" fill-opacity="0.7"/>
<path fill-rule="evenodd" clip-rule="evenodd" d="M14.3523 9.99992H16.6489C18.546 9.99992 18.7457 10.9523 18.6459 11.9999L17.8471 16.3809C17.6474 17.7142 17.248 18.6666 15.7502 18.6666L6.33177 18.6666C5.73266 18.6666 5.33325 18.2856 5.33325 17.8094V10.8571C5.33325 10.3809 5.73266 9.99992 6.33177 9.99992H7.66215C7.762 9.99992 9.25979 9.99992 9.6592 9.80944C9.95875 9.61897 10.3582 9.04754 10.8574 7.90468L11.4565 6.47611C11.7561 5.80944 12.2554 5.33325 13.0542 5.33325H13.2539C14.2524 5.42849 14.9514 6.28563 14.8515 7.14278C14.6518 9.04754 14.3523 9.99992 14.3523 9.99992ZM8.33325 11.8333C8.33325 11.5571 8.10939 11.3333 7.83325 11.3333C7.55711 11.3333 7.33325 11.5571 7.33325 11.8333L7.33325 16.8333C7.33325 17.1094 7.55711 17.3333 7.83325 17.3333C8.1094 17.3333 8.33325 17.1094 8.33325 16.8333L8.33325 11.8333Z" fill="url(#paint0_linear_2785_892)"/>
<defs>
<linearGradient id="paint0_linear_2785_892" x1="5.33325" y1="5.33325" x2="18.6666" y2="18.6666" gradientUnits="userSpaceOnUse">
<stop stop-color="#FFAF88"/>
<stop offset="1" stop-color="#F6D658"/>
</linearGradient>
</defs>
</svg>
