<svg width="24" height="24" viewBox="0 0 24 24" fill="none" xmlns="http://www.w3.org/2000/svg">
<path d="M17 10L17 8C17 5.23858 14.7614 3 12 3V3C9.23858 3 7 5.23858 7 8L7 10" stroke="#606980" stroke-width="1.5"/>
<path fill-rule="evenodd" clip-rule="evenodd" d="M4 10C3.44772 10 3 10.4477 3 11V13C3 17.9706 7.02944 22 12 22C16.9706 22 21 17.9706 21 13V11C21 10.4477 20.5523 10 20 10H4ZM12 17C13.1046 17 14 16.1046 14 15C14 13.8954 13.1046 13 12 13C10.8954 13 10 13.8954 10 15C10 16.1046 10.8954 17 12 17Z" fill="#606980"/>
</svg>
