<svg width="24" height="24" viewBox="0 0 24 24" fill="none" xmlns="http://www.w3.org/2000/svg">
<path fill-rule="evenodd" clip-rule="evenodd" d="M4.70668 5.23771C4.2867 5.36657 4 5.75443 4 6.19373V13C4 17.4183 7.58172 21 12 21C16.4183 21 20 17.4183 20 13V6.19373C20 5.75443 19.7133 5.36657 19.2933 5.23771L12.5866 3.17998C12.2043 3.06269 11.7957 3.06269 11.4134 3.17998L4.70668 5.23771ZM15.2843 9.21966C15.5771 8.92677 16.052 8.92677 16.3449 9.21966C16.6378 9.51255 16.6378 9.98743 16.3449 10.2803L11.8075 14.8177C11.7912 14.8377 11.7738 14.8571 11.7552 14.8757C11.6321 14.9988 11.4769 15.0701 11.3165 15.0898C11.0933 15.1191 10.8595 15.048 10.6881 14.8765C10.6669 14.8553 10.6472 14.8332 10.6291 14.8103L8.21967 12.4008C7.92678 12.1079 7.92678 11.633 8.21967 11.3402C8.51256 11.0473 8.98744 11.0473 9.28033 11.3402L11.222 13.2819L15.2843 9.21966Z" fill="#606980"/>
</svg>
