<svg width="24" height="24" viewBox="0 0 24 24" fill="none" xmlns="http://www.w3.org/2000/svg">
<path fill-rule="evenodd" clip-rule="evenodd" d="M15.3583 12.856C16.661 11.8502 17.5 10.2731 17.5 8.5C17.5 5.46243 15.0376 3 12 3C8.96243 3 6.5 5.46243 6.5 8.5C6.5 10.2731 7.33901 11.8502 8.64166 12.856C8.34997 13.0144 8.06627 13.1949 7.79277 13.3974L4.08748 16.1404C2.041 17.6555 3.07514 21 5.59006 21H18.4099C20.9249 21 21.959 17.6555 19.9125 16.1404L16.2072 13.3974C15.9337 13.1949 15.65 13.0144 15.3583 12.856ZM14 18C14 17.4477 14.4477 17 15 17H17C17.5523 17 18 17.4477 18 18C18 18.5523 17.5523 19 17 19H15C14.4477 19 14 18.5523 14 18Z" fill="white"/>
</svg>
