<svg width="105" height="24" viewBox="0 0 105 24" fill="none" xmlns="http://www.w3.org/2000/svg">
<path d="M1.5 3.64496C1.5 2.12567 2.23903 1.5 3.80709 1.5C4.56861 1.5 5.24014 1.79039 5.64305 2.46095L12.0707 12.8049H12.1157V3.26479C12.1157 2.08078 12.7879 1.5 13.8849 1.5C14.9818 1.5 15.654 2.08078 15.654 3.26479V15.8877C15.654 17.3396 15.0268 18.1666 13.4819 18.1666C12.3175 18.1666 11.9364 17.9211 11.466 17.1839L5.08333 7.12965H5.03903V16.4011C5.03903 17.5851 4.36681 18.1659 3.26987 18.1659C2.17293 18.1659 1.5 17.5851 1.5 16.4011V3.64496Z" fill="#F6D658"/>
<path d="M24.1433 5.90075C28.0853 5.90075 30.1906 8.5816 30.1906 12.0221C30.1906 15.2837 28.6007 18.1659 24.1433 18.1659C19.686 18.1659 18.0961 15.2837 18.0961 12.0221C18.0961 8.5816 20.2014 5.90075 24.1433 5.90075ZM24.1433 15.753C26.0918 15.753 26.9201 14.0106 26.9201 12.0221C26.9201 9.89958 26.0468 8.31365 24.1433 8.31365C22.2399 8.31365 21.3665 9.89958 21.3665 12.0221C21.3665 14.0106 22.1949 15.753 24.1433 15.753Z" fill="#F6D658"/>
<path d="M33.1474 8.3361H32.5876C31.6693 8.3361 31.2882 7.97837 31.2882 7.26362C31.2882 6.54887 31.6693 6.19114 32.5876 6.19114H33.1474V4.20259C33.1474 3.13011 33.7971 2.57178 34.7822 2.57178C35.7674 2.57178 36.4171 3.13011 36.4171 4.20259V6.19114H37.4022C38.3649 6.19114 38.8803 6.48153 38.8803 7.26362C38.8803 8.04571 38.3649 8.3361 37.4022 8.3361H36.4171V14.8594C36.4171 15.3511 36.6857 15.619 37.2679 15.619H37.7383C38.4549 15.619 38.881 16.0209 38.881 16.7139C38.881 17.6524 38.0745 18.1659 36.5071 18.1659C34.1332 18.1659 33.1474 17.1832 33.1474 15.2613V8.3361Z" fill="#F6D658"/>
<path d="M41.4335 8.3361H40.8738C39.9554 8.3361 39.5743 7.97837 39.5743 7.26362C39.5743 6.54887 39.9554 6.19114 40.8738 6.19114H41.4335V4.20259C41.4335 3.13011 42.0832 2.57178 43.0683 2.57178C44.0535 2.57178 44.7032 3.13011 44.7032 4.20259V6.19114H45.6883C46.651 6.19114 47.1664 6.48153 47.1664 7.26362C47.1664 8.04571 46.651 8.3361 45.6883 8.3361H44.7032V14.8594C44.7032 15.3511 44.9718 15.619 45.554 15.619H46.0244C46.741 15.619 47.1671 16.0209 47.1671 16.7139C47.1671 17.6524 46.3606 18.1659 44.7932 18.1659C42.4193 18.1659 41.4335 17.1832 41.4335 15.2613V8.3361Z" fill="#F6D658"/>
<path d="M53.2143 14.7478H53.2593L55.2528 7.3534C55.4764 6.52712 55.9243 5.90145 56.8201 5.90145C58.1196 5.90145 58.5 6.97393 58.5 7.37585C58.5 7.64379 58.4107 7.97907 58.2532 8.40344L54.4681 19.1044C53.684 21.3384 52.7882 22.5 50.7279 22.5C49.2724 22.5 48.6676 21.7852 48.6676 21.0032C48.6676 20.132 49.2949 19.6852 50.1682 19.6852H50.5043C50.9297 19.6852 51.4001 19.6627 51.6462 18.6576L48.2422 8.98422C47.9736 8.20213 47.8393 7.8451 47.8393 7.46493C47.8393 6.57131 48.5558 5.90075 49.4299 5.90075C50.3039 5.90075 50.9079 6.39245 51.1097 7.12965L53.2143 14.7478Z" fill="#F6D658"/>
<path d="M87.7905 7.79864C87.4385 7.67845 87.0628 7.61209 86.673 7.61209C86.5976 7.61209 86.5222 7.61577 86.4482 7.62241C85.3677 7.71679 84.4311 8.48219 83.8151 9.49018C83.1984 8.48219 82.2625 7.71679 81.1814 7.62241C81.1074 7.61577 81.0319 7.61209 80.9565 7.61209C80.5668 7.61209 80.1917 7.67771 79.839 7.79864C78.38 8.29785 77.3212 9.74531 77.3212 11.4501C77.3212 12.7398 77.9268 13.9314 78.943 14.6459L83.3395 18.2317C83.3577 18.2465 83.3772 18.2575 83.3954 18.2701C83.3486 18.2 83.3039 18.1278 83.2634 18.0533C83.0078 17.5836 82.8751 17.0527 82.7361 16.5314C82.6271 16.1221 82.5091 15.7092 82.3254 15.3324L79.8698 13.3297C79.8698 13.3297 79.867 13.3275 79.8656 13.326C79.8656 13.326 79.8642 13.326 79.8635 13.326C79.8481 13.3135 79.8314 13.3024 79.8153 13.2913C79.2265 12.8828 78.8752 12.1963 78.8752 11.4531C78.8752 10.2408 79.809 9.25496 80.9572 9.25496C81.8714 9.25496 82.7018 10.3632 82.9582 11.4649C82.7598 11.6876 82.6376 11.9862 82.6376 12.3158C82.6376 13.003 83.1649 13.5597 83.8158 13.5597C84.4668 13.5597 84.9941 13.003 84.9941 12.3158C84.9941 11.9862 84.8718 11.6876 84.6735 11.4649C84.9298 10.3625 85.7595 9.25422 86.6737 9.25422C87.8219 9.25422 88.7557 10.2401 88.7557 11.4523C88.7557 12.1978 88.4023 12.8858 87.8101 13.2943C87.794 13.3053 87.7773 13.3179 87.7626 13.3297C87.7591 13.3326 87.7549 13.3356 87.7514 13.3393L86.1849 14.6171C86.2798 14.657 86.3741 14.6997 86.4663 14.7477C86.8637 14.9563 87.2255 15.2491 87.5042 15.6119L88.6873 14.6466C89.7035 13.9329 90.309 12.7413 90.309 11.4516C90.309 9.74678 89.2509 8.29932 87.7912 7.80012L87.7905 7.79864Z" fill="#F6D658"/>
<path d="M73.6015 1.5C72.4896 1.5 71.7772 2.27498 71.7772 3.42602V8.21673H65.1485V3.42602C65.1485 2.27498 64.4368 1.5 63.3243 1.5C62.2117 1.5 61.5 2.27498 61.5 3.42602V17.0947C61.5 18.2457 62.2117 19.0207 63.3243 19.0207C64.4368 19.0207 65.1485 18.2457 65.1485 17.0947V11.4582H71.7772V17.0947C71.7772 18.2457 72.4889 19.0207 73.6015 19.0207C74.714 19.0207 75.4257 18.2457 75.4257 17.0947V3.42602C75.4257 2.27498 74.714 1.5 73.6015 1.5Z" fill="#FD46F6"/>
<path d="M98.4944 6.12628C97.0487 6.12628 95.9361 6.76042 95.2915 7.86427H95.2468V3.21439C95.2468 2.08695 94.6015 1.5 93.623 1.5C92.6445 1.5 91.9992 2.08695 91.9992 3.21439V17.4C91.9992 18.4566 92.4664 19.0207 93.4672 19.0207C94.4681 19.0207 94.9353 18.4574 94.9353 17.4V16.8595H94.98C95.5136 18.3158 96.8259 19.02 98.4057 19.02C101.12 19.02 103.5 16.9295 103.5 12.4913C103.5 9.20334 101.92 6.12628 98.4944 6.12628ZM97.6717 16.3426C95.7811 16.3426 95.0687 14.5574 95.0687 12.6085C95.0687 10.8469 95.6917 8.78009 97.6717 8.80368C99.7404 8.80368 100.252 11.0114 100.252 12.6085C100.252 14.6282 99.4066 16.2954 97.6717 16.3426Z" fill="#FD46F6"/>
<path d="M86.673 7.61209C87.0628 7.61209 87.4385 7.67845 87.7905 7.79864C87.8443 7.69172 87.8778 7.57153 87.8778 7.44175C87.8778 7.0185 87.5523 6.67489 87.1515 6.67489C86.7506 6.67489 86.4251 7.0185 86.4251 7.44175C86.4251 7.50443 86.4342 7.56416 86.4482 7.62241C86.5222 7.61577 86.5976 7.61209 86.673 7.61209Z" fill="#FD46F6"/>
<path d="M81.1814 7.62241C81.1947 7.56416 81.2044 7.50369 81.2044 7.44102C81.2044 7.01777 80.879 6.67415 80.4781 6.67415C80.0772 6.67415 79.7517 7.01777 79.7517 7.44102C79.7517 7.5708 79.7853 7.69172 79.839 7.79864C80.1917 7.67771 80.5668 7.61209 80.9565 7.61209C81.0319 7.61209 81.1074 7.61577 81.1814 7.62241Z" fill="#FD46F6"/>
<path d="M87.5035 15.6104C87.2255 15.2476 86.863 14.9541 86.4656 14.7462C86.3734 14.6982 86.2791 14.6555 86.1842 14.6157C85.7043 14.4144 85.1875 14.3119 84.6714 14.275C84.9277 14.449 85.1526 14.668 85.3461 14.9158C85.4068 14.9939 85.4641 15.0743 85.5186 15.1576C85.6883 15.4201 85.8245 15.7062 85.9195 16.0078C85.9704 16.17 86.0103 16.3404 85.9942 16.5107C85.9774 16.681 85.8957 16.8514 85.7525 16.9325C85.5912 17.0239 85.4082 16.9413 85.2783 16.827C84.9836 16.569 84.8495 16.1715 84.7398 15.7932C84.7308 15.7615 84.7217 15.7298 84.7126 15.6989C84.6609 15.5278 84.5911 15.3641 84.508 15.2085C84.1839 14.6031 83.6412 14.1275 83.012 13.9181C82.3233 13.6888 81.5446 13.7795 80.9195 14.1629C81.43 14.216 81.8742 14.5832 82.1606 15.0323C82.222 15.1289 82.2751 15.2292 82.3254 15.3324C82.5091 15.7092 82.6271 16.1221 82.7361 16.5314C82.8751 17.0527 83.0078 17.5836 83.2634 18.0533C83.3039 18.1278 83.3486 18.2 83.3954 18.2701C83.8724 18.9868 84.6616 19.4779 85.4906 19.4993C86.0221 19.5126 86.5522 19.3407 86.9999 19.0377C87.3833 18.7781 87.7137 18.4168 87.8925 17.9744C88.1362 17.372 88.0762 16.6574 87.7926 16.0749C87.7123 15.909 87.6145 15.7542 87.5035 15.6104Z" fill="#FD46F6"/>
</svg>
