<svg width="104" height="104" viewBox="0 0 104 104" fill="none" xmlns="http://www.w3.org/2000/svg">
<g clip-path="url(#clip0_2242_5658)">
<rect width="104" height="104" fill="#FF5502"/>
<mask id="mask0_2242_5658" style="mask-type:alpha" maskUnits="userSpaceOnUse" x="0" y="71" width="104" height="33">
<rect y="71.5" width="104" height="32.5" fill="white"/>
</mask>
<g mask="url(#mask0_2242_5658)">
<ellipse cx="52" cy="101.258" rx="59.9219" ry="29.7578" fill="url(#paint0_linear_2242_5658)"/>
<path fill-rule="evenodd" clip-rule="evenodd" d="M111.515 104.742C111.784 103.599 111.922 102.436 111.922 101.258C111.922 84.823 85.0939 71.5 51.9999 71.5C20.5797 71.5 -5.19226 83.5095 -7.71875 98.7894C-4.24498 83.9963 21.0762 72.5156 51.7968 72.5156C84.8907 72.5156 111.719 85.8387 111.719 102.273C111.719 103.105 111.65 103.928 111.515 104.742Z" fill="url(#paint1_linear_2242_5658)"/>
<circle opacity="0.04" cx="98.4141" cy="97.1953" r="23.4609" fill="url(#paint2_linear_2242_5658)"/>
<circle opacity="0.04" cx="9.24219" cy="106.336" r="17.3672" fill="url(#paint3_linear_2242_5658)"/>
<circle opacity="0.04" cx="25.4922" cy="82.9766" r="17.3672" fill="url(#paint4_linear_2242_5658)"/>
</g>
<path d="M49.4605 60.9375C49.5134 60.9375 49.5531 60.9031 49.5796 60.8343C49.6193 60.7655 49.6457 60.7036 49.6589 60.6486C49.6722 60.5936 49.6854 60.5523 49.6986 60.5248L50.9291 56.3153L47.9124 44.8745C47.8198 44.5994 47.6809 44.4618 47.4957 44.4618H52.1795C52.0868 44.4618 52.0538 44.5994 52.0802 44.8745L52.8344 49.9507L53.9855 44.8745C53.9987 44.8332 54.0054 44.7645 54.0054 44.6682C54.0054 44.5306 53.9657 44.4618 53.8863 44.4618H58.0938C57.9085 44.4618 57.7696 44.5994 57.677 44.8745L53.5092 60.5248C53.496 60.5661 53.4893 60.6211 53.4893 60.6899C53.4893 60.855 53.5356 60.9375 53.6283 60.9375H49.4605Z" fill="white"/>
<path d="M46.5016 53.9642C46.7662 53.9642 46.8985 53.9298 46.8985 53.861V57.307C46.8985 57.2383 46.7662 57.2039 46.5016 57.2039H44.7353C43.8091 57.2039 43.0814 57.0594 42.5521 56.7705C42.0361 56.4816 41.6723 56.0552 41.4606 55.4912C41.2489 54.9272 41.143 54.1912 41.143 53.2832V47.2282H40.0912C39.8265 47.2282 39.6942 47.2626 39.6942 47.3313V44.2361C39.6942 44.3049 39.8265 44.3393 40.0912 44.3393H41.143V42.5853C41.143 42.3102 41.11 42.1726 41.0438 42.1726H45.0131C44.947 42.1726 44.9139 42.3102 44.9139 42.5853V44.3393H46.323C46.5876 44.3393 46.7199 44.3049 46.7199 44.2361V47.3313C46.7199 47.2626 46.5876 47.2282 46.323 47.2282H44.9139V52.8705C44.9139 53.3107 45.066 53.6203 45.3704 53.7991C45.5556 53.9092 45.9327 53.9642 46.5016 53.9642Z" fill="white"/>
<path d="M38.3033 53.9642C38.5679 53.9642 38.7002 53.9298 38.7002 53.861V57.307C38.7002 57.2383 38.5679 57.2039 38.3033 57.2039H36.537C35.6108 57.2039 34.8831 57.0594 34.3538 56.7705C33.8378 56.4816 33.474 56.0552 33.2623 55.4912C33.0506 54.9272 32.9447 54.1912 32.9447 53.2832V47.2282H31.8928C31.6282 47.2282 31.4959 47.2626 31.4959 47.3313V44.2361C31.4959 44.3049 31.6282 44.3393 31.8928 44.3393H32.9447V42.5853C32.9447 42.3102 32.9116 42.1726 32.8455 42.1726H36.8148C36.7486 42.1726 36.7156 42.3102 36.7156 42.5853V44.3393H38.1247C38.3893 44.3393 38.5216 44.3049 38.5216 44.2361V47.3313C38.5216 47.2626 38.3893 47.2282 38.1247 47.2282H36.7156V52.8705C36.7156 53.3107 36.8677 53.6203 37.172 53.7991C37.3573 53.9092 37.7344 53.9642 38.3033 53.9642Z" fill="white"/>
<path d="M19.6732 49.8901C19.6732 48.2118 20.1363 44.8599 21.0625 43.8969C22.0019 42.934 23.3779 42.4525 25.1906 42.4525C26.9371 42.4525 28.2867 42.9408 29.2393 43.9176C30.2052 44.8805 30.6881 48.2255 30.6881 49.8901C30.6881 51.5821 30.225 54.9409 29.2989 55.9039C28.3859 56.8531 27.0165 57.3277 25.1906 57.3277C23.3779 57.3277 22.0019 56.8462 21.0625 55.8832C20.1363 54.9203 19.6732 53.5996 19.6732 49.8901ZM23.5433 49.952C23.5433 50.7774 23.6955 53.4552 23.9998 53.9229C24.3041 54.3769 24.7011 54.6039 25.1906 54.6039C25.6802 54.6039 26.0705 54.3631 26.3616 53.8816C26.6659 53.4002 26.818 50.6948 26.818 49.8282C26.818 49.0165 26.6659 46.3525 26.3616 45.8985C26.0572 45.4308 25.6669 45.1969 25.1906 45.1969C24.6878 45.1969 24.2843 45.4377 23.98 45.9191C23.6889 46.3869 23.5433 49.0853 23.5433 49.952Z" fill="white"/>
<path d="M7.3125 57.1007C7.37866 57.1007 7.41173 56.9631 7.41173 56.688V39.0064C7.41173 38.7313 7.37866 38.5938 7.3125 38.5938H11.2818C11.2289 38.5938 11.2091 38.6213 11.2223 38.6763L14.4176 49.5806V39.0064C14.4176 38.7313 14.3845 38.5938 14.3184 38.5938H18.2877C18.2215 38.5938 18.1884 38.7313 18.1884 39.0064V56.688C18.1884 56.9631 18.2215 57.1007 18.2877 57.1007H14.3184L11.1826 46.9393V56.688C11.1826 56.9631 11.2157 57.1007 11.2818 57.1007H7.3125Z" fill="white"/>
<path d="M96.6875 48.75C96.6875 57.8906 96.6875 62.9688 78.4062 62.9688C60.125 62.9688 60.125 57.8906 60.125 48.75C60.125 39.6094 60.125 34.5312 78.4062 34.5312C96.6875 34.5312 96.6875 39.6094 96.6875 48.75Z" fill="white"/>
<path fill-rule="evenodd" clip-rule="evenodd" d="M92.625 50.9261C92.625 52.1509 92.4586 53.2153 92.1259 54.1193C91.8039 55.0087 91.3585 55.6867 90.7897 56.1533C90.2208 56.6198 89.5929 56.8531 88.906 56.8531C88.3694 56.8531 87.8703 56.7219 87.4088 56.4595C86.9472 56.197 86.6253 55.8106 86.4428 55.3003V56.0877C86.4428 56.3501 86.4857 56.5324 86.5716 56.6344H83.4C83.4537 56.5178 83.4805 56.3647 83.4805 56.1751V41.0624C83.4805 40.902 83.4537 40.7562 83.4 40.625H86.5233C86.4696 40.7708 86.4428 40.9166 86.4428 41.0624V46.9894C86.6467 46.552 86.958 46.1875 87.3766 45.8959C87.7952 45.6043 88.305 45.4584 88.906 45.4584C90.0008 45.4584 90.8916 45.9177 91.5785 46.8363C92.2762 47.7549 92.625 49.1182 92.625 50.9261ZM87.2586 53.1942C87.4245 53.2797 87.6115 53.3231 87.801 53.3202C88.2003 53.3202 88.6862 53.1564 89.2691 52.8268C90.1605 52.3222 90.5938 51.8198 90.5938 51.289C90.5938 50.7581 90.1605 50.2551 89.2691 49.7512C88.3904 49.2545 87.7332 49.1344 87.2586 49.3837C86.7691 49.6409 86.5312 50.2641 86.5312 51.289C86.5312 52.3138 86.7691 52.937 87.2586 53.1942Z" fill="#FF5502"/>
<path d="M82.0291 56.1751C82.0291 56.4667 82.056 56.6126 82.1096 56.6126H79.6625C79.4157 56.6126 79.2386 56.5032 79.1312 56.2845C79.0239 56.0512 78.9702 55.7304 78.9702 55.3222C78.7556 55.8617 78.4658 56.2553 78.1009 56.5032C77.7467 56.7511 77.2905 56.875 76.7324 56.875C75.906 56.875 75.2727 56.5396 74.8327 55.8689C74.4033 55.1982 74.1887 54.0901 74.1887 52.5446V46.1146C74.1887 45.9542 74.1619 45.8084 74.1082 45.6772H77.3281C77.2744 45.8084 77.2476 45.9542 77.2476 46.1146V51.6916C77.2476 52.2748 77.312 52.6904 77.4408 52.9383C77.5803 53.1861 77.7735 53.3101 78.0204 53.3101C78.2458 53.3101 78.4443 53.1788 78.616 52.9164C78.7878 52.6539 78.9058 52.3186 78.9702 51.9103V46.1146C78.9702 45.823 78.9434 45.6772 78.8897 45.6772H82.1096C82.056 45.6772 82.0291 45.823 82.0291 46.1146V56.1751Z" fill="#FF5502"/>
<path d="M69.6774 56.197C69.6774 56.3136 69.6506 56.4595 69.5969 56.6344H72.8168C72.7632 56.5032 72.7363 56.3574 72.7363 56.197V49.3296C72.7363 48.0173 72.4734 47.0477 71.9475 46.4208C71.4215 45.7792 70.74 45.4584 69.9028 45.4584C69.3447 45.4584 68.8456 45.5897 68.4056 45.8521C67.9655 46.1146 67.606 46.4937 67.3269 46.9894V41.1062C67.3269 40.8146 67.3537 40.6688 67.4074 40.6687L64.1875 40.6687C64.2412 40.6688 64.268 40.8146 64.268 41.1062V56.197C64.268 56.4886 64.2412 56.6344 64.1875 56.6344H67.4074C67.3537 56.6344 67.3269 56.4886 67.3269 56.197V49.7889C67.402 49.4389 67.5684 49.1619 67.826 48.9578C68.0836 48.7391 68.3519 48.6297 68.631 48.6297C68.9637 48.6297 69.2213 48.7682 69.4037 49.0453C69.5862 49.3077 69.6774 49.7014 69.6774 50.2263V56.197Z" fill="#FF5502"/>
<path d="M81.8501 92.9862V86.095H83.9299V87.0376C84.313 86.4644 84.8603 85.9421 85.6923 85.9421C86.4804 85.9421 87.0824 86.3497 87.3999 87.0631C87.9144 86.3752 88.5164 85.9421 89.3812 85.9421C90.64 85.9421 91.4062 86.8593 91.4062 88.4642V92.9862H89.3264V89.2413C89.3264 88.4897 89.009 88.0948 88.5164 88.0948C88.0238 88.0948 87.6626 88.4897 87.6626 89.2413V92.9862H85.5828V89.2413C85.5828 88.4897 85.2654 88.0948 84.7728 88.0948C84.2802 88.0948 83.9299 88.4897 83.9299 89.2413V92.9862H81.8501Z" fill="#181E2A"/>
<path d="M77.6877 93.1518C75.794 93.1518 74.4257 91.5341 74.4257 89.5724V89.547C74.4257 87.5853 75.805 85.9421 77.7096 85.9421C79.6033 85.9421 80.9716 87.5598 80.9716 89.5215V89.547C80.9716 91.5086 79.5924 93.1518 77.6877 93.1518ZM77.7096 91.101C78.4649 91.101 78.9466 90.4004 78.9466 89.5724V89.547C78.9466 88.7063 78.4212 87.9929 77.6877 87.9929C76.9324 87.9929 76.4508 88.6935 76.4508 89.5215V89.547C76.4508 90.3877 76.9762 91.101 77.7096 91.101Z" fill="#181E2A"/>
<path d="M71.4517 93.1518C69.6675 93.1518 68.3539 91.5213 68.3539 89.5724V89.547C68.3539 87.5981 69.6565 85.9549 71.5284 85.9549C72.7434 85.9549 73.5534 86.5663 74.057 87.4962L72.6449 88.719C72.3603 88.2604 72.0429 87.9929 71.5393 87.9929C70.8716 87.9929 70.379 88.6808 70.379 89.5215V89.547C70.379 90.4386 70.8606 91.1137 71.5612 91.1137C72.0538 91.1137 72.3712 90.8462 72.6996 90.4004L74.0898 91.5723C73.5425 92.5149 72.7544 93.1518 71.4517 93.1518Z" fill="#181E2A"/>
<path d="M65.6102 92.9862V90.5023H67.7776V92.9862H65.6102Z" fill="#181E2A"/>
<path d="M62.2399 93.1391C61.3423 93.1391 60.8169 92.6678 60.4337 92.1455V92.9862H58.3539V83.6875H60.4337V87.0121C60.8387 86.4389 61.3423 85.9421 62.2289 85.9421C63.641 85.9421 64.8561 87.3051 64.8561 89.5087V89.5342C64.8561 91.7761 63.641 93.1391 62.2399 93.1391ZM61.594 91.1137C62.2727 91.1137 62.8091 90.4768 62.8091 89.547V89.5215C62.8091 88.6171 62.2727 87.9675 61.594 87.9675C60.9263 87.9675 60.3899 88.6171 60.3899 89.5215V89.547C60.3899 90.4641 60.9263 91.1137 61.594 91.1137Z" fill="#181E2A"/>
<path d="M53.3866 93.1391C52.1278 93.1391 51.3725 92.171 51.3725 90.6042V86.095H53.4523V89.8272C53.4523 90.5787 53.7916 90.9864 54.2951 90.9864C54.7877 90.9864 55.1599 90.5787 55.1599 89.8272V86.095H57.2397V92.9862H55.1599V92.0436C54.7768 92.6168 54.2295 93.1391 53.3866 93.1391Z" fill="#181E2A"/>
<path d="M44.4786 92.9862V83.6875H46.5584V87.0376C46.9415 86.4644 47.4888 85.9421 48.3317 85.9421C49.5905 85.9421 50.3458 86.9102 50.3458 88.477V92.9862H48.266V89.254C48.266 88.5024 47.9267 88.0948 47.4341 88.0948C46.9306 88.0948 46.5584 88.5024 46.5584 89.254V92.9862H44.4786Z" fill="#181E2A"/>
<path d="M39.3778 95.0625C38.6444 95.0625 38.0205 94.8205 37.4732 94.4638L38.119 92.7697C38.4474 92.999 38.7977 93.1391 39.0276 93.1391C39.2355 93.1391 39.3778 93.0754 39.5092 92.8588L37.1886 86.095H39.3669L40.5491 90.2476L41.6656 86.095H43.8002L41.6328 92.8206C41.1183 94.4256 40.56 95.0625 39.3778 95.0625Z" fill="#181E2A"/>
<path d="M35.2657 93.1263C34.0178 93.1263 33.2735 92.4894 33.2735 90.8462V88.0439H32.5729V86.095H33.2735V84.3499H35.3533V86.095H36.7325V88.0439H35.3533V90.3749C35.3533 90.859 35.5393 91.0628 35.9225 91.0628C36.1961 91.0628 36.4588 90.9736 36.7106 90.8335V92.7315C36.3384 92.9735 35.8458 93.1263 35.2657 93.1263Z" fill="#181E2A"/>
<path d="M30.5515 93.1263C29.3036 93.1263 28.5593 92.4894 28.5593 90.8462V88.0439H27.8587V86.095H28.5593V84.3499H30.6391V86.095H32.0183V88.0439H30.6391V90.3749C30.6391 90.859 30.8251 91.0628 31.2083 91.0628C31.4819 91.0628 31.7446 90.9736 31.9964 90.8335V92.7315C31.6242 92.9735 31.1316 93.1263 30.5515 93.1263Z" fill="#181E2A"/>
<path d="M24.0891 93.1518C22.1954 93.1518 20.8271 91.5341 20.8271 89.5724V89.547C20.8271 87.5853 22.2064 85.9421 24.111 85.9421C26.0047 85.9421 27.373 87.5598 27.373 89.5215V89.547C27.373 91.5086 25.9938 93.1518 24.0891 93.1518ZM24.111 91.101C24.8663 91.101 25.348 90.4004 25.348 89.5724V89.547C25.348 88.7063 24.8225 87.9929 24.0891 87.9929C23.3338 87.9929 22.8522 88.6935 22.8522 89.5215V89.547C22.8522 90.3877 23.3776 91.101 24.111 91.101Z" fill="#181E2A"/>
<path d="M12.5938 92.9862V84.0696H14.575L17.7276 88.7827V84.0696H19.8293V92.9862H17.9684L14.6954 88.0948V92.9862H12.5938Z" fill="#181E2A"/>
</g>
<defs>
<linearGradient id="paint0_linear_2242_5658" x1="-7.84577" y1="71.5" x2="118.926" y2="92.7858" gradientUnits="userSpaceOnUse">
<stop stop-color="white"/>
<stop offset="1" stop-color="white" stop-opacity="0.8"/>
</linearGradient>
<linearGradient id="paint1_linear_2242_5658" x1="-7.84585" y1="71.5" x2="118.926" y2="92.7858" gradientUnits="userSpaceOnUse">
<stop stop-color="#84CE11"/>
<stop offset="1" stop-color="#D1FF80"/>
</linearGradient>
<linearGradient id="paint2_linear_2242_5658" x1="74.9829" y1="73.7344" x2="125.664" y2="77.9604" gradientUnits="userSpaceOnUse">
<stop stop-color="#FF5502"/>
<stop offset="1" stop-color="#FFA072"/>
</linearGradient>
<linearGradient id="paint3_linear_2242_5658" x1="-8.10294" y1="88.9687" x2="29.4144" y2="92.0971" gradientUnits="userSpaceOnUse">
<stop stop-color="#FF5502"/>
<stop offset="1" stop-color="#FFA072"/>
</linearGradient>
<linearGradient id="paint4_linear_2242_5658" x1="8.14706" y1="65.6094" x2="45.6644" y2="68.7377" gradientUnits="userSpaceOnUse">
<stop stop-color="#FF5502"/>
<stop offset="1" stop-color="#FFA072"/>
</linearGradient>
<clipPath id="clip0_2242_5658">
<rect width="104" height="104" rx="24" fill="white"/>
</clipPath>
</defs>
</svg>
