<svg width="86" height="28" viewBox="0 0 86 28" fill="none" xmlns="http://www.w3.org/2000/svg">
<path d="M40.6626 24.5C40.7113 24.5 40.7479 24.4704 40.7722 24.4111C40.8088 24.3519 40.8331 24.2985 40.8453 24.2511C40.8575 24.2037 40.8697 24.1681 40.8818 24.1444L42.0144 20.5178L39.2378 10.6611C39.1526 10.4241 39.0247 10.3056 38.8542 10.3056H43.1652C43.0799 10.3056 43.0495 10.4241 43.0738 10.6611L43.768 15.0344L44.8275 10.6611C44.8396 10.6256 44.8457 10.5663 44.8457 10.4833C44.8457 10.3648 44.8092 10.3056 44.7361 10.3056H48.6087C48.4382 10.3056 48.3103 10.4241 48.2251 10.6611L44.3891 24.1444C44.3769 24.18 44.3708 24.2274 44.3708 24.2867C44.3708 24.4289 44.4134 24.5 44.4987 24.5H40.6626Z" fill="white"/>
<path d="M37.9393 18.4922C38.1828 18.4922 38.3046 18.4626 38.3046 18.4033V21.3722C38.3046 21.313 38.1828 21.2833 37.9393 21.2833H36.3135C35.4611 21.2833 34.7913 21.1589 34.3042 20.91C33.8292 20.6611 33.4944 20.2937 33.2995 19.8078C33.1047 19.3219 33.0072 18.6878 33.0072 17.9056V12.6889H32.0391C31.7955 12.6889 31.6738 12.7185 31.6738 12.7778V10.1111C31.6738 10.1704 31.7955 10.2 32.0391 10.2H33.0072V8.68889C33.0072 8.45185 32.9768 8.33333 32.9159 8.33333H36.5693C36.5084 8.33333 36.4779 8.45185 36.4779 8.68889V10.2H37.7749C38.0184 10.2 38.1402 10.1704 38.1402 10.1111V12.7778C38.1402 12.7185 38.0184 12.6889 37.7749 12.6889H36.4779V17.55C36.4779 17.9293 36.618 18.1959 36.8981 18.35C37.0686 18.4448 37.4156 18.4922 37.9393 18.4922Z" fill="white"/>
<path d="M30.3935 18.4922C30.6371 18.4922 30.7589 18.4626 30.7589 18.4033V21.3722C30.7589 21.313 30.6371 21.2833 30.3935 21.2833H28.7678C27.9153 21.2833 27.2456 21.1589 26.7584 20.91C26.2835 20.6611 25.9486 20.2937 25.7538 19.8078C25.5589 19.3219 25.4615 18.6878 25.4615 17.9056V12.6889H24.4934C24.2498 12.6889 24.128 12.7185 24.128 12.7778V10.1111C24.128 10.1704 24.2498 10.2 24.4934 10.2H25.4615V8.68889C25.4615 8.45185 25.4311 8.33333 25.3702 8.33333H29.0235C28.9626 8.33333 28.9322 8.45185 28.9322 8.68889V10.2H30.2291C30.4727 10.2 30.5945 10.1704 30.5945 10.1111V12.7778C30.5945 12.7185 30.4727 12.6889 30.2291 12.6889H28.9322V17.55C28.9322 17.9293 29.0722 18.1959 29.3523 18.35C29.5228 18.4448 29.8699 18.4922 30.3935 18.4922Z" fill="white"/>
<path d="M13.2464 14.9822C13.2464 13.5363 13.6726 10.6485 14.5251 9.81889C15.3897 8.98926 16.6562 8.57444 18.3246 8.57444C19.9321 8.57444 21.1742 8.99518 22.051 9.83667C22.94 10.6663 23.3845 13.5481 23.3845 14.9822C23.3845 16.44 22.9583 19.3337 22.1058 20.1633C21.2656 20.9811 20.0051 21.39 18.3246 21.39C16.6562 21.39 15.3897 20.9752 14.5251 20.1456C13.6726 19.3159 13.2464 18.1781 13.2464 14.9822ZM16.8084 15.0356C16.8084 15.7467 16.9485 18.0537 17.2286 18.4567C17.5087 18.8478 17.874 19.0433 18.3246 19.0433C18.7752 19.0433 19.1344 18.8359 19.4023 18.4211C19.6824 18.0063 19.8225 15.6756 19.8225 14.9289C19.8225 14.2296 19.6824 11.9344 19.4023 11.5433C19.1223 11.1404 18.763 10.9389 18.3246 10.9389C17.8618 10.9389 17.4904 11.1463 17.2103 11.5611C16.9424 11.9641 16.8084 14.2889 16.8084 15.0356Z" fill="white"/>
<path d="M1.86957 21.1944C1.93046 21.1944 1.9609 21.0759 1.9609 20.8389V5.60556C1.9609 5.36852 1.93046 5.25 1.86957 5.25H5.52294C5.47422 5.25 5.45596 5.2737 5.46814 5.32111L8.4091 14.7156V5.60556C8.4091 5.36852 8.37865 5.25 8.31776 5.25H11.9711C11.9102 5.25 11.8798 5.36852 11.8798 5.60556V20.8389C11.8798 21.0759 11.9102 21.1944 11.9711 21.1944H8.31776L5.4316 12.44V20.8389C5.4316 21.0759 5.46205 21.1944 5.52294 21.1944H1.86957Z" fill="white"/>
<path d="M84.1304 14C84.1304 21.875 84.1304 26.25 67.3044 26.25C50.4783 26.25 50.4783 21.875 50.4783 14C50.4783 6.125 50.4783 1.75 67.3044 1.75C84.1304 1.75 84.1304 6.125 84.1304 14Z" fill="#FF5502"/>
<path fill-rule="evenodd" clip-rule="evenodd" d="M80.3913 15.8748C80.3913 16.93 80.2382 17.847 79.932 18.6258C79.6356 19.3921 79.2256 19.9762 78.7021 20.3782C78.1785 20.7802 77.6006 20.9812 76.9684 20.9812C76.4744 20.9812 76.0151 20.8681 75.5903 20.642C75.1655 20.4159 74.8691 20.083 74.7012 19.6433V20.3217C74.7012 20.5478 74.7407 20.7048 74.8198 20.7927H71.9006C71.95 20.6922 71.9747 20.5603 71.9747 20.397V7.37685C71.9747 7.23867 71.95 7.11306 71.9006 7H74.7753C74.7259 7.12562 74.7012 7.25123 74.7012 7.37685V12.4832C74.8889 12.1063 75.1754 11.7923 75.5607 11.541C75.9459 11.2898 76.4152 11.1642 76.9684 11.1642C77.976 11.1642 78.7959 11.5599 79.4282 12.3513C80.0703 13.1427 80.3913 14.3172 80.3913 15.8748ZM75.4521 17.8289C75.6048 17.9025 75.7769 17.9399 75.9513 17.9374C76.3188 17.9374 76.766 17.7962 77.3026 17.5123C78.123 17.0776 78.5218 16.6448 78.5218 16.1874C78.5218 15.7301 78.123 15.2967 77.3026 14.8625C76.4938 14.4347 75.8889 14.3312 75.4521 14.546C75.0015 14.7676 74.7826 15.3045 74.7826 16.1874C74.7826 17.0704 75.0015 17.6073 75.4521 17.8289Z" fill="#0E0E0F"/>
<path d="M70.6389 20.397C70.6389 20.6483 70.6636 20.7739 70.713 20.7739H68.4606C68.2334 20.7739 68.0704 20.6797 67.9716 20.4913C67.8728 20.2903 67.8235 20.0139 67.8235 19.6622C67.6259 20.127 67.3592 20.4661 67.0233 20.6797C66.6973 20.8932 66.2774 21 65.7638 21C65.0031 21 64.4203 20.7111 64.0152 20.1332C63.6201 19.5554 63.4225 18.6007 63.4225 17.2692V11.7295C63.4225 11.5913 63.3978 11.4657 63.3484 11.3526H66.312C66.2626 11.4657 66.2379 11.5913 66.2379 11.7295V16.5343C66.2379 17.0368 66.2972 17.3948 66.4157 17.6083C66.5442 17.8219 66.722 17.9287 66.9492 17.9287C67.1566 17.9287 67.3394 17.8156 67.4975 17.5895C67.6555 17.3634 67.7642 17.0745 67.8235 16.7227V11.7295C67.8235 11.4782 67.7988 11.3526 67.7494 11.3526H70.713C70.6636 11.3526 70.6389 11.4782 70.6389 11.7295V20.397Z" fill="#0E0E0F"/>
<path d="M59.2703 20.4159C59.2703 20.5164 59.2456 20.642 59.1963 20.7927H62.1599C62.1105 20.6797 62.0858 20.5541 62.0858 20.4159V14.4993C62.0858 13.3688 61.8437 12.5334 61.3597 11.9933C60.8756 11.4406 60.2483 11.1642 59.4778 11.1642C58.9641 11.1642 58.5047 11.2773 58.0997 11.5034C57.6947 11.7295 57.3638 12.0561 57.1069 12.4832V7.41454C57.1069 7.16335 57.1316 7.03773 57.181 7.03769L54.2174 7.03769C54.2668 7.03774 54.2915 7.16336 54.2915 7.41454V20.4159C54.2915 20.6671 54.2668 20.7927 54.2174 20.7927H57.181C57.1316 20.7927 57.1069 20.6671 57.1069 20.4159V14.895C57.1761 14.5935 57.3292 14.3549 57.5663 14.179C57.8034 13.9906 58.0503 13.8964 58.3072 13.8964C58.6134 13.8964 58.8505 14.0157 59.0184 14.2544C59.1864 14.4805 59.2703 14.8196 59.2703 15.2719V20.4159Z" fill="#0E0E0F"/>
</svg>
