<svg width="84" height="28" viewBox="0 0 84 28" fill="none" xmlns="http://www.w3.org/2000/svg">
<path d="M39.7171 24.5C39.7646 24.5 39.8003 24.4704 39.8241 24.4111C39.8598 24.3519 39.8836 24.2985 39.8955 24.2511C39.9074 24.2037 39.9193 24.1681 39.9312 24.1444L41.0374 20.5178L38.3254 10.6611C38.2421 10.4241 38.1172 10.3056 37.9507 10.3056H42.1614C42.0782 10.3056 42.0484 10.4241 42.0722 10.6611L42.7502 15.0344L43.785 10.6611C43.7969 10.6256 43.8029 10.5663 43.8029 10.4833C43.8029 10.3648 43.7672 10.3056 43.6958 10.3056H47.4783C47.3118 10.3056 47.1869 10.4241 47.1037 10.6611L43.3568 24.1444C43.3449 24.18 43.339 24.2274 43.339 24.2867C43.339 24.4289 43.3806 24.5 43.4639 24.5H39.7171Z" fill="#181E2A"/>
<path d="M37.0571 18.4922C37.2949 18.4922 37.4139 18.4626 37.4139 18.4033V21.3722C37.4139 21.313 37.2949 21.2833 37.0571 21.2833H35.4691C34.6365 21.2833 33.9823 21.1589 33.5065 20.91C33.0426 20.6611 32.7155 20.2937 32.5252 19.8078C32.3349 19.3219 32.2397 18.6878 32.2397 17.9056V12.6889H31.2941C31.0562 12.6889 30.9372 12.7185 30.9372 12.7778V10.1111C30.9372 10.1704 31.0562 10.2 31.2941 10.2H32.2397V8.68889C32.2397 8.45185 32.21 8.33333 32.1505 8.33333H35.7189C35.6594 8.33333 35.6297 8.45185 35.6297 8.68889V10.2H36.8965C37.1344 10.2 37.2533 10.1704 37.2533 10.1111V12.7778C37.2533 12.7185 37.1344 12.6889 36.8965 12.6889H35.6297V17.55C35.6297 17.9293 35.7665 18.1959 36.0401 18.35C36.2066 18.4448 36.5456 18.4922 37.0571 18.4922Z" fill="#181E2A"/>
<path d="M29.6868 18.4922C29.9247 18.4922 30.0436 18.4626 30.0436 18.4033V21.3722C30.0436 21.313 29.9247 21.2833 29.6868 21.2833H28.0989C27.2662 21.2833 26.612 21.1589 26.1362 20.91C25.6723 20.6611 25.3452 20.2937 25.1549 19.8078C24.9646 19.3219 24.8694 18.6878 24.8694 17.9056V12.6889H23.9238C23.6859 12.6889 23.567 12.7185 23.567 12.7778V10.1111C23.567 10.1704 23.6859 10.2 23.9238 10.2H24.8694V8.68889C24.8694 8.45185 24.8397 8.33333 24.7802 8.33333H28.3486C28.2892 8.33333 28.2594 8.45185 28.2594 8.68889V10.2H29.5262C29.7641 10.2 29.8831 10.1704 29.8831 10.1111V12.7778C29.8831 12.7185 29.7641 12.6889 29.5262 12.6889H28.2594V17.55C28.2594 17.9293 28.3962 18.1959 28.6698 18.35C28.8363 18.4448 29.1753 18.4922 29.6868 18.4922Z" fill="#181E2A"/>
<path d="M12.9384 14.9822C12.9384 13.5363 13.3548 10.6485 14.1874 9.81889C15.0319 8.98926 16.269 8.57444 17.8985 8.57444C19.4686 8.57444 20.6819 8.99518 21.5383 9.83667C22.4066 10.6663 22.8408 13.5481 22.8408 14.9822C22.8408 16.44 22.4245 19.3337 21.5918 20.1633C20.7711 20.9811 19.54 21.39 17.8985 21.39C16.269 21.39 15.0319 20.9752 14.1874 20.1456C13.3548 19.3159 12.9384 18.1781 12.9384 14.9822ZM16.4176 15.0356C16.4176 15.7467 16.5544 18.0537 16.828 18.4567C17.1016 18.8478 17.4584 19.0433 17.8985 19.0433C18.3386 19.0433 18.6895 18.8359 18.9512 18.4211C19.2248 18.0063 19.3616 15.6756 19.3616 14.9289C19.3616 14.2296 19.2248 11.9344 18.9512 11.5433C18.6776 11.1404 18.3267 10.9389 17.8985 10.9389C17.4465 10.9389 17.0837 11.1463 16.8102 11.5611C16.5485 11.9641 16.4176 14.2889 16.4176 15.0356Z" fill="#181E2A"/>
<path d="M1.82617 21.1944C1.88565 21.1944 1.91538 21.0759 1.91538 20.8389V5.60556C1.91538 5.36852 1.88565 5.25 1.82617 5.25H5.39458C5.347 5.25 5.32916 5.2737 5.34105 5.32111L8.21362 14.7156V5.60556C8.21362 5.36852 8.18388 5.25 8.12441 5.25H11.6928C11.6333 5.25 11.6036 5.36852 11.6036 5.60556V20.8389C11.6036 21.0759 11.6333 21.1944 11.6928 21.1944H8.12441L5.30537 12.44V20.8389C5.30537 21.0759 5.3351 21.1944 5.39458 21.1944H1.82617Z" fill="#181E2A"/>
<path d="M82.1738 14C82.1738 21.875 82.1738 26.25 65.739 26.25C49.3042 26.25 49.3042 21.875 49.3042 14C49.3042 6.125 49.3042 1.75 65.739 1.75C82.1738 1.75 82.1738 6.125 82.1738 14Z" fill="#FF5502"/>
<path fill-rule="evenodd" clip-rule="evenodd" d="M78.5218 15.8748C78.5218 16.93 78.3722 17.847 78.0731 18.6258C77.7836 19.3921 77.3832 19.9762 76.8718 20.3782C76.3604 20.7802 75.7959 20.9812 75.1784 20.9812C74.696 20.9812 74.2473 20.8681 73.8324 20.642C73.4175 20.4159 73.128 20.083 72.964 19.6433V20.3217C72.964 20.5478 73.0026 20.7048 73.0798 20.7927H70.2285C70.2767 20.6922 70.3009 20.5603 70.3009 20.397V7.37685C70.3009 7.23867 70.2767 7.11306 70.2285 7H73.0363C72.9881 7.12562 72.964 7.25123 72.964 7.37685V12.4832C73.1473 12.1063 73.4271 11.7923 73.8034 11.541C74.1797 11.2898 74.6381 11.1642 75.1784 11.1642C76.1626 11.1642 76.9635 11.5599 77.581 12.3513C78.2082 13.1427 78.5218 14.3172 78.5218 15.8748ZM73.6974 17.8289C73.8465 17.9025 74.0146 17.9399 74.185 17.9374C74.544 17.9374 74.9807 17.7962 75.5048 17.5123C76.3062 17.0776 76.6957 16.6448 76.6957 16.1874C76.6957 15.7301 76.3062 15.2967 75.5048 14.8625C74.7149 14.4347 74.124 14.3312 73.6974 14.546C73.2573 14.7676 73.0435 15.3045 73.0435 16.1874C73.0435 17.0704 73.2573 17.6073 73.6974 17.8289Z" fill="white"/>
<path d="M68.9961 20.397C68.9961 20.6483 69.0202 20.7739 69.0685 20.7739H66.8685C66.6466 20.7739 66.4874 20.6797 66.3909 20.4913C66.2944 20.2903 66.2462 20.0139 66.2462 19.6622C66.0532 20.127 65.7927 20.4661 65.4646 20.6797C65.1462 20.8932 64.7361 21 64.2344 21C63.4914 21 62.9221 20.7111 62.5265 20.1332C62.1406 19.5554 61.9476 18.6007 61.9476 17.2692V11.7295C61.9476 11.5913 61.9235 11.4657 61.8752 11.3526H64.7699C64.7216 11.4657 64.6975 11.5913 64.6975 11.7295V16.5343C64.6975 17.0368 64.7554 17.3948 64.8712 17.6083C64.9966 17.8219 65.1703 17.9287 65.3922 17.9287C65.5949 17.9287 65.7734 17.8156 65.9278 17.5895C66.0821 17.3634 66.1883 17.0745 66.2462 16.7227V11.7295C66.2462 11.4782 66.2221 11.3526 66.1738 11.3526H69.0685C69.0202 11.3526 68.9961 11.4782 68.9961 11.7295V20.397Z" fill="white"/>
<path d="M57.892 20.4159C57.892 20.5164 57.8678 20.642 57.8196 20.7927H60.7143C60.666 20.6797 60.6419 20.5541 60.6419 20.4159V14.4993C60.6419 13.3688 60.4055 12.5334 59.9327 11.9933C59.4599 11.4406 58.8472 11.1642 58.0946 11.1642C57.5929 11.1642 57.1442 11.2773 56.7486 11.5034C56.353 11.7295 56.0297 12.0561 55.7789 12.4832V7.41454C55.7789 7.16335 55.803 7.03773 55.8512 7.03769L52.9566 7.03769C53.0048 7.03774 53.0289 7.16336 53.0289 7.41454V20.4159C53.0289 20.6671 53.0048 20.7927 52.9565 20.7927H55.8512C55.803 20.7927 55.7789 20.6671 55.7789 20.4159V14.895C55.8464 14.5935 55.996 14.3549 56.2275 14.179C56.4591 13.9906 56.7003 13.8964 56.9512 13.8964C57.2503 13.8964 57.4819 14.0157 57.6459 14.2544C57.81 14.4805 57.892 14.8196 57.892 15.2719V20.4159Z" fill="white"/>
</svg>
