<svg width="236" height="54" viewBox="0 0 236 54" fill="none" xmlns="http://www.w3.org/2000/svg">
<path d="M9 8.69726C9 5.37003 10.6199 4 14.0592 4C15.7275 4 17.2024 4.63533 18.0879 6.10473L32.1836 28.76H32.2834V7.8662C32.2803 5.27368 33.7552 4 36.1609 4C38.5666 4 40.0415 5.27368 40.0415 7.8662V35.5138C40.0415 38.6935 38.6663 40.5061 35.2784 40.5061C32.7246 40.5061 31.8905 39.9671 30.8569 38.3532L16.8578 16.3303H16.7611V36.6369C16.7611 39.2294 15.2863 40.5031 12.8806 40.5031C10.4749 40.5031 9 39.2324 9 36.6369V8.69726Z" fill="#FD46F6"/>
<path d="M58.6585 13.6384C67.3021 13.6384 71.9201 19.51 71.9201 27.0467C71.9201 34.1919 68.4324 40.5031 58.6585 40.5031C48.8845 40.5031 45.3969 34.1919 45.3969 27.0467C45.3969 19.51 50.0149 13.6384 58.6585 13.6384ZM58.6585 35.2187C62.9319 35.2187 64.7483 31.4007 64.7483 27.0467C64.7483 22.3976 62.8322 18.9228 58.6585 18.9228C54.4848 18.9228 52.5687 22.3976 52.5687 27.0467C52.5687 31.4007 54.385 35.2187 58.6585 35.2187Z" fill="#FD46F6"/>
<path d="M78.4028 18.974H77.1758C75.163 18.974 74.3258 18.1911 74.3258 16.6254C74.3258 15.0596 75.1599 14.2768 77.1758 14.2768H78.4028V9.92276C78.4028 7.57413 79.8263 6.35164 81.9872 6.35164C84.1481 6.35164 85.5716 7.57413 85.5716 9.92276V14.2768H87.7325C89.845 14.2768 90.9753 14.9121 90.9753 16.6254C90.9753 18.3387 89.845 18.974 87.7325 18.974H85.5716V33.2615C85.5716 34.3395 86.1609 34.9266 87.4393 34.9266H88.4699C90.0415 34.9266 90.9753 35.8089 90.9753 37.3234C90.9753 39.38 89.2073 40.5031 85.768 40.5031C80.5607 40.5031 78.3998 38.3502 78.3998 34.1407V18.971L78.4028 18.974Z" fill="#FD46F6"/>
<path d="M96.5756 18.974H95.3485C93.3357 18.974 92.4986 18.1911 92.4986 16.6254C92.4986 15.0596 93.3327 14.2768 95.3485 14.2768H96.5756V9.92276C96.5756 7.57413 97.999 6.35164 100.16 6.35164C102.321 6.35164 103.744 7.57413 103.744 9.92276V14.2768H105.905C108.018 14.2768 109.148 14.9121 109.148 16.6254C109.148 18.3387 108.018 18.974 105.905 18.974H103.744V33.2615C103.744 34.3395 104.334 34.9266 105.612 34.9266H106.643C108.214 34.9266 109.148 35.8089 109.148 37.3234C109.148 39.38 107.38 40.5031 103.941 40.5031C98.7334 40.5031 96.5725 38.3502 96.5725 34.1407V18.971L96.5756 18.974Z" fill="#FD46F6"/>
<path d="M122.41 33.0176H122.509L126.88 16.8211C127.369 15.0115 128.351 13.6414 130.316 13.6414C133.166 13.6414 134 15.99 134 16.8723C134 17.4594 133.804 18.1941 133.459 19.1246L125.16 42.5627C123.44 47.4557 121.476 50 116.958 50C113.766 50 112.439 48.4342 112.439 46.721C112.439 44.8119 113.814 43.8333 115.731 43.8333H116.468C117.402 43.8333 118.432 43.7852 118.973 41.5811L111.508 20.3922C110.919 18.6789 110.623 17.8961 110.623 17.065C110.623 15.1078 112.195 13.6384 114.111 13.6384C116.027 13.6384 117.35 14.7164 117.795 16.3303L122.413 33.0176H122.41Z" fill="#FD46F6"/>
<path d="M164.07 4C161.673 4 160.14 5.59155 160.14 7.9581V17.8014H145.86V7.9581C145.86 5.59452 144.327 4 141.93 4C139.533 4 138 5.59155 138 7.9581V36.0419C138 38.4055 139.533 40 141.93 40C144.327 40 145.86 38.4084 145.86 36.0419V24.4616H160.14V36.0419C160.14 38.4055 161.673 40 164.07 40C166.467 40 168 38.4084 168 36.0419V7.9581C168 5.59452 166.467 4 164.07 4Z" fill="#FFE500"/>
<path d="M192.019 14.0015C189.953 14.0015 188.019 15.1844 187.098 17.0113C185.928 19.3289 186.928 21.6856 187.199 24.0724C187.412 25.9505 187.586 27.8347 187.586 29.7309C187.586 34.5858 186.547 35.8288 185.261 35.8288C183.975 35.8288 182.936 34.5858 182.936 29.7309C182.936 27.8347 183.11 25.9505 183.323 24.0724C183.591 21.6826 184.594 19.3289 183.424 17.0113C182.501 15.1844 180.569 14.0015 178.503 14.0015C175.468 14.0015 173.006 16.4334 173.006 19.4312V27.9671C173.006 34.655 178.494 40.0757 185.264 40.0757C192.035 40.0757 197.522 34.655 197.522 27.9671V19.4312C197.522 16.4334 195.06 14.0015 192.025 14.0015H192.019Z" fill="url(#paint0_linear_5467_11255)"/>
<path d="M196.529 31.1364C195.59 30.4171 194.475 29.9205 193.314 29.6496C193.046 29.5864 192.775 29.5412 192.501 29.4991C191.203 29.3065 189.874 29.3546 188.573 29.5473C188.512 29.5563 188.506 29.6375 188.561 29.6616C189.249 29.9295 189.895 30.2997 190.487 30.7422C190.691 30.8957 190.889 31.0582 191.078 31.2297C191.672 31.7685 192.196 32.3855 192.619 33.0658C192.848 33.433 193.049 33.8242 193.107 34.2516C193.162 34.679 193.046 35.1455 192.72 35.4285C192.351 35.7505 191.824 35.6602 191.419 35.4586C190.499 35.0041 189.917 34.1162 189.411 33.2584C189.368 33.1861 189.326 33.1139 189.286 33.0447C189.051 32.6594 188.774 32.3013 188.466 31.9702C187.269 30.685 185.572 29.8512 183.808 29.7218C182.412 29.6195 180.989 29.9506 179.776 30.6398C179.329 30.8957 179.426 31.5548 179.929 31.6812C180.782 31.8949 181.583 32.3675 182.232 32.9634C182.449 33.1621 182.65 33.3758 182.839 33.5955C183.536 34.4051 184.085 35.3442 184.609 36.2772C185.276 37.4691 185.931 38.6851 186.873 39.6784C187.022 39.8349 187.181 39.9854 187.345 40.1298C189.009 41.5956 191.355 42.318 193.534 41.8665C194.929 41.5776 196.215 40.8341 197.211 39.8228C198.064 38.956 198.716 37.8725 198.927 36.6806C199.213 35.0613 198.64 33.3487 197.562 32.0966C197.254 31.7384 196.907 31.4224 196.532 31.1364H196.529Z" fill="#FD46F6"/>
<path d="M185.258 35.8288C183.975 35.8288 182.933 34.5857 182.933 29.7309C182.933 27.8347 183.107 25.9505 183.32 24.0724C183.603 21.5592 184.694 19.0851 183.22 16.6501C182.333 15.1873 180.785 14.2001 179.07 14.0285C175.776 13.7005 173 16.2438 173 19.4282V27.9641C173 33.752 177.11 38.5888 182.604 39.7867C184.006 40.0937 185.337 39.0343 185.337 37.6136V35.8228C185.31 35.8228 185.285 35.8228 185.258 35.8228V35.8288Z" fill="url(#paint1_linear_5467_11255)"/>
<path d="M196.529 31.1365C195.59 30.4171 194.475 29.9205 193.314 29.6496C193.046 29.5864 192.775 29.5412 192.501 29.4991C191.206 29.3095 189.88 29.3546 188.582 29.5473C188.518 29.5563 188.512 29.6436 188.57 29.6647C189.256 29.9325 189.899 30.2997 190.487 30.7422C190.691 30.8957 190.889 31.0582 191.078 31.2298C191.672 31.7685 192.196 32.3855 192.619 33.0658C192.848 33.433 193.049 33.8242 193.107 34.2516C193.162 34.679 193.046 35.1456 192.72 35.4285C192.351 35.7505 191.824 35.6602 191.419 35.4586C190.499 35.0041 189.917 34.1162 189.411 33.2584C189.368 33.1862 189.326 33.1139 189.286 33.0447C189.051 32.6594 188.774 32.3013 188.466 31.9702C187.269 30.685 185.572 29.8513 183.808 29.7218C182.412 29.6195 180.992 29.9506 179.783 30.6368C179.332 30.8927 179.429 31.5548 179.935 31.6812C180.785 31.8949 181.583 32.3675 182.232 32.9634C182.449 33.1621 182.65 33.3758 182.839 33.5955C183.536 34.4051 184.085 35.3442 184.609 36.2773C185.276 37.4692 185.931 38.6851 186.873 39.6784C187.022 39.8349 187.181 39.9854 187.345 40.1299C189.009 41.5956 191.355 42.318 193.534 41.8665C194.929 41.5776 196.215 40.8342 197.211 39.8229C198.064 38.956 198.716 37.8725 198.927 36.6806C199.213 35.0613 198.64 33.3487 197.562 32.0966C197.254 31.7384 196.907 31.4224 196.532 31.1365H196.529Z" fill="#FD46F6"/>
<path d="M182.936 29.7309C182.936 27.8347 183.11 25.9505 183.323 24.0724C183.591 21.6826 184.594 19.3289 183.424 17.0113C182.501 15.1844 180.569 14.0015 178.503 14.0015C175.468 14.0015 173.006 16.4334 173.006 19.4312V27.9671C173.006 32.8672 175.956 37.0839 180.194 38.9892L183.96 35.2208C183.32 34.4473 182.939 32.828 182.939 29.7309H182.936Z" fill="url(#paint2_linear_5467_11255)"/>
<path d="M202.006 7.5219C202.006 5.20564 203.407 4 205.535 4C207.662 4 209.064 5.20564 209.064 7.5219V17.078H209.159C210.56 14.8092 212.98 13.5056 216.122 13.5056C223.569 13.5056 227 19.8278 227 26.5835C227 35.703 221.826 40 215.928 40C212.495 40 209.641 38.5508 208.481 35.5605H208.382V36.6711C208.382 38.8419 207.27 40 205.193 40C203.116 40 202 38.8419 202 36.6711V7.5219H202.006ZM214.336 19.0082C210.034 18.9607 208.68 23.2071 208.68 26.827C208.68 30.833 210.227 34.5004 214.336 34.5004C218.109 34.4024 219.945 30.9785 219.945 26.827C219.945 23.5457 218.832 19.0082 214.336 19.0082Z" fill="#FFE500"/>
<path fill-rule="evenodd" clip-rule="evenodd" d="M200.831 27.7364C200.988 27.0097 202.021 26.8057 202.56 27.1922L202.554 27.1891C203.032 27.5354 202.913 28.2281 202.567 28.6177C202.211 29.0197 201.659 29.1866 201.142 29.3072C200.979 29.3474 200.096 29.5577 200.01 29.2949C199.973 29.1825 200.045 29.1131 200.163 28.9994C200.354 28.8159 200.665 28.5172 200.831 27.7364ZM203.041 33.961C203.568 34.0723 204.126 33.9424 204.511 33.6115H204.508C204.668 33.4755 204.796 33.3085 204.883 33.1075C205.114 32.5818 204.986 31.951 204.649 31.481C204.312 31.011 203.789 30.6894 203.234 30.4853C202.432 30.1916 201.37 29.9442 200.51 30.0493C199.933 30.1205 200.157 30.5998 200.443 30.8842C200.86 31.2986 201.152 31.6573 201.383 32.1953C201.713 32.9653 202.118 33.7662 203.041 33.961Z" fill="#FD46F6"/>
<defs>
<linearGradient id="paint0_linear_5467_11255" x1="169.429" y1="44.0457" x2="190.778" y2="17.5705" gradientUnits="userSpaceOnUse">
<stop stop-color="#FD46F6"/>
<stop offset="1" stop-color="#FFE500"/>
</linearGradient>
<linearGradient id="paint1_linear_5467_11255" x1="167.522" y1="31.5127" x2="184.628" y2="25.3148" gradientUnits="userSpaceOnUse">
<stop stop-color="#FD46F6"/>
<stop offset="1" stop-color="#FFE500"/>
</linearGradient>
<linearGradient id="paint2_linear_5467_11255" x1="167.199" y1="30.6188" x2="184.305" y2="24.4209" gradientUnits="userSpaceOnUse">
<stop stop-color="#FD46F6"/>
<stop offset="1" stop-color="#FFE500"/>
</linearGradient>
</defs>
</svg>
