<svg width="82" height="24" viewBox="0 0 82 24" fill="none" xmlns="http://www.w3.org/2000/svg">
<rect x="0.5" y="0.5" width="81" height="23" rx="11.5" fill="white" stroke="#A0ACC9"/>
<path d="M30.848 7.756L31.616 7.852C31.52 8.08 31.424 8.296 31.304 8.512H34.472V9.112C34.136 9.748 33.632 10.312 32.948 10.792C33.752 11.176 34.664 11.5 35.696 11.74L35.24 12.388C34.076 12.076 33.08 11.692 32.24 11.224C31.316 11.716 30.176 12.112 28.808 12.412L28.424 11.716C29.66 11.5 30.704 11.188 31.544 10.792C31.076 10.48 30.668 10.144 30.332 9.784C29.972 10.12 29.564 10.432 29.108 10.72L28.628 10.096C29.72 9.448 30.464 8.668 30.848 7.756ZM32.24 10.42C32.828 10.06 33.284 9.64 33.608 9.16H30.884C30.836 9.208 30.8 9.256 30.776 9.304C31.196 9.712 31.688 10.084 32.24 10.42ZM29.864 13.648C31.46 13.948 32.996 14.38 34.46 14.932L34.172 15.628C32.684 15.052 31.136 14.608 29.528 14.296L29.864 13.648ZM31.112 11.968C32.048 12.28 32.912 12.664 33.692 13.096L33.284 13.72C32.456 13.216 31.604 12.832 30.716 12.544L31.112 11.968ZM36.896 6.724V17.2H36.056V16.708H27.944V17.2H27.104V6.724H36.896ZM27.944 15.94H36.056V7.492H27.944V15.94ZM41.72 10.216V10.936C41.708 11.38 41.684 11.8 41.66 12.196H47.24V17.224H46.376V13.036H41.552C41.264 14.836 40.604 16.228 39.584 17.188L38.924 16.612C40.184 15.424 40.82 13.528 40.844 10.936V6.532H41.72V9.388H45.236V6.196H46.088V9.388H48.788V10.216H41.72ZM54.776 14.812V15.64C53.6 16.096 52.256 16.468 50.744 16.744L50.636 15.904C52.22 15.64 53.6 15.268 54.776 14.812ZM52.64 6.136L53.468 6.46C52.856 8.02 52.232 9.268 51.608 10.204C52.148 10.156 52.688 10.084 53.228 10C53.444 9.568 53.684 9.112 53.924 8.632L54.692 8.92C53.636 10.948 52.748 12.388 52.052 13.24C52.916 13.072 53.78 12.844 54.644 12.556V13.336C53.384 13.744 52.184 14.032 51.032 14.188L50.792 13.396C50.948 13.324 51.08 13.24 51.188 13.144C51.632 12.688 52.172 11.896 52.796 10.78C52.136 10.876 51.464 10.96 50.792 11.044L50.588 10.252C50.72 10.204 50.84 10.096 50.948 9.94C51.596 8.836 52.16 7.564 52.64 6.136ZM60.596 8.32L60.716 9.112L57.632 9.544C57.656 10.12 57.692 10.66 57.74 11.176L60.92 10.672L61.052 11.488L57.836 11.992C57.86 12.208 57.896 12.424 57.932 12.616C58.052 13.24 58.196 13.78 58.364 14.26C59.012 13.66 59.588 12.988 60.092 12.22L60.776 12.688C60.14 13.612 59.456 14.404 58.712 15.052C58.76 15.124 58.796 15.208 58.844 15.28C59.24 15.868 59.588 16.168 59.9 16.168C60.212 16.168 60.488 15.52 60.704 14.236L61.436 14.716C61.1 16.3 60.62 17.104 59.996 17.104C59.42 17.08 58.88 16.72 58.364 16C58.256 15.856 58.16 15.712 58.088 15.556C57.2 16.216 56.24 16.708 55.22 17.02L54.716 16.324C55.82 15.964 56.816 15.46 57.704 14.8C57.476 14.272 57.296 13.696 57.152 13.048C57.08 12.736 57.032 12.436 56.984 12.124L54.824 12.472L54.704 11.656L56.876 11.308C56.816 10.792 56.78 10.24 56.768 9.664L55.04 9.916L54.908 9.124L56.744 8.86V6.196H57.608V8.74L60.596 8.32ZM58.952 6.16C59.564 6.736 60.032 7.228 60.368 7.648L59.696 8.116C59.36 7.648 58.88 7.132 58.28 6.58L58.952 6.16ZM63.092 6.676H66.788V10.444H65.588V12.376H66.836V13.192H65.588V15.424C66.116 15.256 66.632 15.088 67.112 14.908V15.772C65.864 16.24 64.4 16.672 62.732 17.068L62.492 16.228L63.128 16.084V11.728H63.896V15.892C64.196 15.82 64.496 15.736 64.784 15.664V10.444H63.092V6.676ZM65.96 9.652V7.468H63.932V9.652H65.96ZM72.512 12.712V17.164H71.684V16.636H68.66V17.164H67.832V12.712H72.512ZM68.66 15.844H71.684V13.492H68.66V15.844ZM69.056 6.172L69.884 6.328C69.788 6.628 69.68 6.916 69.56 7.204H72.536V7.828C72.128 8.836 71.528 9.724 70.748 10.492C71.54 11.14 72.5 11.644 73.616 11.992L73.124 12.7C71.936 12.316 70.94 11.764 70.136 11.044C69.32 11.704 68.36 12.268 67.232 12.748L66.716 12.052C67.82 11.608 68.756 11.08 69.548 10.456C69.116 9.988 68.756 9.484 68.456 8.932C68.144 9.292 67.796 9.616 67.412 9.928L66.896 9.244C67.952 8.416 68.672 7.396 69.056 6.172ZM68.948 8.272C69.272 8.896 69.668 9.46 70.148 9.94C70.76 9.34 71.252 8.692 71.624 7.972H69.152C69.08 8.068 69.02 8.176 68.948 8.272Z" fill="#606980"/>
<path d="M20 7H13.5C12.1193 7 11 8.11929 11 9.5V9.5C11 10.8807 12.1193 12 13.5 12H17.6667" stroke="#A0ACC9" stroke-linecap="round"/>
<path d="M12 17L18.5 17C19.8807 17 21 15.8807 21 14.5V14.5C21 13.1193 19.8807 12 18.5 12L14.3333 12" stroke="#A0ACC9" stroke-linecap="round"/>
<path d="M21.4373 6.86335C21.5209 6.92836 21.5209 7.07164 21.4373 7.13665L19.719 8.47214C19.6254 8.5449 19.5 8.46666 19.5 8.33549L19.5 5.66451C19.5 5.53334 19.6254 5.4551 19.719 5.52786L21.4373 6.86335Z" fill="#A0ACC9"/>
<path d="M10.5627 17.1367C10.4791 17.0716 10.4791 16.9284 10.5627 16.8633L12.281 15.5279C12.3746 15.4551 12.5 15.5333 12.5 15.6645L12.5 18.3355C12.5 18.4667 12.3746 18.5449 12.281 18.4721L10.5627 17.1367Z" fill="#A0ACC9"/>
</svg>
