<svg width="24" height="24" viewBox="0 0 24 24" fill="none" xmlns="http://www.w3.org/2000/svg">
<path d="M19.7199 7.89323C19.0123 7.89323 18.4398 8.5019 18.4398 9.25357V14.5657C18.4398 15.3155 19.0123 15.926 19.7199 15.926C20.4265 15.926 20.9999 15.3183 20.9999 14.5657V9.25357C21.0016 9.0763 20.9697 8.90045 20.9062 8.73607C20.8427 8.5717 20.7488 8.42204 20.6299 8.29567C20.511 8.1693 20.3694 8.06871 20.2132 7.99965C20.0571 7.93059 19.8894 7.89442 19.7199 7.89323ZM4.28007 7.89323C3.5734 7.89323 3 8.5019 3 9.25357V14.5657C3 15.3155 3.5734 15.926 4.28007 15.926C4.98762 15.926 5.56015 15.3183 5.56015 14.5657V9.25357C5.56015 8.5019 4.98762 7.89323 4.28007 7.89323ZM6.3317 7.93448V17.6402C6.3317 18.2159 6.77885 18.6843 7.32945 18.6843H8.46925V21.6406C8.46925 22.3895 9.04353 23 9.74932 23C10.4569 23 11.0294 22.3922 11.0294 21.6406V18.6825H13.0232V21.6378C13.0232 22.3877 13.5966 22.9982 14.3032 22.9982C15.0099 22.9982 15.5833 22.3895 15.5833 21.6378V18.6825H16.7231C16.9882 18.6825 17.2424 18.5724 17.4299 18.3764C17.6173 18.1804 17.7226 17.9146 17.7226 17.6375V7.93539H6.33082L6.3317 7.93448ZM14.6995 2.90561L15.7516 1.30968C15.813 1.21435 15.799 1.08968 15.7166 1.0301C15.635 0.972345 15.5175 0.999845 15.4562 1.09426L14.3628 2.75527C13.61 2.44738 12.8084 2.29034 12 2.29235C11.1583 2.29235 10.356 2.45736 9.63709 2.75436L8.54377 1.0961C8.4824 1.00168 8.36491 0.972345 8.28337 1.03193C8.20096 1.0906 8.18693 1.21526 8.2483 1.31151L9.30042 2.90744C7.62755 3.72145 6.45445 5.26604 6.30452 7.07097H17.6954C17.5464 5.26421 16.3724 3.71961 14.6995 2.90561ZM9.59764 5.42279C9.51282 5.4261 9.42823 5.41149 9.34894 5.37983C9.26964 5.34818 9.19727 5.30013 9.13614 5.23856C9.07501 5.17698 9.02639 5.10316 8.99318 5.02149C8.95997 4.93982 8.94285 4.85199 8.94285 4.76325C8.94285 4.6745 8.95997 4.58667 8.99318 4.505C9.02639 4.42334 9.07501 4.34951 9.13614 4.28794C9.19727 4.22637 9.26964 4.17832 9.34894 4.14666C9.42823 4.11501 9.51282 4.10039 9.59764 4.1037C9.76506 4.1037 9.92563 4.17324 10.044 4.29701C10.1624 4.42079 10.2289 4.58866 10.2289 4.76371C10.2289 4.93875 10.1624 5.10662 10.044 5.2304C9.92563 5.35417 9.76506 5.42371 9.59764 5.42371V5.42279ZM14.4821 5.42279C14.3973 5.4261 14.3127 5.41149 14.2334 5.37983C14.1541 5.34818 14.0817 5.30013 14.0206 5.23856C13.9595 5.17698 13.9108 5.10316 13.8776 5.02149C13.8444 4.93982 13.8273 4.85199 13.8273 4.76325C13.8273 4.6745 13.8444 4.58667 13.8776 4.505C13.9108 4.42334 13.9595 4.34951 14.0206 4.28794C14.0817 4.22637 14.1541 4.17832 14.2334 4.14666C14.3127 4.11501 14.3973 4.10039 14.4821 4.1037C14.6495 4.1037 14.8101 4.17324 14.9285 4.29701C15.0468 4.42079 15.1134 4.58866 15.1134 4.76371C15.1134 4.93875 15.0468 5.10662 14.9285 5.2304C14.8101 5.35417 14.6495 5.42371 14.4821 5.42371V5.42279Z" fill="white"/>
</svg>
