<svg width="24" height="24" viewBox="0 0 24 24" fill="none" xmlns="http://www.w3.org/2000/svg">
<path d="M14.347 3.82211L14.347 3.82212L14.3505 3.82566L22.2037 11.8931C22.2041 11.8935 22.2045 11.8939 22.2048 11.8942C22.2385 11.9298 22.25 11.9672 22.25 12C22.25 12.0329 22.2385 12.0702 22.2048 12.1058C22.2044 12.1062 22.2041 12.1065 22.2037 12.1069L14.3505 20.1743L14.3504 20.1743L14.347 20.1779C14.2799 20.2478 14.1834 20.2702 14.0803 20.2319C14.0301 20.2133 13.996 20.1851 13.9772 20.1602C13.9617 20.1398 13.9499 20.1142 13.9499 20.071V15.7086V15.0402L13.286 14.9635L13.1999 15.7086C13.286 14.9635 13.2857 14.9635 13.2854 14.9634L13.2846 14.9633L13.2827 14.9631L13.2773 14.9625L13.2604 14.9607C13.2463 14.9593 13.2269 14.9574 13.2021 14.9551C13.1527 14.9507 13.0824 14.945 12.9927 14.9393C12.8134 14.928 12.5567 14.9168 12.2358 14.9162C11.5946 14.9151 10.6936 14.9561 9.64049 15.124C7.53745 15.4592 4.79845 16.305 2.31993 18.3584C2.1793 18.475 1.97695 18.4884 1.82991 18.4205C1.7788 18.3969 1.75714 18.3736 1.75017 18.3647C1.75078 18.3584 1.75289 18.3473 1.75888 18.3296C3.09147 14.3931 6.179 9.04157 13.1999 9.04157H13.9499V8.29157V3.929C13.9499 3.88577 13.9617 3.86017 13.9772 3.83976C13.996 3.81494 14.0301 3.78671 14.0803 3.76807C14.1834 3.72979 14.2799 3.7522 14.347 3.82211ZM1.75034 18.3713C1.75017 18.3714 1.74987 18.3702 1.74998 18.3674C1.75057 18.3697 1.75051 18.3712 1.75034 18.3713Z" stroke="#181E2A" stroke-width="1.5"/>
<line x1="17.0607" y1="10" x2="18.9981" y2="11.9375" stroke="#FFE500" stroke-width="1.5" stroke-linecap="round"/>
</svg>
