<svg width="24" height="24" viewBox="0 0 24 24" fill="none" xmlns="http://www.w3.org/2000/svg">
<path fill-rule="evenodd" clip-rule="evenodd" d="M15.5285 9H18.9734C21.8192 9 22.1187 10.4286 21.969 12L20.7707 18.5714C20.4712 20.5714 19.8721 22 17.6254 22H4.49778C3.59911 22 3 21.4286 3 20.7143V10.2857C3 9.57143 3.59911 9 4.49778 9H6.49335C6.64313 9 7.8898 9 8.48892 8.71429C8.93825 8.42857 9.53736 7.57143 10.2863 5.85714L11.1849 3.71428C11.6343 2.71428 12.3832 2 13.5814 2H13.8809C15.3787 2.14286 16.4272 3.42857 16.2774 4.71428C15.9778 7.57143 15.5285 9 15.5285 9ZM6.5 11.75C6.5 11.3358 6.16421 11 5.75 11C5.33579 11 5 11.3358 5 11.75L5 19.25C5 19.6642 5.33579 20 5.75 20C6.16421 20 6.5 19.6642 6.5 19.25L6.5 11.75Z" fill="#181E2A"/>
</svg>
