<svg width="24" height="24" viewBox="0 0 24 24" fill="none" xmlns="http://www.w3.org/2000/svg">
<path fill-rule="evenodd" clip-rule="evenodd" d="M1.57752 11C1.22025 11.6188 1.22025 12.3812 1.57752 13L5.92282 20.5263C6.28009 21.1451 6.94034 21.5263 7.65487 21.5263H16.3455C17.06 21.5263 17.7203 21.1451 18.0775 20.5263L22.4228 13C22.7801 12.3812 22.7801 11.6188 22.4228 11L18.0775 3.47369C17.7203 2.85489 17.06 2.47369 16.3455 2.47369H7.65487C6.94034 2.47369 6.28008 2.85489 5.92282 3.47369L1.57752 11ZM12.0002 17C14.7616 17 17.0002 14.7614 17.0002 12C17.0002 9.23855 14.7616 6.99997 12.0002 6.99997C9.23876 6.99997 7.00018 9.23855 7.00018 12C7.00018 14.7614 9.23876 17 12.0002 17Z" fill="#181E2A"/>
<circle cx="12" cy="12" r="3" fill="#181E2A"/>
</svg>
