<svg width="24" height="24" viewBox="0 0 24 24" fill="none" xmlns="http://www.w3.org/2000/svg">
<path fill-rule="evenodd" clip-rule="evenodd" d="M11.8036 1.88406C11.1804 1.79503 10.5517 2.00461 10.1066 2.44974L2.3284 10.2279C0.766306 11.79 0.766306 14.3227 2.3284 15.8848L7.98526 21.5416C9.54735 23.1037 12.08 23.1037 13.6421 21.5416L21.4203 13.7635C21.8654 13.3183 22.075 12.6896 21.986 12.0664L20.9253 4.64177C20.7996 3.76182 20.1082 3.07043 19.2283 2.94472L11.8036 1.88406ZM14.5 14C16.9853 14 19 11.9853 19 9.49998C19 7.0147 16.9853 4.99998 14.5 4.99998C12.0147 4.99998 9.99998 7.0147 9.99998 9.49998C9.99998 11.9853 12.0147 14 14.5 14Z" fill="white"/>
<circle cx="14.5" cy="9.5" r="2.5" fill="white"/>
</svg>
