<svg width="24" height="24" viewBox="0 0 24 24" fill="none" xmlns="http://www.w3.org/2000/svg">
<path d="M18.8942 16.0221H18.8836L18.7775 15.9152V12.7174H16.297C15.7448 12.7174 15.297 12.2697 15.297 11.7174V11.3475C15.297 10.7952 15.7448 10.3475 16.297 10.3475H18.7775V7.04961L23 11.3714V11.3837L18.8942 16.0221ZM16.4462 3.24188H6.84286L13.6371 4.15207C14.1274 4.41249 14.525 5.05396 14.525 5.58029L14.582 18.2755C14.6249 18.2645 14.669 18.2589 14.7133 18.259H16.4608V16.7925C16.4608 16.473 16.7198 16.214 17.0393 16.214C17.3588 16.214 17.6179 16.473 17.6179 16.7925V18.8799C17.6179 19.224 17.3581 19.5022 17.04 19.5022H14.7133C14.6709 19.5022 14.6285 19.4967 14.5887 19.4872L14.6046 21.8064C14.6046 21.9846 14.472 22.0517 14.3077 21.9572L4.71967 19.1472C4.32209 18.9197 4 18.3824 4 17.9479L4.0212 2.79088C4.00732 2.73537 4.0002 2.67828 4 2.62094C4 2.55376 4.0106 2.48935 4.02783 2.42765C4.05701 2.19738 4.18952 2.05759 4.37772 2.03837C4.4416 2.01304 4.50943 2.00003 4.57785 2H17.0254C17.3435 2 17.6033 2.27689 17.6033 2.62094C17.6033 2.66343 17.5992 2.70728 17.5913 2.74703C17.5992 2.7868 17.6033 2.83065 17.6033 2.87314V5.68154C17.6033 6.00105 17.3443 6.26007 17.0248 6.26007C16.7052 6.26007 16.4462 6.00105 16.4462 5.68153L16.4462 3.24188Z" fill="#181E2A"/>
</svg>
