<svg width="24" height="24" viewBox="0 0 24 24" fill="none" xmlns="http://www.w3.org/2000/svg">
<path d="M15.96 16.4529L12.318 20.0432C12.2336 20.1258 12.1192 20.1721 12 20.1721C11.8807 20.1721 11.7664 20.1258 11.682 20.0432L8.04 16.4529C5.052 16.9288 3 17.9219 3 19.0619C3 20.6779 7.026 22 12 22C16.974 22 21 20.6896 21 19.0619C21 17.9219 18.948 16.9288 15.96 16.4529ZM11.76 17.3931C11.823 17.4544 11.9082 17.4889 11.997 17.4889C12.0858 17.4889 12.171 17.4544 12.234 17.3931C12.234 17.3931 16.98 12.6921 16.992 12.6921C17.8193 11.7553 18.3544 10.6053 18.5335 9.3792C18.7126 8.15306 18.5282 6.90234 18.0023 5.77589C17.4764 4.64944 16.631 3.69469 15.5669 3.02529C14.5028 2.35588 13.2647 2 12 2C10.7353 2 9.49718 2.35588 8.43307 3.02529C7.36896 3.69469 6.52364 4.64944 5.99772 5.77589C5.47179 6.90234 5.28741 8.15306 5.46652 9.3792C5.64563 10.6053 6.18068 11.7553 7.008 12.6921L11.76 17.3931ZM12 5.54667C12.5618 5.54434 13.1117 5.70538 13.58 6.00937C14.0482 6.31336 14.4139 6.74663 14.6305 7.2543C14.8472 7.76196 14.9051 8.32118 14.7969 8.86111C14.6888 9.40104 14.4194 9.89739 14.023 10.2873C13.6266 10.6772 13.1209 10.943 12.5701 11.0512C12.0193 11.1595 11.448 11.1051 10.9287 10.8951C10.4095 10.6851 9.96551 10.3288 9.65313 9.8715C9.34076 9.41417 9.174 8.87633 9.174 8.32611C9.17321 7.96188 9.24568 7.60106 9.38728 7.26426C9.52887 6.92746 9.73681 6.62128 9.99923 6.36318C10.2616 6.10509 10.5734 5.90014 10.9167 5.76004C11.26 5.61995 11.6281 5.54744 12 5.54667Z" fill="white"/>
</svg>
