<svg width="24" height="24" viewBox="0 0 24 24" fill="none" xmlns="http://www.w3.org/2000/svg">
<path fill-rule="evenodd" clip-rule="evenodd" d="M12 22C17.5228 22 22 17.5228 22 12C22 6.47715 17.5228 2 12 2C6.47715 2 2 6.47715 2 12C2 17.5228 6.47715 22 12 22ZM17.4059 7.6822C17.5314 7.59553 17.5314 7.40447 17.4059 7.3178L14.8285 5.53715C14.6881 5.44013 14.5 5.54445 14.5 5.71935V6.88635H9.93182C8.31262 6.88635 7 8.19897 7 9.81817C7 11.4374 8.31262 12.75 9.93182 12.75H13.0633L13.0663 12.75H14.0694C14.8602 12.75 15.5013 13.391 15.5013 14.1818C15.5013 14.9726 14.8602 15.6136 14.0694 15.6136L9.5 15.6136V14.7193C9.5 14.5444 9.3119 14.4401 9.17148 14.5371L6.59409 16.3178C6.46863 16.4045 6.46863 16.5955 6.59409 16.6822L9.17148 18.4629C9.3119 18.5599 9.5 18.4555 9.5 18.2806V17.1136L14.0694 17.1136C15.6886 17.1136 17.0013 15.801 17.0013 14.1818C17.0013 12.5626 15.6886 11.25 14.0694 11.25L10.938 11.25L10.9349 11.25H9.93182C9.14105 11.25 8.5 10.6089 8.5 9.81817C8.5 9.0274 9.14105 8.38635 9.93182 8.38635H14.5V9.28065C14.5 9.45555 14.6881 9.55987 14.8285 9.46285L17.4059 7.6822Z" fill="#181E2A"/>
</svg>
