<svg width="24" height="24" viewBox="0 0 24 24" fill="none" xmlns="http://www.w3.org/2000/svg">
<path fill-rule="evenodd" clip-rule="evenodd" d="M5.29072 19.794C6.24146 20.9417 8.45858 21.5 12.0693 21.5C15.6196 21.5 17.8056 20.9451 18.7525 19.8021C19.2584 19.1931 19.2349 18.6186 19.2196 18.4996C19.2056 18.3137 18.874 13.9554 18.5928 11.9006C18.6929 11.8272 18.906 11.7351 19.0297 11.6816L19.0312 11.6809C19.1419 11.6329 19.2463 11.587 19.338 11.541C19.7452 11.3348 20.584 10.886 20.584 10.886C21.6721 10.348 22.3041 9.67883 22.4619 8.89884C22.5891 8.27293 22.3766 7.73152 22.1354 7.4341C22.1071 7.39873 22.0763 7.36573 22.0431 7.33541L17.0362 2.73175C16.925 2.62951 16.7919 2.55797 16.6484 2.52347C16.505 2.48896 16.3558 2.49256 16.214 2.53393C16.0723 2.57531 15.9423 2.65319 15.8356 2.76067C15.7289 2.86816 15.6488 3.00193 15.6025 3.15014C15.0552 4.89875 13.4719 5.15967 12.5765 5.15967C12.3417 5.15967 12.1902 5.14006 12.1902 5.14006C12.1119 5.12935 12.0326 5.12912 11.9542 5.13937C11.9542 5.13937 11.7982 5.16033 11.5551 5.16033C10.642 5.16033 9.02814 4.89808 8.47129 3.14676C8.42477 2.99953 8.34491 2.86669 8.23874 2.7599C8.13256 2.65312 8.00333 2.57567 7.86238 2.53436C7.72143 2.49304 7.57308 2.48913 7.43038 2.52296C7.28767 2.55678 7.15497 2.62732 7.04393 2.72837L1.9638 7.33204C1.93044 7.36228 1.89917 7.39504 1.87024 7.43006C1.62651 7.72745 1.4108 8.2682 1.53742 8.89611C1.69524 9.68018 2.33607 10.3507 3.41661 10.8779C3.41661 10.8779 4.28589 11.3355 4.70463 11.5444C4.80668 11.5946 4.91026 11.6413 5.01519 11.6843L5.01831 11.6856C5.14538 11.7399 5.36157 11.8322 5.46382 11.906C5.17998 13.9432 4.84272 18.3131 4.83254 18.4563C4.81345 18.6172 4.78864 19.1884 5.29072 19.794ZM15.25 19.5C15.6642 19.5 16 19.1642 16 18.75C16 18.3358 15.6642 18 15.25 18H8.75C8.33579 18 8 18.3358 8 18.75C8 19.1642 8.33579 19.5 8.75 19.5H15.25Z" fill="#181E2A"/>
</svg>
