<svg width="24" height="24" viewBox="0 0 24 24" fill="none" xmlns="http://www.w3.org/2000/svg">
<path fill-rule="evenodd" clip-rule="evenodd" d="M11.8035 1.88406C11.1804 1.79503 10.5516 2.00461 10.1065 2.44974L2.32831 10.2279C0.766214 11.79 0.766214 14.3227 2.32831 15.8848L7.98517 21.5416C9.54726 23.1037 12.0799 23.1037 13.642 21.5416L21.4202 13.7635C21.8653 13.3183 22.0749 12.6896 21.9859 12.0664L20.9252 4.64177C20.7995 3.76182 20.1081 3.07043 19.2282 2.94472L11.8035 1.88406ZM14.4999 14C16.9852 14 18.9999 11.9853 18.9999 9.49998C18.9999 7.0147 16.9852 4.99998 14.4999 4.99998C12.0146 4.99998 9.99989 7.0147 9.99989 9.49998C9.99989 11.9853 12.0146 14 14.4999 14Z" fill="#181E2A"/>
<circle cx="14.5" cy="9.5" r="2.5" fill="#181E2A"/>
</svg>
