<svg width="24" height="24" viewBox="0 0 24 24" fill="none" xmlns="http://www.w3.org/2000/svg">
<path d="M15.2565 4.57181C16.0198 3.64469 16.5982 2.3357 16.3899 1C15.1398 1.0817 13.6814 1.83285 12.8314 2.81023C12.0547 3.69653 11.4164 5.01338 11.6647 6.29252C13.0314 6.33337 14.4381 5.56495 15.2565 4.57181ZM22 17.1416C21.4533 18.284 21.1917 18.7963 20.4883 19.8083C19.5049 21.2226 18.1215 22.9826 16.4065 22.9952C14.8831 23.0109 14.4898 22.0586 12.423 22.0696C10.3563 22.0806 9.923 23.014 8.39793 22.9998C6.6829 22.9841 5.37284 21.397 4.39115 19.9827C1.64608 16.0322 1.35776 11.3949 3.04946 8.92781C4.25448 7.17726 6.15289 6.15427 7.93791 6.15427C9.75464 6.15427 10.8963 7.09554 12.4014 7.09554C13.8598 7.09554 14.7481 6.15268 16.8482 6.15268C18.4382 6.15268 20.1233 6.96985 21.3233 8.38412C17.3915 10.4191 18.0282 15.7226 22 17.1432V17.1416H22Z" fill="white"/>
</svg>
