<svg width="24" height="24" viewBox="0 0 24 24" fill="none" xmlns="http://www.w3.org/2000/svg">
<path d="M2.5 7C2.5 4.51472 4.51472 2.5 7 2.5C9.48528 2.5 11.5 4.51472 11.5 7V10.5C11.5 11.0523 11.0523 11.5 10.5 11.5H7C4.51472 11.5 2.5 9.48528 2.5 7Z" fill="#181E2A"/>
<path d="M2.5 17C2.5 19.4853 4.51472 21.5 7 21.5C9.48528 21.5 11.5 19.4853 11.5 17V13.5C11.5 12.9477 11.0523 12.5 10.5 12.5H7C4.51472 12.5 2.5 14.5147 2.5 17Z" fill="#181E2A"/>
<path d="M21.5 17C21.5 19.4853 19.4853 21.5 17 21.5C14.5147 21.5 12.5 19.4853 12.5 17V13.5C12.5 12.9477 12.9477 12.5 13.5 12.5H17C19.4853 12.5 21.5 14.5147 21.5 17Z" fill="#181E2A"/>
<path d="M21.5 7C21.5 4.51472 19.4853 2.5 17 2.5C14.5147 2.5 12.5 4.51472 12.5 7V10.5C12.5 11.0523 12.9477 11.5 13.5 11.5H17C19.4853 11.5 21.5 9.48528 21.5 7Z" fill="#181E2A"/>
</svg>
