<svg width="24" height="24" viewBox="0 0 24 24" fill="none" xmlns="http://www.w3.org/2000/svg">
<path fill-rule="evenodd" clip-rule="evenodd" d="M12 5.21963C13.0604 3.83926 14.6568 3 16.3786 3C19.48 3 22 5.67239 22 8.95215C22 10.9067 21.0992 12.2871 20.3694 13.3914C18.2486 16.5939 12.9464 20.5914 12.7184 20.7571C12.5017 20.9227 12.2509 21 12 21C11.7491 21 11.4983 20.9227 11.2816 20.7571C11.0536 20.5914 5.74002 16.6049 3.63056 13.3914C2.9008 12.2871 2 10.9067 2 8.95215C2 5.67239 4.51995 3 7.62144 3C9.34322 3 10.951 3.83926 12 5.21963ZM13.4697 16.4697C13.1768 16.7626 13.1768 17.2374 13.4697 17.5303C13.7626 17.8232 14.2374 17.8232 14.5303 17.5303L17.5303 14.5303C17.8232 14.2374 17.8232 13.7626 17.5303 13.4697C17.2374 13.1768 16.7626 13.1768 16.4697 13.4697L13.4697 16.4697Z" fill="white"/>
</svg>
