<svg width="24" height="24" viewBox="0 0 24 24" fill="none" xmlns="http://www.w3.org/2000/svg">
<path fill-rule="evenodd" clip-rule="evenodd" d="M1.57728 11C1.22001 11.6188 1.22001 12.3812 1.57728 13L5.92257 20.5263C6.27984 21.1451 6.94009 21.5263 7.65463 21.5263H16.3452C17.0598 21.5263 17.72 21.1451 18.0773 20.5263L22.4226 13C22.7798 12.3812 22.7798 11.6188 22.4226 11L18.0773 3.47369C17.72 2.85489 17.0598 2.47369 16.3452 2.47369H7.65462C6.94009 2.47369 6.27984 2.85489 5.92257 3.47369L1.57728 11ZM11.9999 17C14.7614 17 16.9999 14.7614 16.9999 12C16.9999 9.23855 14.7614 6.99997 11.9999 6.99997C9.23852 6.99997 6.99994 9.23855 6.99994 12C6.99994 14.7614 9.23852 17 11.9999 17Z" fill="white"/>
<circle cx="12" cy="12" r="3" fill="white"/>
</svg>
