<svg width="24" height="24" viewBox="0 0 24 24" fill="none" xmlns="http://www.w3.org/2000/svg">
<path d="M19.2687 18.8857C17.6594 20.5839 15.4613 21.7186 13.0012 21.9629V21.812C14.2493 21.3053 15.3287 19.8701 16.0514 17.8825C17.2441 18.1151 18.2996 18.4445 19.1663 18.8384C19.2009 18.8542 19.235 18.8699 19.2687 18.8857Z" fill="white"/>
<path d="M14.1727 18.5148C13.7708 19.3185 13.3643 19.8367 13.0012 20.1607V17.5285C13.5335 17.5517 14.0513 17.5932 14.5517 17.6511C14.4337 17.9577 14.3069 18.2462 14.1727 18.5148Z" fill="white"/>
<path d="M11.4994 20.5097V17.5122C10.7903 17.5275 10.1043 17.5752 9.44828 17.6511C9.56628 17.9577 9.69306 18.2462 9.82735 18.5148C10.4278 19.7157 11.0386 20.2791 11.4994 20.5097Z" fill="white"/>
<path d="M15.0096 16.1941C14.3624 16.1107 13.691 16.0536 13.0012 16.0253V13.0012H15.478C15.417 14.1537 15.2524 15.2303 15.0096 16.1941Z" fill="white"/>
<path d="M16.9814 13.0012C16.9207 14.2251 16.7497 15.3842 16.4887 16.4382C17.9292 16.7308 19.2062 17.1599 20.2399 17.6893C21.1789 16.332 21.7911 14.7314 21.9629 13.0012L16.9814 13.0012Z" fill="white"/>
<path d="M22 11.4994L17 11.4994C16.9653 10.0907 16.7851 8.7585 16.4887 7.5618C17.9292 7.26921 19.2062 6.84011 20.2399 6.31068C21.2688 7.79801 21.9054 9.57746 22 11.4994Z" fill="white"/>
<path d="M15.4978 11.4994H13.0012V7.97467C13.691 7.94642 14.3624 7.88926 15.0096 7.80588C15.2872 8.90799 15.4626 10.1576 15.4978 11.4994Z" fill="white"/>
<path d="M11.4994 11.4994V7.99C10.6333 7.97239 9.79321 7.90931 8.99044 7.80588C8.71279 8.90799 8.53741 10.1576 8.50224 11.4994H11.4994Z" fill="white"/>
<path d="M7 11.4994C7.03468 10.0907 7.21494 8.7585 7.51132 7.5618C6.07079 7.26921 4.79385 6.84011 3.7601 6.31068C2.73121 7.79801 2.09464 9.57746 2 11.4994L7 11.4994Z" fill="white"/>
<path d="M2.03714 13.0012L7.01857 13.0012C7.07933 14.2252 7.25029 15.3842 7.51132 16.4382C6.07079 16.7308 4.79385 17.1599 3.7601 17.6893C2.82115 16.332 2.20892 14.7314 2.03714 13.0012Z" fill="white"/>
<path d="M8.52203 13.0012H11.4994V16.01C10.6333 16.0276 9.79321 16.0907 8.99044 16.1941C8.74763 15.2303 8.58303 14.1537 8.52203 13.0012Z" fill="white"/>
<path d="M14.5517 6.34888C14.0513 6.40677 13.5335 6.44826 13.0012 6.4715V3.83933C13.3643 4.1633 13.7708 4.68145 14.1727 5.4852C14.3069 5.75378 14.4337 6.04229 14.5517 6.34888Z" fill="white"/>
<path d="M11.4994 6.48783V3.49028C11.0386 3.72094 10.4278 4.28426 9.82735 5.4852C9.69306 5.75378 9.56628 6.04229 9.44828 6.34888C10.1043 6.42477 10.7903 6.47248 11.4994 6.48783Z" fill="white"/>
<path d="M11.4994 2.03714V2C8.83752 2.13108 6.449 3.30168 4.73128 5.11435C4.76495 5.1301 4.7991 5.14585 4.83373 5.16159C5.70043 5.55554 6.75594 5.88492 7.94855 6.11754C8.76629 3.86861 10.0407 2.32678 11.4994 2.03714Z" fill="white"/>
<path d="M13.0012 2.03714V2.18798C14.2493 2.69467 15.3287 4.12995 16.0514 6.11754C17.2441 5.88492 18.2996 5.55554 19.1663 5.16159C19.2009 5.14585 19.235 5.1301 19.2687 5.11435C17.6594 3.41608 15.4613 2.28139 13.0012 2.03714Z" fill="white"/>
<path d="M11.4994 22V21.9629C10.0407 21.6732 8.76629 20.1314 7.94855 17.8825C6.75594 18.1151 5.70043 18.4445 4.83373 18.8384C4.7991 18.8542 4.76495 18.8699 4.73128 18.8857C6.449 20.6983 8.83752 21.8689 11.4994 22Z" fill="white"/>
</svg>
