<svg width="40" height="40" viewBox="0 0 40 40" fill="none" xmlns="http://www.w3.org/2000/svg">
<circle cx="20" cy="20" r="19" fill="#FFB103" fill-opacity="0.1"/>
<g opacity="0.9" filter="url(#filter0_i_1983_3722)">
<path d="M12 23H27V33L19.5 30.5L12 33V23Z" fill="url(#paint0_linear_1983_3722)"/>
</g>
<path opacity="0.2" d="M13 23H15V32L13 32.6456V23Z" fill="#4D3209"/>
<path opacity="0.2" d="M26 23H24V32L26 32.6456V23Z" fill="#4D3209"/>
<g filter="url(#filter1_ii_1983_3722)">
<circle cx="19.5" cy="17.5" r="10.5" fill="#D6A863"/>
</g>
<path d="M27.261 17.5001C27.261 21.7863 23.7863 25.261 19.5001 25.261C15.2139 25.261 11.7393 21.7863 11.7393 17.5001C11.7393 13.2139 15.2139 9.73926 19.5001 9.73926C23.7863 9.73926 27.261 13.2139 27.261 17.5001Z" fill="#D6A863"/>
<g opacity="0.5" filter="url(#filter2_i_1983_3722)">
<path fill-rule="evenodd" clip-rule="evenodd" d="M19.5001 23.8914C23.0299 23.8914 25.8914 21.0299 25.8914 17.5001C25.8914 13.9703 23.0299 11.1088 19.5001 11.1088C15.9703 11.1088 13.1088 13.9703 13.1088 17.5001C13.1088 21.0299 15.9703 23.8914 19.5001 23.8914ZM19.5001 25.261C23.7863 25.261 27.261 21.7863 27.261 17.5001C27.261 13.2139 23.7863 9.73926 19.5001 9.73926C15.2139 9.73926 11.7393 13.2139 11.7393 17.5001C11.7393 21.7863 15.2139 25.261 19.5001 25.261Z" fill="#886125"/>
</g>
<circle cx="19.5" cy="17.5" r="5.93478" fill="url(#paint1_linear_1983_3722)"/>
<g filter="url(#filter3_d_1983_3722)">
<g filter="url(#filter4_d_1983_3722)">
<path d="M19.5001 13.3914L20.8766 15.6054L23.4077 16.2304L21.7274 18.2238L21.9151 20.8241L19.5001 19.842L17.085 20.8241L17.2727 18.2238L15.5925 16.2304L18.1235 15.6054L19.5001 13.3914Z" fill="url(#paint2_linear_1983_3722)" shape-rendering="crispEdges"/>
</g>
</g>
<defs>
<filter id="filter0_i_1983_3722" x="12" y="23" width="15" height="10.5" filterUnits="userSpaceOnUse" color-interpolation-filters="sRGB">
<feFlood flood-opacity="0" result="BackgroundImageFix"/>
<feBlend mode="normal" in="SourceGraphic" in2="BackgroundImageFix" result="shape"/>
<feColorMatrix in="SourceAlpha" type="matrix" values="0 0 0 0 0 0 0 0 0 0 0 0 0 0 0 0 0 0 127 0" result="hardAlpha"/>
<feOffset dy="0.5"/>
<feGaussianBlur stdDeviation="0.5"/>
<feComposite in2="hardAlpha" operator="arithmetic" k2="-1" k3="1"/>
<feColorMatrix type="matrix" values="0 0 0 0 0 0 0 0 0 0 0 0 0 0 0 0 0 0 0.25 0"/>
<feBlend mode="normal" in2="shape" result="effect1_innerShadow_1983_3722"/>
</filter>
<filter id="filter1_ii_1983_3722" x="9" y="7" width="21" height="21" filterUnits="userSpaceOnUse" color-interpolation-filters="sRGB">
<feFlood flood-opacity="0" result="BackgroundImageFix"/>
<feBlend mode="normal" in="SourceGraphic" in2="BackgroundImageFix" result="shape"/>
<feColorMatrix in="SourceAlpha" type="matrix" values="0 0 0 0 0 0 0 0 0 0 0 0 0 0 0 0 0 0 127 0" result="hardAlpha"/>
<feOffset dx="-0.5" dy="0.5"/>
<feComposite in2="hardAlpha" operator="arithmetic" k2="-1" k3="1"/>
<feColorMatrix type="matrix" values="0 0 0 0 1 0 0 0 0 1 0 0 0 0 1 0 0 0 0.37 0"/>
<feBlend mode="normal" in2="shape" result="effect1_innerShadow_1983_3722"/>
<feColorMatrix in="SourceAlpha" type="matrix" values="0 0 0 0 0 0 0 0 0 0 0 0 0 0 0 0 0 0 127 0" result="hardAlpha"/>
<feOffset dx="0.5" dy="-0.5"/>
<feComposite in2="hardAlpha" operator="arithmetic" k2="-1" k3="1"/>
<feColorMatrix type="matrix" values="0 0 0 0 0.320833 0 0 0 0 0.1925 0 0 0 0 0 0 0 0 0.59 0"/>
<feBlend mode="normal" in2="effect1_innerShadow_1983_3722" result="effect2_innerShadow_1983_3722"/>
</filter>
<filter id="filter2_i_1983_3722" x="11.7393" y="9.73926" width="15.5217" height="16.0217" filterUnits="userSpaceOnUse" color-interpolation-filters="sRGB">
<feFlood flood-opacity="0" result="BackgroundImageFix"/>
<feBlend mode="normal" in="SourceGraphic" in2="BackgroundImageFix" result="shape"/>
<feColorMatrix in="SourceAlpha" type="matrix" values="0 0 0 0 0 0 0 0 0 0 0 0 0 0 0 0 0 0 127 0" result="hardAlpha"/>
<feOffset dy="0.5"/>
<feGaussianBlur stdDeviation="0.5"/>
<feComposite in2="hardAlpha" operator="arithmetic" k2="-1" k3="1"/>
<feColorMatrix type="matrix" values="0 0 0 0 0 0 0 0 0 0 0 0 0 0 0 0 0 0 0.25 0"/>
<feBlend mode="normal" in2="shape" result="effect1_innerShadow_1983_3722"/>
</filter>
<filter id="filter3_d_1983_3722" x="13.5925" y="13.3914" width="11.8152" height="11.4326" filterUnits="userSpaceOnUse" color-interpolation-filters="sRGB">
<feFlood flood-opacity="0" result="BackgroundImageFix"/>
<feColorMatrix in="SourceAlpha" type="matrix" values="0 0 0 0 0 0 0 0 0 0 0 0 0 0 0 0 0 0 127 0" result="hardAlpha"/>
<feOffset dy="2"/>
<feGaussianBlur stdDeviation="1"/>
<feComposite in2="hardAlpha" operator="out"/>
<feColorMatrix type="matrix" values="0 0 0 0 0.504167 0 0 0 0 0.34282 0 0 0 0 0.0987326 0 0 0 0.66 0"/>
<feBlend mode="normal" in2="BackgroundImageFix" result="effect1_dropShadow_1983_3722"/>
<feBlend mode="normal" in="SourceGraphic" in2="effect1_dropShadow_1983_3722" result="shape"/>
</filter>
<filter id="filter4_d_1983_3722" x="9.59253" y="10.3914" width="19.8152" height="19.4326" filterUnits="userSpaceOnUse" color-interpolation-filters="sRGB">
<feFlood flood-opacity="0" result="BackgroundImageFix"/>
<feColorMatrix in="SourceAlpha" type="matrix" values="0 0 0 0 0 0 0 0 0 0 0 0 0 0 0 0 0 0 127 0" result="hardAlpha"/>
<feOffset dy="3"/>
<feGaussianBlur stdDeviation="3"/>
<feComposite in2="hardAlpha" operator="out"/>
<feColorMatrix type="matrix" values="0 0 0 0 0.295833 0 0 0 0 0.180951 0 0 0 0 0.00862846 0 0 0 0.3 0"/>
<feBlend mode="normal" in2="BackgroundImageFix" result="effect1_dropShadow_1983_3722"/>
<feBlend mode="normal" in="SourceGraphic" in2="effect1_dropShadow_1983_3722" result="shape"/>
</filter>
<linearGradient id="paint0_linear_1983_3722" x1="19.5" y1="23" x2="19.5" y2="33" gradientUnits="userSpaceOnUse">
<stop stop-color="#704F1E"/>
<stop offset="1" stop-color="#EBB159"/>
</linearGradient>
<linearGradient id="paint1_linear_1983_3722" x1="19.5" y1="11.5652" x2="19.5" y2="23.4348" gradientUnits="userSpaceOnUse">
<stop stop-color="#D6A863"/>
<stop offset="1" stop-color="#FFCD83"/>
</linearGradient>
<linearGradient id="paint2_linear_1983_3722" x1="19.5001" y1="13.3914" x2="19.5001" y2="21.6087" gradientUnits="userSpaceOnUse">
<stop stop-color="white"/>
<stop offset="1" stop-color="white" stop-opacity="0.47"/>
</linearGradient>
</defs>
</svg>
