<svg width="24" height="24" viewBox="0 0 24 24" fill="none" xmlns="http://www.w3.org/2000/svg">
<path d="M20.6599 12.2615L22.5756 14.2602C22.7102 14.4006 22.8169 14.5672 22.8897 14.7506C22.9625 14.934 23 15.1306 23 15.3291C23 15.5276 22.9625 15.7241 22.8897 15.9075C22.8169 16.0909 22.7102 16.2576 22.5756 16.3979C22.4411 16.5383 22.2814 16.6496 22.1056 16.7256C21.9298 16.8016 21.7414 16.8407 21.5511 16.8407C21.3609 16.8407 21.1725 16.8016 20.9967 16.7256C20.8209 16.6496 20.6612 16.5383 20.5266 16.3979L18.6118 14.3993L16.6961 16.3979C16.4244 16.6814 16.0559 16.8407 15.6716 16.8407C15.2873 16.8407 14.9188 16.6814 14.6471 16.3979C14.3754 16.1144 14.2227 15.73 14.2227 15.3291C14.2227 14.9282 14.3754 14.5437 14.6471 14.2602L16.5628 12.2615L14.6471 10.2637C14.3754 9.98025 14.2227 9.59577 14.2227 9.19487C14.2227 8.79396 14.3754 8.40948 14.6471 8.126C14.9188 7.84251 15.2873 7.68325 15.6716 7.68325C16.0559 7.68325 16.4244 7.84251 16.6961 8.126L18.6118 10.1238L20.5266 8.126C20.6612 7.98563 20.8209 7.87428 20.9967 7.79832C21.1725 7.72235 21.3609 7.68325 21.5511 7.68325C21.7414 7.68325 21.9298 7.72235 22.1056 7.79832C22.2814 7.87428 22.4411 7.98563 22.5756 8.126C22.7102 8.26636 22.8169 8.433 22.8897 8.6164C22.9625 8.79979 23 8.99636 23 9.19487C23 9.39337 22.9625 9.58994 22.8897 9.77333C22.8169 9.95673 22.7102 10.1234 22.5756 10.2637L20.6599 12.2615ZM12.0783 3.14289V20.858C12.0781 21.0844 12.0134 21.3056 11.8925 21.4936C11.7717 21.6817 11.6 21.828 11.3993 21.9141C11.1986 22.0002 10.9779 22.0222 10.7652 21.9773C10.5525 21.9324 10.3574 21.8226 10.2045 21.6618L6.13003 17.3653L2.60717 16.3489C2.14519 16.2156 1.73785 15.9279 1.44757 15.5299C1.15729 15.132 1.00007 14.6457 1 14.1456V9.89462C1 8.85636 1.6707 7.94843 2.63316 7.6834L5.96655 6.7676L10.2079 2.33468C10.3611 2.17486 10.5564 2.06603 10.7689 2.02195C10.9814 1.97787 11.2017 2.0005 11.4018 2.087C11.602 2.1735 11.7731 2.31998 11.8935 2.50792C12.014 2.69586 12.0783 2.91683 12.0783 3.14289Z" fill="white"/>
</svg>
