<svg width="24" height="24" viewBox="0 0 24 24" fill="none" xmlns="http://www.w3.org/2000/svg">
<path fill-rule="evenodd" clip-rule="evenodd" d="M15.5285 9L18.9734 9C21.8192 9 22.1187 10.4286 21.969 12L20.7707 18.5714C20.4712 20.5714 19.8721 22 17.6254 22H3.49778C2.59911 22 2 21.4286 2 20.7143V10.2857C2 9.57143 2.59911 9 3.49778 9H5.49335C5.64313 9 7.8898 9 8.48892 8.71429C8.93825 8.42857 9.53736 7.57143 10.2863 5.85714L11.1849 3.71428C11.6343 2.71428 12.3832 2 13.5814 2H13.8809C15.3787 2.14286 16.4272 3.42857 16.2774 4.71428C15.9778 7.57143 15.5285 9 15.5285 9ZM6 11.5C6 11.2239 5.77614 11 5.5 11C5.22386 11 5 11.2239 5 11.5L5 19.5C5 19.7761 5.22386 20 5.5 20C5.77614 20 6 19.7761 6 19.5L6 11.5Z" fill="#F6D658"/>
</svg>
