<svg width="16" height="16" viewBox="0 0 16 16" fill="none" xmlns="http://www.w3.org/2000/svg">
<g clip-path="url(#clip0_4499_14900)">
<path d="M7.99999 0.666504C3.94891 0.666504 0.666656 3.94876 0.666656 7.99984C0.666656 12.0509 3.94891 15.3332 7.99999 15.3332C12.0511 15.3332 15.3333 12.0509 15.3333 7.99984C15.3333 3.94876 12.0511 0.666504 7.99999 0.666504ZM11.4005 5.65494C11.2911 6.81408 10.8121 9.62914 10.5696 10.9273C10.4661 11.4773 10.265 11.6606 10.0699 11.6783C9.64408 11.7168 9.32176 11.3974 8.90779 11.1254C8.26316 10.7025 7.89649 10.4394 7.27257 10.0254C6.54811 9.5493 7.01827 9.28613 7.42929 8.85736C7.5387 8.745 9.41343 7.03882 9.44891 6.88505C9.45483 6.86435 9.45778 6.79339 9.41343 6.75494C9.36907 6.7165 9.30698 6.73129 9.26262 6.74016C9.19757 6.75396 8.16657 7.43505 6.16961 8.78344C5.87786 8.98451 5.61271 9.08209 5.37418 9.07618C5.11101 9.07027 4.60832 8.92833 4.23279 8.80709C3.77445 8.65925 3.40779 8.57941 3.44031 8.32511C3.45608 8.19303 3.63843 8.05799 3.98736 7.92C6.12427 6.98953 7.54954 6.37546 8.26316 6.07779C10.3005 5.23209 10.7234 5.08425 10.9984 5.07833C11.0605 5.07833 11.1935 5.09312 11.2822 5.16408C11.3401 5.21499 11.377 5.2856 11.3857 5.3622C11.4017 5.45891 11.4067 5.55712 11.4005 5.65494Z" fill="white" fill-opacity="0.7"/>
</g>
<defs>
<clipPath id="clip0_4499_14900">
<rect width="16" height="16" fill="white"/>
</clipPath>
</defs>
</svg>
