<svg width="16" height="16" viewBox="0 0 16 16" fill="none" xmlns="http://www.w3.org/2000/svg">
<path d="M14.6667 6.67985C13.3559 6.68256 12.0775 6.28871 11.0119 5.55396V10.6763C11.0116 11.625 10.7104 12.551 10.1486 13.3305C9.58672 14.1099 8.79105 14.7056 7.86795 15.038C6.94485 15.3703 5.93834 15.4234 4.98303 15.1902C4.02771 14.957 3.16915 14.4486 2.52215 13.733C1.87515 13.0173 1.47057 12.1286 1.36252 11.1856C1.25447 10.2426 1.44809 9.2904 1.9175 8.45623C2.3869 7.62205 3.10971 6.94573 3.98926 6.5177C4.8688 6.08967 5.86314 5.93035 6.8393 6.06104V8.63656C6.39295 8.50131 5.91362 8.50526 5.46974 8.64786C5.02587 8.79047 4.64015 9.06442 4.36766 9.43061C4.09517 9.7968 3.94984 10.2365 3.95243 10.6869C3.95502 11.1374 4.10538 11.5755 4.38206 11.9388C4.65874 12.302 5.04758 12.5719 5.49307 12.7097C5.93855 12.8476 6.4179 12.8465 6.86267 12.7065C7.30744 12.5665 7.69489 12.2948 7.96969 11.9302C8.24449 11.5656 8.3926 11.1268 8.39287 10.6763V0.666504H11.0119C11.0104 0.879726 11.0294 1.09262 11.0685 1.3025C11.1595 1.77034 11.3488 2.21538 11.6246 2.61043C11.9004 3.00548 12.257 3.34224 12.6726 3.60013C13.2642 3.97624 13.9577 4.1765 14.6667 4.17596V6.67985Z" fill="white" fill-opacity="0.7"/>
</svg>
