<svg width="16" height="16" viewBox="0 0 16 16" fill="none" xmlns="http://www.w3.org/2000/svg">
<path d="M13.8266 4.99207C13.8351 5.1219 13.8351 5.25463 13.8351 5.38447C13.8351 9.38639 10.8101 14 5.2815 14C3.57707 14 1.99582 13.5037 0.666656 12.641C0.907281 12.6699 1.14218 12.6785 1.3914 12.6785C2.79791 12.6785 4.08983 12.1996 5.12395 11.3859C3.80338 11.3571 2.69478 10.4857 2.31379 9.28541C2.49999 9.31426 2.68619 9.33157 2.88098 9.33157C3.15025 9.33157 3.41952 9.29406 3.6716 9.2277C2.29374 8.94782 1.26249 7.72734 1.26249 6.25583V6.21832C1.66353 6.44338 2.12759 6.58476 2.6203 6.60207C1.80963 6.05963 1.27968 5.13056 1.27968 4.08031C1.27968 3.51767 1.42864 3.0012 1.68931 2.55109C3.1703 4.38904 5.39322 5.58932 7.88827 5.71916C7.84244 5.49411 7.81379 5.2604 7.81379 5.02669C7.81379 3.35898 9.15442 2 10.8187 2C11.6838 2 12.4659 2.36643 13.0159 2.95504C13.6948 2.8252 14.3479 2.57129 14.9237 2.22505C14.7002 2.92907 14.2247 3.51767 13.6031 3.89276C14.2075 3.8264 14.7948 3.65905 15.3333 3.42534C14.9237 4.02549 14.4109 4.55927 13.8266 4.99207Z" fill="white" fill-opacity="0.7"/>
</svg>
