<svg width="32" height="32" viewBox="0 0 32 32" fill="none" xmlns="http://www.w3.org/2000/svg">
<path d="M14 16L18 16L18 3.45775C18 3.07113 17.8245 2.70035 17.512 2.42697C17.1996 2.15358 16.7759 2 16.334 2L15.666 2C15.2242 2 14.8004 2.15358 14.488 2.42697C14.1755 2.70035 14 3.07113 14 3.45775L14 16Z" fill="white"/>
<path d="M8.23063 18.4486L14.6045 29.236C14.7415 29.4681 14.9327 29.6599 15.1602 29.7936C15.3877 29.9272 15.6441 29.9982 15.9052 30C16.1663 30.0017 16.4235 29.9341 16.6527 29.8035C16.8818 29.6729 17.0754 29.4836 17.2151 29.2534L23.7608 18.466C23.9084 18.223 23.9907 17.9432 23.9993 17.6557C24.0078 17.3682 23.9422 17.0836 23.8093 16.8316C23.6763 16.5796 23.481 16.3695 23.2437 16.2232C23.0064 16.0769 22.7358 15.9998 22.4602 16L9.54052 16C9.2665 15.9997 8.99738 16.0758 8.76096 16.2204C8.52453 16.3649 8.32938 16.5727 8.19567 16.8223C8.06196 17.0719 7.99453 17.3543 8.00035 17.6402C8.00617 17.9261 8.08503 18.2052 8.22878 18.4486L8.23063 18.4486Z" fill="white"/>
</svg>
