<svg width="48" height="48" viewBox="0 0 48 48" fill="none" xmlns="http://www.w3.org/2000/svg">
<circle cx="24" cy="24" r="24" fill="white"/>
<path d="M23.9944 27.6739C24.4789 27.6739 24.8958 27.2911 24.8958 26.8445V15.9238L24.8282 14.3288L25.5831 15.0837L27.2958 16.8064C27.4535 16.9765 27.6789 17.0616 27.9042 17.0616C28.3662 17.0616 28.7268 16.7426 28.7268 16.3066C28.7268 16.0833 28.6254 15.9132 28.4563 15.7537L24.6479 12.2871C24.4225 12.0744 24.231 12 23.9944 12C23.769 12 23.5775 12.0744 23.3408 12.2871L19.5324 15.7537C19.3634 15.9132 19.2732 16.0833 19.2732 16.3066C19.2732 16.7426 19.6113 17.0616 20.0845 17.0616C20.2986 17.0616 20.5465 16.9765 20.7042 16.8064L22.4056 15.0837L23.1718 14.3288L23.1042 15.9238V26.8445C23.1042 27.2911 23.5099 27.6739 23.9944 27.6739ZM17.538 36H30.462C32.8169 36 34 34.8941 34 32.7036V22.0913C34 19.9008 32.8169 18.7949 30.462 18.7949H27.3183V20.5069H30.4282C31.5437 20.5069 32.1859 21.0811 32.1859 22.187V32.6079C32.1859 33.7138 31.5437 34.288 30.4282 34.288H17.5606C16.4338 34.288 15.8141 33.7138 15.8141 32.6079V22.187C15.8141 21.0811 16.4338 20.5069 17.5606 20.5069H20.6817V18.7949H17.538C15.1831 18.7949 14 19.9008 14 22.0913V32.7036C14 34.8941 15.1831 36 17.538 36Z" fill="#007AFF"/>
</svg>
