<svg width="16" height="16" viewBox="0 0 16 16" fill="none" xmlns="http://www.w3.org/2000/svg">
<path d="M15.0272 4.33595C14.858 3.67761 14.3613 3.16095 13.7302 2.98595C12.5863 2.6665 7.99999 2.6665 7.99999 2.6665C7.99999 2.6665 3.41364 2.6665 2.26973 2.98595C1.63871 3.16095 1.14194 3.67761 0.972771 4.33595C0.666656 5.52761 0.666656 8.01095 0.666656 8.01095C0.666656 8.01095 0.666656 10.4943 0.972771 11.6859C1.14194 12.3443 1.63871 12.8387 2.26973 13.0137C3.41364 13.3332 7.99999 13.3332 7.99999 13.3332C7.99999 13.3332 12.5863 13.3332 13.7302 13.0137C14.3613 12.8387 14.858 12.3415 15.0272 11.6859C15.3333 10.4943 15.3333 8.01095 15.3333 8.01095C15.3333 8.01095 15.3333 5.52761 15.0272 4.33595ZM6.50164 10.2665V5.75539L10.3334 8.01095L6.50164 10.2665Z" fill="white" fill-opacity="0.7"/>
</svg>
